<?xml version="1.0" encoding="UTF-8" standalone="yes"?><svg xmlns="http://www.w3.org/2000/svg" height="637pt" style="width:1120px;height:637px;" version="1.1" viewBox="0 0 1120 637" width="1120pt"><defs/><g><polygon fill="#C8C8C8" points="25.0,27.0,62.0,27.0,69.0,49.2900390625,1119.0,49.2900390625,1119.0,636.0,25.0,636.0,25.0,27.0" style="stroke: null; stroke-width: 1;"/><polygon fill="#B4B4B4" points="25.5,27.5,62.5,27.5,69.5,49.7900390625,1118.5,49.7900390625,1118.5,635.5,25.5,635.5,25.5,27.5" style="stroke: null; stroke-width: 1;"/><polygon fill="#A0A0A0" points="26.0,28.0,63.0,28.0,70.0,50.2900390625,1118.0,50.2900390625,1118.0,635.0,26.0,635.0,26.0,28.0" style="stroke: null; stroke-width: 1;"/><polygon fill="#8C8C8C" points="26.5,28.5,63.5,28.5,70.5,50.7900390625,1117.5,50.7900390625,1117.5,634.5,26.5,634.5,26.5,28.5" style="stroke: null; stroke-width: 1;"/><polygon fill="#787878" points="27.0,29.0,64.0,29.0,71.0,51.2900390625,1117.0,51.2900390625,1117.0,634.0,27.0,634.0,27.0,29.0" style="stroke: null; stroke-width: 1;"/><polygon fill="#646464" points="27.5,29.5,64.5,29.5,71.5,51.7900390625,1116.5,51.7900390625,1116.5,633.5,27.5,633.5,27.5,29.5" style="stroke: null; stroke-width: 1;"/><polygon fill="#505050" points="28.0,30.0,65.0,30.0,72.0,52.2900390625,1116.0,52.2900390625,1116.0,633.0,28.0,633.0,28.0,30.0" style="stroke: null; stroke-width: 1;"/><polygon fill="#FFFFFF" points="22.0,24.0,59.0,24.0,66.0,46.2900390625,1116.0,46.2900390625,1116.0,633.0,22.0,633.0,22.0,24.0" style="stroke: #000000; stroke-width: 2.0;"/><line style="stroke: #000000; stroke-width: 2.0;" x1="22.0" x2="66.0" y1="46.2900390625" y2="46.2900390625"/><text fill="#000000" font-size="14" font-weight="bold" lengthAdjust="spacingAndGlyphs" textLength="31.0" x="25.0" y="41.0">CFFI</text><rect fill="#C8C8C8" height="48.0" rx="1.0" ry="1.0" style="stroke: null; stroke-width: 2.0;" width="178.0" x="68.0" y="465.0"/><rect fill="#B9B9B9" height="47.0" rx="1.0" ry="1.0" style="stroke: null; stroke-width: 2.0;" width="177.0" x="68.5" y="465.5"/><rect fill="#AAAAAA" height="46.0" rx="1.0" ry="1.0" style="stroke: null; stroke-width: 2.0;" width="176.0" x="69.0" y="466.0"/><rect fill="#9B9B9B" height="45.0" rx="1.0" ry="1.0" style="stroke: null; stroke-width: 2.0;" width="175.0" x="69.5" y="466.5"/><rect fill="#8C8C8C" height="44.0" rx="1.0" ry="1.0" style="stroke: null; stroke-width: 2.0;" width="174.0" x="70.0" y="467.0"/><rect fill="#7D7D7D" height="43.0" rx="1.0" ry="1.0" style="stroke: null; stroke-width: 2.0;" width="173.0" x="70.5" y="467.5"/><rect fill="#6E6E6E" height="42.0" rx="1.0" ry="1.0" style="stroke: null; stroke-width: 2.0;" width="172.0" x="71.0" y="468.0"/><rect fill="#5F5F5F" height="41.0" rx="1.0" ry="1.0" style="stroke: null; stroke-width: 2.0;" width="171.0" x="71.5" y="468.5"/><rect fill="#505050" height="40.0" rx="1.0" ry="1.0" style="stroke: null; stroke-width: 2.0;" width="170.0" x="72.0" y="469.0"/><rect fill="#FEFECE" height="48.0" style="stroke: #A80036; stroke-width: 1.5;" width="178.0" x="64.0" y="461.0"/><ellipse cx="79.33333333333333" cy="477.0" fill="#ADD1B2" rx="11.0" ry="11.0" style="stroke: #A80036; stroke-width: 1.0;"/><path d="M82.7396,478.9688 L83.724,480.0625 C83.1302,480.6406 81.4271,482.2656 78.9896,482.2656 C75.9896,482.2656 74.224,479.875 74.224,476.9375 C74.224,473.625 76.6302,471.7969 78.6771,471.7969 C79.8958,471.7969 80.5365,472.3438 81.1302,472.875 L81.2396,471.9219 L82.6458,471.9219 C82.6146,472.3438 82.5677,472.8906 82.5677,473.5625 C82.5677,474.5313 82.6458,475.1094 82.7396,475.6875 L81.3177,475.875 C81.1458,474.7813 80.9271,473.2656 78.9115,473.2656 C77.2708,473.2656 75.7865,474.5313 75.7865,476.9219 C75.7865,478.875 76.7552,480.8125 78.974,480.8125 C80.724,480.8125 82.0208,479.6406 82.7396,478.9688 Z "/><text fill="#000000" font-size="12" lengthAdjust="spacingAndGlyphs" textLength="137.0" x="97.66666666666666" y="482.0185546875">FOREIGN-STRING-TYPE</text><line style="stroke: #A80036; stroke-width: 1.5;" x1="64.0" x2="242.0" y1="493.0" y2="493.0"/><line style="stroke: #A80036; stroke-width: 1.5;" x1="64.0" x2="242.0" y1="501.0" y2="501.0"/><rect fill="#C8C8C8" height="48.0" rx="1.0" ry="1.0" style="stroke: null; stroke-width: 1.5;" width="148.0" x="721.0" y="573.0"/><rect fill="#B9B9B9" height="47.0" rx="1.0" ry="1.0" style="stroke: null; stroke-width: 1.5;" width="147.0" x="721.5" y="573.5"/><rect fill="#AAAAAA" height="46.0" rx="1.0" ry="1.0" style="stroke: null; stroke-width: 1.5;" width="146.0" x="722.0" y="574.0"/><rect fill="#9B9B9B" height="45.0" rx="1.0" ry="1.0" style="stroke: null; stroke-width: 1.5;" width="145.0" x="722.5" y="574.5"/><rect fill="#8C8C8C" height="44.0" rx="1.0" ry="1.0" style="stroke: null; stroke-width: 1.5;" width="144.0" x="723.0" y="575.0"/><rect fill="#7D7D7D" height="43.0" rx="1.0" ry="1.0" style="stroke: null; stroke-width: 1.5;" width="143.0" x="723.5" y="575.5"/><rect fill="#6E6E6E" height="42.0" rx="1.0" ry="1.0" style="stroke: null; stroke-width: 1.5;" width="142.0" x="724.0" y="576.0"/><rect fill="#5F5F5F" height="41.0" rx="1.0" ry="1.0" style="stroke: null; stroke-width: 1.5;" width="141.0" x="724.5" y="576.5"/><rect fill="#505050" height="40.0" rx="1.0" ry="1.0" style="stroke: null; stroke-width: 1.5;" width="140.0" x="725.0" y="577.0"/><rect fill="#FEFECE" height="48.0" style="stroke: #A80036; stroke-width: 1.5;" width="148.0" x="717.0" y="569.0"/><ellipse cx="732.3333333333334" cy="585.0" fill="#ADD1B2" rx="11.0" ry="11.0" style="stroke: #A80036; stroke-width: 1.0;"/><path d="M735.7396,586.9688 L736.724,588.0625 C736.1302,588.6406 734.4271,590.2656 731.9896,590.2656 C728.9896,590.2656 727.224,587.875 727.224,584.9375 C727.224,581.625 729.6302,579.7969 731.6771,579.7969 C732.8958,579.7969 733.5365,580.3438 734.1302,580.875 L734.2396,579.9219 L735.6458,579.9219 C735.6146,580.3438 735.5677,580.8906 735.5677,581.5625 C735.5677,582.5313 735.6458,583.1094 735.7396,583.6875 L734.3177,583.875 C734.1458,582.7813 733.9271,581.2656 731.9115,581.2656 C730.2708,581.2656 728.7865,582.5313 728.7865,584.9219 C728.7865,586.875 729.7552,588.8125 731.974,588.8125 C733.724,588.8125 735.0208,587.6406 735.7396,586.9688 Z "/><text fill="#000000" font-size="12" lengthAdjust="spacingAndGlyphs" textLength="107.0" x="750.6666666666666" y="590.0185546875">FOREIGN-BITFIELD</text><line style="stroke: #A80036; stroke-width: 1.5;" x1="717.0" x2="865.0" y1="601.0" y2="601.0"/><line style="stroke: #A80036; stroke-width: 1.5;" x1="717.0" x2="865.0" y1="609.0" y2="609.0"/><rect fill="#C8C8C8" height="48.0" rx="1.0" ry="1.0" style="stroke: null; stroke-width: 1.5;" width="190.0" x="287.0" y="573.0"/><rect fill="#B9B9B9" height="47.0" rx="1.0" ry="1.0" style="stroke: null; stroke-width: 1.5;" width="189.0" x="287.5" y="573.5"/><rect fill="#AAAAAA" height="46.0" rx="1.0" ry="1.0" style="stroke: null; stroke-width: 1.5;" width="188.0" x="288.0" y="574.0"/><rect fill="#9B9B9B" height="45.0" rx="1.0" ry="1.0" style="stroke: null; stroke-width: 1.5;" width="187.0" x="288.5" y="574.5"/><rect fill="#8C8C8C" height="44.0" rx="1.0" ry="1.0" style="stroke: null; stroke-width: 1.5;" width="186.0" x="289.0" y="575.0"/><rect fill="#7D7D7D" height="43.0" rx="1.0" ry="1.0" style="stroke: null; stroke-width: 1.5;" width="185.0" x="289.5" y="575.5"/><rect fill="#6E6E6E" height="42.0" rx="1.0" ry="1.0" style="stroke: null; stroke-width: 1.5;" width="184.0" x="290.0" y="576.0"/><rect fill="#5F5F5F" height="41.0" rx="1.0" ry="1.0" style="stroke: null; stroke-width: 1.5;" width="183.0" x="290.5" y="576.5"/><rect fill="#505050" height="40.0" rx="1.0" ry="1.0" style="stroke: null; stroke-width: 1.5;" width="182.0" x="291.0" y="577.0"/><rect fill="#FEFECE" height="48.0" style="stroke: #A80036; stroke-width: 1.5;" width="190.0" x="283.0" y="569.0"/><ellipse cx="298.3333333333333" cy="585.0" fill="#ADD1B2" rx="11.0" ry="11.0" style="stroke: #A80036; stroke-width: 1.0;"/><path d="M301.7396,586.9688 L302.724,588.0625 C302.1302,588.6406 300.4271,590.2656 297.9896,590.2656 C294.9896,590.2656 293.224,587.875 293.224,584.9375 C293.224,581.625 295.6302,579.7969 297.6771,579.7969 C298.8958,579.7969 299.5365,580.3438 300.1302,580.875 L300.2396,579.9219 L301.6458,579.9219 C301.6146,580.3438 301.5677,580.8906 301.5677,581.5625 C301.5677,582.5313 301.6458,583.1094 301.7396,583.6875 L300.3177,583.875 C300.1458,582.7813 299.9271,581.2656 297.9115,581.2656 C296.2708,581.2656 294.7865,582.5313 294.7865,584.9219 C294.7865,586.875 295.7552,588.8125 297.974,588.8125 C299.724,588.8125 301.0208,587.6406 301.7396,586.9688 Z "/><text fill="#000000" font-size="12" lengthAdjust="spacingAndGlyphs" textLength="149.0" x="316.6666666666667" y="590.0185546875">FOREIGN-BOOLEAN-TYPE</text><line style="stroke: #A80036; stroke-width: 1.5;" x1="283.0" x2="473.0" y1="601.0" y2="601.0"/><line style="stroke: #A80036; stroke-width: 1.5;" x1="283.0" x2="473.0" y1="609.0" y2="609.0"/><rect fill="#C8C8C8" height="48.0" rx="1.0" ry="1.0" style="stroke: null; stroke-width: 1.5;" width="174.0" x="512.0" y="573.0"/><rect fill="#B9B9B9" height="47.0" rx="1.0" ry="1.0" style="stroke: null; stroke-width: 1.5;" width="173.0" x="512.5" y="573.5"/><rect fill="#AAAAAA" height="46.0" rx="1.0" ry="1.0" style="stroke: null; stroke-width: 1.5;" width="172.0" x="513.0" y="574.0"/><rect fill="#9B9B9B" height="45.0" rx="1.0" ry="1.0" style="stroke: null; stroke-width: 1.5;" width="171.0" x="513.5" y="574.5"/><rect fill="#8C8C8C" height="44.0" rx="1.0" ry="1.0" style="stroke: null; stroke-width: 1.5;" width="170.0" x="514.0" y="575.0"/><rect fill="#7D7D7D" height="43.0" rx="1.0" ry="1.0" style="stroke: null; stroke-width: 1.5;" width="169.0" x="514.5" y="575.5"/><rect fill="#6E6E6E" height="42.0" rx="1.0" ry="1.0" style="stroke: null; stroke-width: 1.5;" width="168.0" x="515.0" y="576.0"/><rect fill="#5F5F5F" height="41.0" rx="1.0" ry="1.0" style="stroke: null; stroke-width: 1.5;" width="167.0" x="515.5" y="576.5"/><rect fill="#505050" height="40.0" rx="1.0" ry="1.0" style="stroke: null; stroke-width: 1.5;" width="166.0" x="516.0" y="577.0"/><rect fill="#FEFECE" height="48.0" style="stroke: #A80036; stroke-width: 1.5;" width="174.0" x="508.0" y="569.0"/><ellipse cx="523.3333333333334" cy="585.0" fill="#ADD1B2" rx="11.0" ry="11.0" style="stroke: #A80036; stroke-width: 1.0;"/><path d="M526.7396,586.9688 L527.724,588.0625 C527.1302,588.6406 525.4271,590.2656 522.9896,590.2656 C519.9896,590.2656 518.224,587.875 518.224,584.9375 C518.224,581.625 520.6302,579.7969 522.6771,579.7969 C523.8958,579.7969 524.5365,580.3438 525.1302,580.875 L525.2396,579.9219 L526.6458,579.9219 C526.6146,580.3438 526.5677,580.8906 526.5677,581.5625 C526.5677,582.5313 526.6458,583.1094 526.7396,583.6875 L525.3177,583.875 C525.1458,582.7813 524.9271,581.2656 522.9115,581.2656 C521.2708,581.2656 519.7865,582.5313 519.7865,584.9219 C519.7865,586.875 520.7552,588.8125 522.974,588.8125 C524.724,588.8125 526.0208,587.6406 526.7396,586.9688 Z "/><text fill="#000000" font-size="12" lengthAdjust="spacingAndGlyphs" textLength="133.0" x="541.6666666666666" y="590.0185546875">FOREIGN-ARRAY-TYPE</text><line style="stroke: #A80036; stroke-width: 1.5;" x1="508.0" x2="682.0" y1="601.0" y2="601.0"/><line style="stroke: #A80036; stroke-width: 1.5;" x1="508.0" x2="682.0" y1="609.0" y2="609.0"/><rect fill="#C8C8C8" height="73.5986328125" rx="1.0" ry="1.0" style="stroke: null; stroke-width: 1.5;" width="150.0" x="518.0" y="331.0"/><rect fill="#B9B9B9" height="72.5986328125" rx="1.0" ry="1.0" style="stroke: null; stroke-width: 1.5;" width="149.0" x="518.5" y="331.5"/><rect fill="#AAAAAA" height="71.5986328125" rx="1.0" ry="1.0" style="stroke: null; stroke-width: 1.5;" width="148.0" x="519.0" y="332.0"/><rect fill="#9B9B9B" height="70.5986328125" rx="1.0" ry="1.0" style="stroke: null; stroke-width: 1.5;" width="147.0" x="519.5" y="332.5"/><rect fill="#8C8C8C" height="69.5986328125" rx="1.0" ry="1.0" style="stroke: null; stroke-width: 1.5;" width="146.0" x="520.0" y="333.0"/><rect fill="#7D7D7D" height="68.5986328125" rx="1.0" ry="1.0" style="stroke: null; stroke-width: 1.5;" width="145.0" x="520.5" y="333.5"/><rect fill="#6E6E6E" height="67.5986328125" rx="1.0" ry="1.0" style="stroke: null; stroke-width: 1.5;" width="144.0" x="521.0" y="334.0"/><rect fill="#5F5F5F" height="66.5986328125" rx="1.0" ry="1.0" style="stroke: null; stroke-width: 1.5;" width="143.0" x="521.5" y="334.5"/><rect fill="#505050" height="65.5986328125" rx="1.0" ry="1.0" style="stroke: null; stroke-width: 1.5;" width="142.0" x="522.0" y="335.0"/><rect fill="#FEFECE" height="73.5986328125" style="stroke: #A80036; stroke-width: 1.5;" width="150.0" x="514.0" y="327.0"/><ellipse cx="529.3333333333334" cy="343.0" fill="#ADD1B2" rx="11.0" ry="11.0" style="stroke: #A80036; stroke-width: 1.0;"/><path d="M532.7396,344.9688 L533.724,346.0625 C533.1302,346.6406 531.4271,348.2656 528.9896,348.2656 C525.9896,348.2656 524.224,345.875 524.224,342.9375 C524.224,339.625 526.6302,337.7969 528.6771,337.7969 C529.8958,337.7969 530.5365,338.3438 531.1302,338.875 L531.2396,337.9219 L532.6458,337.9219 C532.6146,338.3438 532.5677,338.8906 532.5677,339.5625 C532.5677,340.5313 532.6458,341.1094 532.7396,341.6875 L531.3177,341.875 C531.1458,340.7813 530.9271,339.2656 528.9115,339.2656 C527.2708,339.2656 525.7865,340.5313 525.7865,342.9219 C525.7865,344.875 526.7552,346.8125 528.974,346.8125 C530.724,346.8125 532.0208,345.6406 532.7396,344.9688 Z "/><text fill="#000000" font-size="12" lengthAdjust="spacingAndGlyphs" textLength="109.0" x="547.6666666666666" y="348.0185546875">FOREIGN-TYPEDEF</text><line style="stroke: #A80036; stroke-width: 1.5;" x1="514.0" x2="664.0" y1="359.0" y2="359.0"/><ellipse cx="525.0" cy="370.899658203125" fill="none" rx="3.0" ry="3.0" style="stroke: #038048; stroke-width: 1.0;"/><text fill="#000000" font-size="11" lengthAdjust="spacingAndGlyphs" textLength="60.0" x="534.0" y="374.0">CFFI::NAME</text><ellipse cx="525.0" cy="383.698974609375" fill="none" rx="3.0" ry="3.0" style="stroke: #038048; stroke-width: 1.0;"/><text fill="#000000" font-size="11" lengthAdjust="spacingAndGlyphs" textLength="106.0" x="534.0" y="386.79931640625">CFFI::ACTUAL-TYPE</text><line style="stroke: #A80036; stroke-width: 1.5;" x1="514.0" x2="664.0" y1="392.5986328125" y2="392.5986328125"/><rect fill="#C8C8C8" height="48.0" rx="1.0" ry="1.0" style="stroke: null; stroke-width: 1.5;" width="128.0" x="976.0" y="88.0"/><rect fill="#B9B9B9" height="47.0" rx="1.0" ry="1.0" style="stroke: null; stroke-width: 1.5;" width="127.0" x="976.5" y="88.5"/><rect fill="#AAAAAA" height="46.0" rx="1.0" ry="1.0" style="stroke: null; stroke-width: 1.5;" width="126.0" x="977.0" y="89.0"/><rect fill="#9B9B9B" height="45.0" rx="1.0" ry="1.0" style="stroke: null; stroke-width: 1.5;" width="125.0" x="977.5" y="89.5"/><rect fill="#8C8C8C" height="44.0" rx="1.0" ry="1.0" style="stroke: null; stroke-width: 1.5;" width="124.0" x="978.0" y="90.0"/><rect fill="#7D7D7D" height="43.0" rx="1.0" ry="1.0" style="stroke: null; stroke-width: 1.5;" width="123.0" x="978.5" y="90.5"/><rect fill="#6E6E6E" height="42.0" rx="1.0" ry="1.0" style="stroke: null; stroke-width: 1.5;" width="122.0" x="979.0" y="91.0"/><rect fill="#5F5F5F" height="41.0" rx="1.0" ry="1.0" style="stroke: null; stroke-width: 1.5;" width="121.0" x="979.5" y="91.5"/><rect fill="#505050" height="40.0" rx="1.0" ry="1.0" style="stroke: null; stroke-width: 1.5;" width="120.0" x="980.0" y="92.0"/><rect fill="#FEFECE" height="48.0" style="stroke: #A80036; stroke-width: 1.5;" width="128.0" x="972.0" y="84.0"/><ellipse cx="987.3333333333334" cy="100.0" fill="#ADD1B2" rx="11.0" ry="11.0" style="stroke: #A80036; stroke-width: 1.0;"/><path d="M990.7396,101.9688 L991.724,103.0625 C991.1302,103.6406 989.4271,105.2656 986.9896,105.2656 C983.9896,105.2656 982.224,102.875 982.224,99.9375 C982.224,96.625 984.6302,94.7969 986.6771,94.7969 C987.8958,94.7969 988.5365,95.3438 989.1302,95.875 L989.2396,94.9219 L990.6458,94.9219 C990.6146,95.3438 990.5677,95.8906 990.5677,96.5625 C990.5677,97.5313 990.6458,98.1094 990.7396,98.6875 L989.3177,98.875 C989.1458,97.7813 988.9271,96.2656 986.9115,96.2656 C985.2708,96.2656 983.7865,97.5313 983.7865,99.9219 C983.7865,101.875 984.7552,103.8125 986.974,103.8125 C988.724,103.8125 990.0208,102.6406 990.7396,101.9688 Z "/><text fill="#000000" font-size="12" lengthAdjust="spacingAndGlyphs" textLength="87.0" x="1005.6666666666666" y="105.0185546875">FOREIGN-TYPE</text><line style="stroke: #A80036; stroke-width: 1.5;" x1="972.0" x2="1100.0" y1="116.0" y2="116.0"/><line style="stroke: #A80036; stroke-width: 1.5;" x1="972.0" x2="1100.0" y1="124.0" y2="124.0"/><rect fill="#C8C8C8" height="48.0" rx="1.0" ry="1.0" style="stroke: null; stroke-width: 1.5;" width="181.0" x="703.0" y="344.0"/><rect fill="#B9B9B9" height="47.0" rx="1.0" ry="1.0" style="stroke: null; stroke-width: 1.5;" width="180.0" x="703.5" y="344.5"/><rect fill="#AAAAAA" height="46.0" rx="1.0" ry="1.0" style="stroke: null; stroke-width: 1.5;" width="179.0" x="704.0" y="345.0"/><rect fill="#9B9B9B" height="45.0" rx="1.0" ry="1.0" style="stroke: null; stroke-width: 1.5;" width="178.0" x="704.5" y="345.5"/><rect fill="#8C8C8C" height="44.0" rx="1.0" ry="1.0" style="stroke: null; stroke-width: 1.5;" width="177.0" x="705.0" y="346.0"/><rect fill="#7D7D7D" height="43.0" rx="1.0" ry="1.0" style="stroke: null; stroke-width: 1.5;" width="176.0" x="705.5" y="346.5"/><rect fill="#6E6E6E" height="42.0" rx="1.0" ry="1.0" style="stroke: null; stroke-width: 1.5;" width="175.0" x="706.0" y="347.0"/><rect fill="#5F5F5F" height="41.0" rx="1.0" ry="1.0" style="stroke: null; stroke-width: 1.5;" width="174.0" x="706.5" y="347.5"/><rect fill="#505050" height="40.0" rx="1.0" ry="1.0" style="stroke: null; stroke-width: 1.5;" width="173.0" x="707.0" y="348.0"/><rect fill="#FEFECE" height="48.0" style="stroke: #A80036; stroke-width: 1.5;" width="181.0" x="699.0" y="340.0"/><ellipse cx="714.3333333333334" cy="356.0" fill="#ADD1B2" rx="11.0" ry="11.0" style="stroke: #A80036; stroke-width: 1.0;"/><path d="M717.7396,357.9688 L718.724,359.0625 C718.1302,359.6406 716.4271,361.2656 713.9896,361.2656 C710.9896,361.2656 709.224,358.875 709.224,355.9375 C709.224,352.625 711.6302,350.7969 713.6771,350.7969 C714.8958,350.7969 715.5365,351.3438 716.1302,351.875 L716.2396,350.9219 L717.6458,350.9219 C717.6146,351.3438 717.5677,351.8906 717.5677,352.5625 C717.5677,353.5313 717.6458,354.1094 717.7396,354.6875 L716.3177,354.875 C716.1458,353.7813 715.9271,352.2656 713.9115,352.2656 C712.2708,352.2656 710.7865,353.5313 710.7865,355.9219 C710.7865,357.875 711.7552,359.8125 713.974,359.8125 C715.724,359.8125 717.0208,358.6406 717.7396,357.9688 Z "/><text fill="#000000" font-size="12" lengthAdjust="spacingAndGlyphs" textLength="140.0" x="732.6666666666666" y="361.0185546875">FOREIGN-STRUCT-TYPE</text><line style="stroke: #A80036; stroke-width: 1.5;" x1="699.0" x2="880.0" y1="372.0" y2="372.0"/><line style="stroke: #A80036; stroke-width: 1.5;" x1="699.0" x2="880.0" y1="380.0" y2="380.0"/><rect fill="#C8C8C8" height="48.0" rx="1.0" ry="1.0" style="stroke: null; stroke-width: 1.5;" width="178.0" x="705.0" y="216.0"/><rect fill="#B9B9B9" height="47.0" rx="1.0" ry="1.0" style="stroke: null; stroke-width: 1.5;" width="177.0" x="705.5" y="216.5"/><rect fill="#AAAAAA" height="46.0" rx="1.0" ry="1.0" style="stroke: null; stroke-width: 1.5;" width="176.0" x="706.0" y="217.0"/><rect fill="#9B9B9B" height="45.0" rx="1.0" ry="1.0" style="stroke: null; stroke-width: 1.5;" width="175.0" x="706.5" y="217.5"/><rect fill="#8C8C8C" height="44.0" rx="1.0" ry="1.0" style="stroke: null; stroke-width: 1.5;" width="174.0" x="707.0" y="218.0"/><rect fill="#7D7D7D" height="43.0" rx="1.0" ry="1.0" style="stroke: null; stroke-width: 1.5;" width="173.0" x="707.5" y="218.5"/><rect fill="#6E6E6E" height="42.0" rx="1.0" ry="1.0" style="stroke: null; stroke-width: 1.5;" width="172.0" x="708.0" y="219.0"/><rect fill="#5F5F5F" height="41.0" rx="1.0" ry="1.0" style="stroke: null; stroke-width: 1.5;" width="171.0" x="708.5" y="219.5"/><rect fill="#505050" height="40.0" rx="1.0" ry="1.0" style="stroke: null; stroke-width: 1.5;" width="170.0" x="709.0" y="220.0"/><rect fill="#FEFECE" height="48.0" style="stroke: #A80036; stroke-width: 1.5;" width="178.0" x="701.0" y="212.0"/><ellipse cx="716.3333333333334" cy="228.0" fill="#ADD1B2" rx="11.0" ry="11.0" style="stroke: #A80036; stroke-width: 1.0;"/><path d="M719.7396,229.9688 L720.724,231.0625 C720.1302,231.6406 718.4271,233.2656 715.9896,233.2656 C712.9896,233.2656 711.224,230.875 711.224,227.9375 C711.224,224.625 713.6302,222.7969 715.6771,222.7969 C716.8958,222.7969 717.5365,223.3438 718.1302,223.875 L718.2396,222.9219 L719.6458,222.9219 C719.6146,223.3438 719.5677,223.8906 719.5677,224.5625 C719.5677,225.5313 719.6458,226.1094 719.7396,226.6875 L718.3177,226.875 C718.1458,225.7813 717.9271,224.2656 715.9115,224.2656 C714.2708,224.2656 712.7865,225.5313 712.7865,227.9219 C712.7865,229.875 713.7552,231.8125 715.974,231.8125 C717.724,231.8125 719.0208,230.6406 719.7396,229.9688 Z "/><text fill="#000000" font-size="12" lengthAdjust="spacingAndGlyphs" textLength="137.0" x="734.6666666666666" y="233.0185546875">NAMED-FOREIGN-TYPE</text><line style="stroke: #A80036; stroke-width: 1.5;" x1="701.0" x2="879.0" y1="244.0" y2="244.0"/><line style="stroke: #A80036; stroke-width: 1.5;" x1="701.0" x2="879.0" y1="252.0" y2="252.0"/><rect fill="#C8C8C8" height="48.0" rx="1.0" ry="1.0" style="stroke: null; stroke-width: 1.5;" width="203.0" x="267.0" y="216.0"/><rect fill="#B9B9B9" height="47.0" rx="1.0" ry="1.0" style="stroke: null; stroke-width: 1.5;" width="202.0" x="267.5" y="216.5"/><rect fill="#AAAAAA" height="46.0" rx="1.0" ry="1.0" style="stroke: null; stroke-width: 1.5;" width="201.0" x="268.0" y="217.0"/><rect fill="#9B9B9B" height="45.0" rx="1.0" ry="1.0" style="stroke: null; stroke-width: 1.5;" width="200.0" x="268.5" y="217.5"/><rect fill="#8C8C8C" height="44.0" rx="1.0" ry="1.0" style="stroke: null; stroke-width: 1.5;" width="199.0" x="269.0" y="218.0"/><rect fill="#7D7D7D" height="43.0" rx="1.0" ry="1.0" style="stroke: null; stroke-width: 1.5;" width="198.0" x="269.5" y="218.5"/><rect fill="#6E6E6E" height="42.0" rx="1.0" ry="1.0" style="stroke: null; stroke-width: 1.5;" width="197.0" x="270.0" y="219.0"/><rect fill="#5F5F5F" height="41.0" rx="1.0" ry="1.0" style="stroke: null; stroke-width: 1.5;" width="196.0" x="270.5" y="219.5"/><rect fill="#505050" height="40.0" rx="1.0" ry="1.0" style="stroke: null; stroke-width: 1.5;" width="195.0" x="271.0" y="220.0"/><rect fill="#FEFECE" height="48.0" style="stroke: #A80036; stroke-width: 1.5;" width="203.0" x="263.0" y="212.0"/><ellipse cx="278.3333333333333" cy="228.0" fill="#ADD1B2" rx="11.0" ry="11.0" style="stroke: #A80036; stroke-width: 1.0;"/><path d="M281.7396,229.9688 L282.724,231.0625 C282.1302,231.6406 280.4271,233.2656 277.9896,233.2656 C274.9896,233.2656 273.224,230.875 273.224,227.9375 C273.224,224.625 275.6302,222.7969 277.6771,222.7969 C278.8958,222.7969 279.5365,223.3438 280.1302,223.875 L280.2396,222.9219 L281.6458,222.9219 C281.6146,223.3438 281.5677,223.8906 281.5677,224.5625 C281.5677,225.5313 281.6458,226.1094 281.7396,226.6875 L280.3177,226.875 C280.1458,225.7813 279.9271,224.2656 277.9115,224.2656 C276.2708,224.2656 274.7865,225.5313 274.7865,227.9219 C274.7865,229.875 275.7552,231.8125 277.974,231.8125 C279.724,231.8125 281.0208,230.6406 281.7396,229.9688 Z "/><text fill="#000000" font-size="12" lengthAdjust="spacingAndGlyphs" textLength="162.0" x="296.6666666666667" y="233.0185546875">AGGREGATE-STRUCT-SLOT</text><line style="stroke: #A80036; stroke-width: 1.5;" x1="263.0" x2="466.0" y1="244.0" y2="244.0"/><line style="stroke: #A80036; stroke-width: 1.5;" x1="263.0" x2="466.0" y1="252.0" y2="252.0"/><rect fill="#C8C8C8" height="73.5986328125" rx="1.0" ry="1.0" style="stroke: null; stroke-width: 1.5;" width="186.0" x="918.0" y="331.0"/><rect fill="#B9B9B9" height="72.5986328125" rx="1.0" ry="1.0" style="stroke: null; stroke-width: 1.5;" width="185.0" x="918.5" y="331.5"/><rect fill="#AAAAAA" height="71.5986328125" rx="1.0" ry="1.0" style="stroke: null; stroke-width: 1.5;" width="184.0" x="919.0" y="332.0"/><rect fill="#9B9B9B" height="70.5986328125" rx="1.0" ry="1.0" style="stroke: null; stroke-width: 1.5;" width="183.0" x="919.5" y="332.5"/><rect fill="#8C8C8C" height="69.5986328125" rx="1.0" ry="1.0" style="stroke: null; stroke-width: 1.5;" width="182.0" x="920.0" y="333.0"/><rect fill="#7D7D7D" height="68.5986328125" rx="1.0" ry="1.0" style="stroke: null; stroke-width: 1.5;" width="181.0" x="920.5" y="333.5"/><rect fill="#6E6E6E" height="67.5986328125" rx="1.0" ry="1.0" style="stroke: null; stroke-width: 1.5;" width="180.0" x="921.0" y="334.0"/><rect fill="#5F5F5F" height="66.5986328125" rx="1.0" ry="1.0" style="stroke: null; stroke-width: 1.5;" width="179.0" x="921.5" y="334.5"/><rect fill="#505050" height="65.5986328125" rx="1.0" ry="1.0" style="stroke: null; stroke-width: 1.5;" width="178.0" x="922.0" y="335.0"/><rect fill="#FEFECE" height="73.5986328125" style="stroke: #A80036; stroke-width: 1.5;" width="186.0" x="914.0" y="327.0"/><ellipse cx="929.3333333333334" cy="343.0" fill="#ADD1B2" rx="11.0" ry="11.0" style="stroke: #A80036; stroke-width: 1.0;"/><path d="M932.7396,344.9688 L933.724,346.0625 C933.1302,346.6406 931.4271,348.2656 928.9896,348.2656 C925.9896,348.2656 924.224,345.875 924.224,342.9375 C924.224,339.625 926.6302,337.7969 928.6771,337.7969 C929.8958,337.7969 930.5365,338.3438 931.1302,338.875 L931.2396,337.9219 L932.6458,337.9219 C932.6146,338.3438 932.5677,338.8906 932.5677,339.5625 C932.5677,340.5313 932.6458,341.1094 932.7396,341.6875 L931.3177,341.875 C931.1458,340.7813 930.9271,339.2656 928.9115,339.2656 C927.2708,339.2656 925.7865,340.5313 925.7865,342.9219 C925.7865,344.875 926.7552,346.8125 928.974,346.8125 C930.724,346.8125 932.0208,345.6406 932.7396,344.9688 Z "/><text fill="#000000" font-size="12" lengthAdjust="spacingAndGlyphs" textLength="145.0" x="947.6666666666666" y="348.0185546875">FOREIGN-POINTER-TYPE</text><line style="stroke: #A80036; stroke-width: 1.5;" x1="914.0" x2="1100.0" y1="359.0" y2="359.0"/><ellipse cx="925.0" cy="370.899658203125" fill="none" rx="3.0" ry="3.0" style="stroke: #038048; stroke-width: 1.0;"/><text fill="#000000" font-size="11" lengthAdjust="spacingAndGlyphs" textLength="114.0" x="934.0" y="374.0">CFFI::TYPE-KEYWORD</text><ellipse cx="925.0" cy="383.698974609375" fill="none" rx="3.0" ry="3.0" style="stroke: #038048; stroke-width: 1.0;"/><text fill="#000000" font-size="11" lengthAdjust="spacingAndGlyphs" textLength="107.0" x="934.0" y="386.79931640625">CFFI::POINTER-TYPE</text><line style="stroke: #A80036; stroke-width: 1.5;" x1="914.0" x2="1100.0" y1="392.5986328125" y2="392.5986328125"/><rect fill="#C8C8C8" height="60.79931640625" rx="1.0" ry="1.0" style="stroke: null; stroke-width: 1.5;" width="186.0" x="918.0" y="209.5"/><rect fill="#B9B9B9" height="59.79931640625" rx="1.0" ry="1.0" style="stroke: null; stroke-width: 1.5;" width="185.0" x="918.5" y="210.0"/><rect fill="#AAAAAA" height="58.79931640625" rx="1.0" ry="1.0" style="stroke: null; stroke-width: 1.5;" width="184.0" x="919.0" y="210.5"/><rect fill="#9B9B9B" height="57.79931640625" rx="1.0" ry="1.0" style="stroke: null; stroke-width: 1.5;" width="183.0" x="919.5" y="211.0"/><rect fill="#8C8C8C" height="56.79931640625" rx="1.0" ry="1.0" style="stroke: null; stroke-width: 1.5;" width="182.0" x="920.0" y="211.5"/><rect fill="#7D7D7D" height="55.79931640625" rx="1.0" ry="1.0" style="stroke: null; stroke-width: 1.5;" width="181.0" x="920.5" y="212.0"/><rect fill="#6E6E6E" height="54.79931640625" rx="1.0" ry="1.0" style="stroke: null; stroke-width: 1.5;" width="180.0" x="921.0" y="212.5"/><rect fill="#5F5F5F" height="53.79931640625" rx="1.0" ry="1.0" style="stroke: null; stroke-width: 1.5;" width="179.0" x="921.5" y="213.0"/><rect fill="#505050" height="52.79931640625" rx="1.0" ry="1.0" style="stroke: null; stroke-width: 1.5;" width="178.0" x="922.0" y="213.5"/><rect fill="#FEFECE" height="60.79931640625" style="stroke: #A80036; stroke-width: 1.5;" width="186.0" x="914.0" y="205.5"/><ellipse cx="929.3333333333334" cy="221.5" fill="#ADD1B2" rx="11.0" ry="11.0" style="stroke: #A80036; stroke-width: 1.0;"/><path d="M932.7396,223.4688 L933.724,224.5625 C933.1302,225.1406 931.4271,226.7656 928.9896,226.7656 C925.9896,226.7656 924.224,224.375 924.224,221.4375 C924.224,218.125 926.6302,216.2969 928.6771,216.2969 C929.8958,216.2969 930.5365,216.8438 931.1302,217.375 L931.2396,216.4219 L932.6458,216.4219 C932.6146,216.8438 932.5677,217.3906 932.5677,218.0625 C932.5677,219.0313 932.6458,219.6094 932.7396,220.1875 L931.3177,220.375 C931.1458,219.2813 930.9271,217.7656 928.9115,217.7656 C927.2708,217.7656 925.7865,219.0313 925.7865,221.4219 C925.7865,223.375 926.7552,225.3125 928.974,225.3125 C930.724,225.3125 932.0208,224.1406 932.7396,223.4688 Z "/><text fill="#000000" font-size="12" lengthAdjust="spacingAndGlyphs" textLength="145.0" x="947.6666666666666" y="226.5185546875">FOREIGN-BUILT-IN-TYPE</text><line style="stroke: #A80036; stroke-width: 1.5;" x1="914.0" x2="1100.0" y1="237.5" y2="237.5"/><ellipse cx="925.0" cy="249.399658203125" fill="none" rx="3.0" ry="3.0" style="stroke: #038048; stroke-width: 1.0;"/><text fill="#000000" font-size="11" lengthAdjust="spacingAndGlyphs" textLength="114.0" x="934.0" y="252.5">CFFI::TYPE-KEYWORD</text><line style="stroke: #A80036; stroke-width: 1.5;" x1="914.0" x2="1100.0" y1="258.29931640625" y2="258.29931640625"/><rect fill="#C8C8C8" height="48.0" rx="1.0" ry="1.0" style="stroke: null; stroke-width: 1.5;" width="169.0" x="64.0" y="216.0"/><rect fill="#B9B9B9" height="47.0" rx="1.0" ry="1.0" style="stroke: null; stroke-width: 1.5;" width="168.0" x="64.5" y="216.5"/><rect fill="#AAAAAA" height="46.0" rx="1.0" ry="1.0" style="stroke: null; stroke-width: 1.5;" width="167.0" x="65.0" y="217.0"/><rect fill="#9B9B9B" height="45.0" rx="1.0" ry="1.0" style="stroke: null; stroke-width: 1.5;" width="166.0" x="65.5" y="217.5"/><rect fill="#8C8C8C" height="44.0" rx="1.0" ry="1.0" style="stroke: null; stroke-width: 1.5;" width="165.0" x="66.0" y="218.0"/><rect fill="#7D7D7D" height="43.0" rx="1.0" ry="1.0" style="stroke: null; stroke-width: 1.5;" width="164.0" x="66.5" y="218.5"/><rect fill="#6E6E6E" height="42.0" rx="1.0" ry="1.0" style="stroke: null; stroke-width: 1.5;" width="163.0" x="67.0" y="219.0"/><rect fill="#5F5F5F" height="41.0" rx="1.0" ry="1.0" style="stroke: null; stroke-width: 1.5;" width="162.0" x="67.5" y="219.5"/><rect fill="#505050" height="40.0" rx="1.0" ry="1.0" style="stroke: null; stroke-width: 1.5;" width="161.0" x="68.0" y="220.0"/><rect fill="#FEFECE" height="48.0" style="stroke: #A80036; stroke-width: 1.5;" width="169.0" x="60.0" y="212.0"/><ellipse cx="75.33333333333333" cy="228.0" fill="#ADD1B2" rx="11.0" ry="11.0" style="stroke: #A80036; stroke-width: 1.0;"/><path d="M78.7396,229.9688 L79.724,231.0625 C79.1302,231.6406 77.4271,233.2656 74.9896,233.2656 C71.9896,233.2656 70.224,230.875 70.224,227.9375 C70.224,224.625 72.6302,222.7969 74.6771,222.7969 C75.8958,222.7969 76.5365,223.3438 77.1302,223.875 L77.2396,222.9219 L78.6458,222.9219 C78.6146,223.3438 78.5677,223.8906 78.5677,224.5625 C78.5677,225.5313 78.6458,226.1094 78.7396,226.6875 L77.3177,226.875 C77.1458,225.7813 76.9271,224.2656 74.9115,224.2656 C73.2708,224.2656 71.7865,225.5313 71.7865,227.9219 C71.7865,229.875 72.7552,231.8125 74.974,231.8125 C76.724,231.8125 78.0208,230.6406 78.7396,229.9688 Z "/><text fill="#000000" font-size="12" lengthAdjust="spacingAndGlyphs" textLength="128.0" x="93.66666666666666" y="233.0185546875">SIMPLE-STRUCT-SLOT</text><line style="stroke: #A80036; stroke-width: 1.5;" x1="60.0" x2="229.0" y1="244.0" y2="244.0"/><line style="stroke: #A80036; stroke-width: 1.5;" x1="60.0" x2="229.0" y1="252.0" y2="252.0"/><rect fill="#C8C8C8" height="48.0" rx="1.0" ry="1.0" style="stroke: null; stroke-width: 1.5;" width="165.0" x="831.0" y="465.0"/><rect fill="#B9B9B9" height="47.0" rx="1.0" ry="1.0" style="stroke: null; stroke-width: 1.5;" width="164.0" x="831.5" y="465.5"/><rect fill="#AAAAAA" height="46.0" rx="1.0" ry="1.0" style="stroke: null; stroke-width: 1.5;" width="163.0" x="832.0" y="466.0"/><rect fill="#9B9B9B" height="45.0" rx="1.0" ry="1.0" style="stroke: null; stroke-width: 1.5;" width="162.0" x="832.5" y="466.5"/><rect fill="#8C8C8C" height="44.0" rx="1.0" ry="1.0" style="stroke: null; stroke-width: 1.5;" width="161.0" x="833.0" y="467.0"/><rect fill="#7D7D7D" height="43.0" rx="1.0" ry="1.0" style="stroke: null; stroke-width: 1.5;" width="160.0" x="833.5" y="467.5"/><rect fill="#6E6E6E" height="42.0" rx="1.0" ry="1.0" style="stroke: null; stroke-width: 1.5;" width="159.0" x="834.0" y="468.0"/><rect fill="#5F5F5F" height="41.0" rx="1.0" ry="1.0" style="stroke: null; stroke-width: 1.5;" width="158.0" x="834.5" y="468.5"/><rect fill="#505050" height="40.0" rx="1.0" ry="1.0" style="stroke: null; stroke-width: 1.5;" width="157.0" x="835.0" y="469.0"/><rect fill="#FEFECE" height="48.0" style="stroke: #A80036; stroke-width: 1.5;" width="165.0" x="827.0" y="461.0"/><ellipse cx="842.3333333333334" cy="477.0" fill="#ADD1B2" rx="11.0" ry="11.0" style="stroke: #A80036; stroke-width: 1.0;"/><path d="M845.7396,478.9688 L846.724,480.0625 C846.1302,480.6406 844.4271,482.2656 841.9896,482.2656 C838.9896,482.2656 837.224,479.875 837.224,476.9375 C837.224,473.625 839.6302,471.7969 841.6771,471.7969 C842.8958,471.7969 843.5365,472.3438 844.1302,472.875 L844.2396,471.9219 L845.6458,471.9219 C845.6146,472.3438 845.5677,472.8906 845.5677,473.5625 C845.5677,474.5313 845.6458,475.1094 845.7396,475.6875 L844.3177,475.875 C844.1458,474.7813 843.9271,473.2656 841.9115,473.2656 C840.2708,473.2656 838.7865,474.5313 838.7865,476.9219 C838.7865,478.875 839.7552,480.8125 841.974,480.8125 C843.724,480.8125 845.0208,479.6406 845.7396,478.9688 Z "/><text fill="#000000" font-size="12" lengthAdjust="spacingAndGlyphs" textLength="124.0" x="860.6666666666666" y="482.0185546875">ENHANCED-TYPEDEF</text><line style="stroke: #A80036; stroke-width: 1.5;" x1="827.0" x2="992.0" y1="493.0" y2="493.0"/><line style="stroke: #A80036; stroke-width: 1.5;" x1="827.0" x2="992.0" y1="501.0" y2="501.0"/><rect fill="#C8C8C8" height="48.0" rx="1.0" ry="1.0" style="stroke: null; stroke-width: 1.5;" width="201.0" x="266.0" y="344.0"/><rect fill="#B9B9B9" height="47.0" rx="1.0" ry="1.0" style="stroke: null; stroke-width: 1.5;" width="200.0" x="266.5" y="344.5"/><rect fill="#AAAAAA" height="46.0" rx="1.0" ry="1.0" style="stroke: null; stroke-width: 1.5;" width="199.0" x="267.0" y="345.0"/><rect fill="#9B9B9B" height="45.0" rx="1.0" ry="1.0" style="stroke: null; stroke-width: 1.5;" width="198.0" x="267.5" y="345.5"/><rect fill="#8C8C8C" height="44.0" rx="1.0" ry="1.0" style="stroke: null; stroke-width: 1.5;" width="197.0" x="268.0" y="346.0"/><rect fill="#7D7D7D" height="43.0" rx="1.0" ry="1.0" style="stroke: null; stroke-width: 1.5;" width="196.0" x="268.5" y="346.5"/><rect fill="#6E6E6E" height="42.0" rx="1.0" ry="1.0" style="stroke: null; stroke-width: 1.5;" width="195.0" x="269.0" y="347.0"/><rect fill="#5F5F5F" height="41.0" rx="1.0" ry="1.0" style="stroke: null; stroke-width: 1.5;" width="194.0" x="269.5" y="347.5"/><rect fill="#505050" height="40.0" rx="1.0" ry="1.0" style="stroke: null; stroke-width: 1.5;" width="193.0" x="270.0" y="348.0"/><rect fill="#FEFECE" height="48.0" style="stroke: #A80036; stroke-width: 1.5;" width="201.0" x="262.0" y="340.0"/><ellipse cx="277.3333333333333" cy="356.0" fill="#ADD1B2" rx="11.0" ry="11.0" style="stroke: #A80036; stroke-width: 1.0;"/><path d="M280.7396,357.9688 L281.724,359.0625 C281.1302,359.6406 279.4271,361.2656 276.9896,361.2656 C273.9896,361.2656 272.224,358.875 272.224,355.9375 C272.224,352.625 274.6302,350.7969 276.6771,350.7969 C277.8958,350.7969 278.5365,351.3438 279.1302,351.875 L279.2396,350.9219 L280.6458,350.9219 C280.6146,351.3438 280.5677,351.8906 280.5677,352.5625 C280.5677,353.5313 280.6458,354.1094 280.7396,354.6875 L279.3177,354.875 C279.1458,353.7813 278.9271,352.2656 276.9115,352.2656 C275.2708,352.2656 273.7865,353.5313 273.7865,355.9219 C273.7865,357.875 274.7552,359.8125 276.974,359.8125 C278.724,359.8125 280.0208,358.6406 280.7396,357.9688 Z "/><text fill="#000000" font-size="12" lengthAdjust="spacingAndGlyphs" textLength="160.0" x="295.6666666666667" y="361.0185546875">ENHANCED-FOREIGN-TYPE</text><line style="stroke: #A80036; stroke-width: 1.5;" x1="262.0" x2="463.0" y1="372.0" y2="372.0"/><line style="stroke: #A80036; stroke-width: 1.5;" x1="262.0" x2="463.0" y1="380.0" y2="380.0"/><rect fill="#C8C8C8" height="73.5986328125" rx="1.0" ry="1.0" style="stroke: null; stroke-width: 1.5;" width="237.0" x="705.0" y="75.0"/><rect fill="#B9B9B9" height="72.5986328125" rx="1.0" ry="1.0" style="stroke: null; stroke-width: 1.5;" width="236.0" x="705.5" y="75.5"/><rect fill="#AAAAAA" height="71.5986328125" rx="1.0" ry="1.0" style="stroke: null; stroke-width: 1.5;" width="235.0" x="706.0" y="76.0"/><rect fill="#9B9B9B" height="70.5986328125" rx="1.0" ry="1.0" style="stroke: null; stroke-width: 1.5;" width="234.0" x="706.5" y="76.5"/><rect fill="#8C8C8C" height="69.5986328125" rx="1.0" ry="1.0" style="stroke: null; stroke-width: 1.5;" width="233.0" x="707.0" y="77.0"/><rect fill="#7D7D7D" height="68.5986328125" rx="1.0" ry="1.0" style="stroke: null; stroke-width: 1.5;" width="232.0" x="707.5" y="77.5"/><rect fill="#6E6E6E" height="67.5986328125" rx="1.0" ry="1.0" style="stroke: null; stroke-width: 1.5;" width="231.0" x="708.0" y="78.0"/><rect fill="#5F5F5F" height="66.5986328125" rx="1.0" ry="1.0" style="stroke: null; stroke-width: 1.5;" width="230.0" x="708.5" y="78.5"/><rect fill="#505050" height="65.5986328125" rx="1.0" ry="1.0" style="stroke: null; stroke-width: 1.5;" width="229.0" x="709.0" y="79.0"/><rect fill="#FEFECE" height="73.5986328125" style="stroke: #A80036; stroke-width: 1.5;" width="237.0" x="701.0" y="71.0"/><ellipse cx="716.3333333333334" cy="87.0" fill="#ADD1B2" rx="11.0" ry="11.0" style="stroke: #A80036; stroke-width: 1.0;"/><path d="M719.7396,88.9688 L720.724,90.0625 C720.1302,90.6406 718.4271,92.2656 715.9896,92.2656 C712.9896,92.2656 711.224,89.875 711.224,86.9375 C711.224,83.625 713.6302,81.7969 715.6771,81.7969 C716.8958,81.7969 717.5365,82.3438 718.1302,82.875 L718.2396,81.9219 L719.6458,81.9219 C719.6146,82.3438 719.5677,82.8906 719.5677,83.5625 C719.5677,84.5313 719.6458,85.1094 719.7396,85.6875 L718.3177,85.875 C718.1458,84.7813 717.9271,83.2656 715.9115,83.2656 C714.2708,83.2656 712.7865,84.5313 712.7865,86.9219 C712.7865,88.875 713.7552,90.8125 715.974,90.8125 C717.724,90.8125 719.0208,89.6406 719.7396,88.9688 Z "/><text fill="#000000" font-size="12" lengthAdjust="spacingAndGlyphs" textLength="196.0" x="734.6666666666666" y="92.0185546875">OBSOLETE-ARGUMENT-WARNING</text><line style="stroke: #A80036; stroke-width: 1.5;" x1="701.0" x2="938.0" y1="103.0" y2="103.0"/><ellipse cx="712.0" cy="114.899658203125" fill="none" rx="3.0" ry="3.0" style="stroke: #038048; stroke-width: 1.0;"/><text fill="#000000" font-size="11" lengthAdjust="spacingAndGlyphs" textLength="81.0" x="721.0" y="118.0">CFFI::OLD-ARG</text><ellipse cx="712.0" cy="127.698974609375" fill="none" rx="3.0" ry="3.0" style="stroke: #038048; stroke-width: 1.0;"/><text fill="#000000" font-size="11" lengthAdjust="spacingAndGlyphs" textLength="81.0" x="721.0" y="130.79931640625">CFFI::NEW-ARG</text><line style="stroke: #A80036; stroke-width: 1.5;" x1="701.0" x2="938.0" y1="136.5986328125" y2="136.5986328125"/><rect fill="#C8C8C8" height="48.0" rx="1.0" ry="1.0" style="stroke: null; stroke-width: 1.5;" width="190.0" x="402.0" y="465.0"/><rect fill="#B9B9B9" height="47.0" rx="1.0" ry="1.0" style="stroke: null; stroke-width: 1.5;" width="189.0" x="402.5" y="465.5"/><rect fill="#AAAAAA" height="46.0" rx="1.0" ry="1.0" style="stroke: null; stroke-width: 1.5;" width="188.0" x="403.0" y="466.0"/><rect fill="#9B9B9B" height="45.0" rx="1.0" ry="1.0" style="stroke: null; stroke-width: 1.5;" width="187.0" x="403.5" y="466.5"/><rect fill="#8C8C8C" height="44.0" rx="1.0" ry="1.0" style="stroke: null; stroke-width: 1.5;" width="186.0" x="404.0" y="467.0"/><rect fill="#7D7D7D" height="43.0" rx="1.0" ry="1.0" style="stroke: null; stroke-width: 1.5;" width="185.0" x="404.5" y="467.5"/><rect fill="#6E6E6E" height="42.0" rx="1.0" ry="1.0" style="stroke: null; stroke-width: 1.5;" width="184.0" x="405.0" y="468.0"/><rect fill="#5F5F5F" height="41.0" rx="1.0" ry="1.0" style="stroke: null; stroke-width: 1.5;" width="183.0" x="405.5" y="468.5"/><rect fill="#505050" height="40.0" rx="1.0" ry="1.0" style="stroke: null; stroke-width: 1.5;" width="182.0" x="406.0" y="469.0"/><rect fill="#FEFECE" height="48.0" style="stroke: #A80036; stroke-width: 1.5;" width="190.0" x="398.0" y="461.0"/><ellipse cx="413.3333333333333" cy="477.0" fill="#ADD1B2" rx="11.0" ry="11.0" style="stroke: #A80036; stroke-width: 1.0;"/><path d="M416.7396,478.9688 L417.724,480.0625 C417.1302,480.6406 415.4271,482.2656 412.9896,482.2656 C409.9896,482.2656 408.224,479.875 408.224,476.9375 C408.224,473.625 410.6302,471.7969 412.6771,471.7969 C413.8958,471.7969 414.5365,472.3438 415.1302,472.875 L415.2396,471.9219 L416.6458,471.9219 C416.6146,472.3438 416.5677,472.8906 416.5677,473.5625 C416.5677,474.5313 416.6458,475.1094 416.7396,475.6875 L415.3177,475.875 C415.1458,474.7813 414.9271,473.2656 412.9115,473.2656 C411.2708,473.2656 409.7865,474.5313 409.7865,476.9219 C409.7865,478.875 410.7552,480.8125 412.974,480.8125 C414.724,480.8125 416.0208,479.6406 416.7396,478.9688 Z "/><text fill="#000000" font-size="12" lengthAdjust="spacingAndGlyphs" textLength="149.0" x="431.6666666666667" y="482.0185546875">FOREIGN-TYPE-WRAPPER</text><line style="stroke: #A80036; stroke-width: 1.5;" x1="398.0" x2="588.0" y1="493.0" y2="493.0"/><line style="stroke: #A80036; stroke-width: 1.5;" x1="398.0" x2="588.0" y1="501.0" y2="501.0"/><rect fill="#C8C8C8" height="48.0" rx="1.0" ry="1.0" style="stroke: null; stroke-width: 1.5;" width="166.0" x="504.0" y="216.0"/><rect fill="#B9B9B9" height="47.0" rx="1.0" ry="1.0" style="stroke: null; stroke-width: 1.5;" width="165.0" x="504.5" y="216.5"/><rect fill="#AAAAAA" height="46.0" rx="1.0" ry="1.0" style="stroke: null; stroke-width: 1.5;" width="164.0" x="505.0" y="217.0"/><rect fill="#9B9B9B" height="45.0" rx="1.0" ry="1.0" style="stroke: null; stroke-width: 1.5;" width="163.0" x="505.5" y="217.5"/><rect fill="#8C8C8C" height="44.0" rx="1.0" ry="1.0" style="stroke: null; stroke-width: 1.5;" width="162.0" x="506.0" y="218.0"/><rect fill="#7D7D7D" height="43.0" rx="1.0" ry="1.0" style="stroke: null; stroke-width: 1.5;" width="161.0" x="506.5" y="218.5"/><rect fill="#6E6E6E" height="42.0" rx="1.0" ry="1.0" style="stroke: null; stroke-width: 1.5;" width="160.0" x="507.0" y="219.0"/><rect fill="#5F5F5F" height="41.0" rx="1.0" ry="1.0" style="stroke: null; stroke-width: 1.5;" width="159.0" x="507.5" y="219.5"/><rect fill="#505050" height="40.0" rx="1.0" ry="1.0" style="stroke: null; stroke-width: 1.5;" width="158.0" x="508.0" y="220.0"/><rect fill="#FEFECE" height="48.0" style="stroke: #A80036; stroke-width: 1.5;" width="166.0" x="500.0" y="212.0"/><ellipse cx="515.3333333333333" cy="228.0" fill="#ADD1B2" rx="11.0" ry="11.0" style="stroke: #A80036; stroke-width: 1.0;"/><path d="M518.7396,229.9688 L519.724,231.0625 C519.1302,231.6406 517.4271,233.2656 514.9896,233.2656 C511.9896,233.2656 510.224,230.875 510.224,227.9375 C510.224,224.625 512.6302,222.7969 514.6771,222.7969 C515.8958,222.7969 516.5365,223.3438 517.1302,223.875 L517.2396,222.9219 L518.6458,222.9219 C518.6146,223.3438 518.5677,223.8906 518.5677,224.5625 C518.5677,225.5313 518.6458,226.1094 518.7396,226.6875 L517.3177,226.875 C517.1458,225.7813 516.9271,224.2656 514.9115,224.2656 C513.2708,224.2656 511.7865,225.5313 511.7865,227.9219 C511.7865,229.875 512.7552,231.8125 514.974,231.8125 C516.724,231.8125 518.0208,230.6406 518.7396,229.9688 Z "/><text fill="#000000" font-size="12" lengthAdjust="spacingAndGlyphs" textLength="125.0" x="533.6666666666666" y="233.0185546875">FOREIGN-TYPE-ALIAS</text><line style="stroke: #A80036; stroke-width: 1.5;" x1="500.0" x2="666.0" y1="244.0" y2="244.0"/><line style="stroke: #A80036; stroke-width: 1.5;" x1="500.0" x2="666.0" y1="252.0" y2="252.0"/><rect fill="#C8C8C8" height="48.0" rx="1.0" ry="1.0" style="stroke: null; stroke-width: 1.5;" width="211.0" x="42.0" y="573.0"/><rect fill="#B9B9B9" height="47.0" rx="1.0" ry="1.0" style="stroke: null; stroke-width: 1.5;" width="210.0" x="42.5" y="573.5"/><rect fill="#AAAAAA" height="46.0" rx="1.0" ry="1.0" style="stroke: null; stroke-width: 1.5;" width="209.0" x="43.0" y="574.0"/><rect fill="#9B9B9B" height="45.0" rx="1.0" ry="1.0" style="stroke: null; stroke-width: 1.5;" width="208.0" x="43.5" y="574.5"/><rect fill="#8C8C8C" height="44.0" rx="1.0" ry="1.0" style="stroke: null; stroke-width: 1.5;" width="207.0" x="44.0" y="575.0"/><rect fill="#7D7D7D" height="43.0" rx="1.0" ry="1.0" style="stroke: null; stroke-width: 1.5;" width="206.0" x="44.5" y="575.5"/><rect fill="#6E6E6E" height="42.0" rx="1.0" ry="1.0" style="stroke: null; stroke-width: 1.5;" width="205.0" x="45.0" y="576.0"/><rect fill="#5F5F5F" height="41.0" rx="1.0" ry="1.0" style="stroke: null; stroke-width: 1.5;" width="204.0" x="45.5" y="576.5"/><rect fill="#505050" height="40.0" rx="1.0" ry="1.0" style="stroke: null; stroke-width: 1.5;" width="203.0" x="46.0" y="577.0"/><rect fill="#FEFECE" height="48.0" style="stroke: #A80036; stroke-width: 1.5;" width="211.0" x="38.0" y="569.0"/><ellipse cx="53.333333333333336" cy="585.0" fill="#ADD1B2" rx="11.0" ry="11.0" style="stroke: #A80036; stroke-width: 1.0;"/><path d="M56.7396,586.9688 L57.724,588.0625 C57.1302,588.6406 55.4271,590.2656 52.9896,590.2656 C49.9896,590.2656 48.224,587.875 48.224,584.9375 C48.224,581.625 50.6302,579.7969 52.6771,579.7969 C53.8958,579.7969 54.5365,580.3438 55.1302,580.875 L55.2396,579.9219 L56.6458,579.9219 C56.6146,580.3438 56.5677,580.8906 56.5677,581.5625 C56.5677,582.5313 56.6458,583.1094 56.7396,583.6875 L55.3177,583.875 C55.1458,582.7813 54.9271,581.2656 52.9115,581.2656 C51.2708,581.2656 49.7865,582.5313 49.7865,584.9219 C49.7865,586.875 50.7552,588.8125 52.974,588.8125 C54.724,588.8125 56.0208,587.6406 56.7396,586.9688 Z "/><text fill="#000000" font-size="12" lengthAdjust="spacingAndGlyphs" textLength="170.0" x="71.66666666666666" y="590.0185546875">FOREIGN-STRING+PTR-TYPE</text><line style="stroke: #A80036; stroke-width: 1.5;" x1="38.0" x2="249.0" y1="601.0" y2="601.0"/><line style="stroke: #A80036; stroke-width: 1.5;" x1="38.0" x2="249.0" y1="609.0" y2="609.0"/><rect fill="#C8C8C8" height="48.0" rx="1.0" ry="1.0" style="stroke: null; stroke-width: 1.5;" width="133.0" x="627.0" y="465.0"/><rect fill="#B9B9B9" height="47.0" rx="1.0" ry="1.0" style="stroke: null; stroke-width: 1.5;" width="132.0" x="627.5" y="465.5"/><rect fill="#AAAAAA" height="46.0" rx="1.0" ry="1.0" style="stroke: null; stroke-width: 1.5;" width="131.0" x="628.0" y="466.0"/><rect fill="#9B9B9B" height="45.0" rx="1.0" ry="1.0" style="stroke: null; stroke-width: 1.5;" width="130.0" x="628.5" y="466.5"/><rect fill="#8C8C8C" height="44.0" rx="1.0" ry="1.0" style="stroke: null; stroke-width: 1.5;" width="129.0" x="629.0" y="467.0"/><rect fill="#7D7D7D" height="43.0" rx="1.0" ry="1.0" style="stroke: null; stroke-width: 1.5;" width="128.0" x="629.5" y="467.5"/><rect fill="#6E6E6E" height="42.0" rx="1.0" ry="1.0" style="stroke: null; stroke-width: 1.5;" width="127.0" x="630.0" y="468.0"/><rect fill="#5F5F5F" height="41.0" rx="1.0" ry="1.0" style="stroke: null; stroke-width: 1.5;" width="126.0" x="630.5" y="468.5"/><rect fill="#505050" height="40.0" rx="1.0" ry="1.0" style="stroke: null; stroke-width: 1.5;" width="125.0" x="631.0" y="469.0"/><rect fill="#FEFECE" height="48.0" style="stroke: #A80036; stroke-width: 1.5;" width="133.0" x="623.0" y="461.0"/><ellipse cx="638.3333333333334" cy="477.0" fill="#ADD1B2" rx="11.0" ry="11.0" style="stroke: #A80036; stroke-width: 1.0;"/><path d="M641.7396,478.9688 L642.724,480.0625 C642.1302,480.6406 640.4271,482.2656 637.9896,482.2656 C634.9896,482.2656 633.224,479.875 633.224,476.9375 C633.224,473.625 635.6302,471.7969 637.6771,471.7969 C638.8958,471.7969 639.5365,472.3438 640.1302,472.875 L640.2396,471.9219 L641.6458,471.9219 C641.6146,472.3438 641.5677,472.8906 641.5677,473.5625 C641.5677,474.5313 641.6458,475.1094 641.7396,475.6875 L640.3177,475.875 C640.1458,474.7813 639.9271,473.2656 637.9115,473.2656 C636.2708,473.2656 634.7865,474.5313 634.7865,476.9219 C634.7865,478.875 635.7552,480.8125 637.974,480.8125 C639.724,480.8125 641.0208,479.6406 641.7396,478.9688 Z "/><text fill="#000000" font-size="12" lengthAdjust="spacingAndGlyphs" textLength="92.0" x="656.6666666666666" y="482.0185546875">FOREIGN-ENUM</text><line style="stroke: #A80036; stroke-width: 1.5;" x1="623.0" x2="756.0" y1="493.0" y2="493.0"/><line style="stroke: #A80036; stroke-width: 1.5;" x1="623.0" x2="756.0" y1="501.0" y2="501.0"/><rect fill="#C8C8C8" height="48.0" rx="1.0" ry="1.0" style="stroke: null; stroke-width: 1.5;" width="181.0" x="490.0" y="88.0"/><rect fill="#B9B9B9" height="47.0" rx="1.0" ry="1.0" style="stroke: null; stroke-width: 1.5;" width="180.0" x="490.5" y="88.5"/><rect fill="#AAAAAA" height="46.0" rx="1.0" ry="1.0" style="stroke: null; stroke-width: 1.5;" width="179.0" x="491.0" y="89.0"/><rect fill="#9B9B9B" height="45.0" rx="1.0" ry="1.0" style="stroke: null; stroke-width: 1.5;" width="178.0" x="491.5" y="89.5"/><rect fill="#8C8C8C" height="44.0" rx="1.0" ry="1.0" style="stroke: null; stroke-width: 1.5;" width="177.0" x="492.0" y="90.0"/><rect fill="#7D7D7D" height="43.0" rx="1.0" ry="1.0" style="stroke: null; stroke-width: 1.5;" width="176.0" x="492.5" y="90.5"/><rect fill="#6E6E6E" height="42.0" rx="1.0" ry="1.0" style="stroke: null; stroke-width: 1.5;" width="175.0" x="493.0" y="91.0"/><rect fill="#5F5F5F" height="41.0" rx="1.0" ry="1.0" style="stroke: null; stroke-width: 1.5;" width="174.0" x="493.5" y="91.5"/><rect fill="#505050" height="40.0" rx="1.0" ry="1.0" style="stroke: null; stroke-width: 1.5;" width="173.0" x="494.0" y="92.0"/><rect fill="#FEFECE" height="48.0" style="stroke: #A80036; stroke-width: 1.5;" width="181.0" x="486.0" y="84.0"/><ellipse cx="501.3333333333333" cy="100.0" fill="#ADD1B2" rx="11.0" ry="11.0" style="stroke: #A80036; stroke-width: 1.0;"/><path d="M504.7396,101.9688 L505.724,103.0625 C505.1302,103.6406 503.4271,105.2656 500.9896,105.2656 C497.9896,105.2656 496.224,102.875 496.224,99.9375 C496.224,96.625 498.6302,94.7969 500.6771,94.7969 C501.8958,94.7969 502.5365,95.3438 503.1302,95.875 L503.2396,94.9219 L504.6458,94.9219 C504.6146,95.3438 504.5677,95.8906 504.5677,96.5625 C504.5677,97.5313 504.6458,98.1094 504.7396,98.6875 L503.3177,98.875 C503.1458,97.7813 502.9271,96.2656 500.9115,96.2656 C499.2708,96.2656 497.7865,97.5313 497.7865,99.9219 C497.7865,101.875 498.7552,103.8125 500.974,103.8125 C502.724,103.8125 504.0208,102.6406 504.7396,101.9688 Z "/><text fill="#000000" font-size="12" lengthAdjust="spacingAndGlyphs" textLength="140.0" x="519.6666666666666" y="105.0185546875">FOREIGN-STRUCT-SLOT</text><line style="stroke: #A80036; stroke-width: 1.5;" x1="486.0" x2="667.0" y1="116.0" y2="116.0"/><line style="stroke: #A80036; stroke-width: 1.5;" x1="486.0" x2="667.0" y1="124.0" y2="124.0"/><rect fill="#C8C8C8" height="48.0" rx="1.0" ry="1.0" style="stroke: null; stroke-width: 1.5;" width="146.0" x="309.0" y="88.0"/><rect fill="#B9B9B9" height="47.0" rx="1.0" ry="1.0" style="stroke: null; stroke-width: 1.5;" width="145.0" x="309.5" y="88.5"/><rect fill="#AAAAAA" height="46.0" rx="1.0" ry="1.0" style="stroke: null; stroke-width: 1.5;" width="144.0" x="310.0" y="89.0"/><rect fill="#9B9B9B" height="45.0" rx="1.0" ry="1.0" style="stroke: null; stroke-width: 1.5;" width="143.0" x="310.5" y="89.5"/><rect fill="#8C8C8C" height="44.0" rx="1.0" ry="1.0" style="stroke: null; stroke-width: 1.5;" width="142.0" x="311.0" y="90.0"/><rect fill="#7D7D7D" height="43.0" rx="1.0" ry="1.0" style="stroke: null; stroke-width: 1.5;" width="141.0" x="311.5" y="90.5"/><rect fill="#6E6E6E" height="42.0" rx="1.0" ry="1.0" style="stroke: null; stroke-width: 1.5;" width="140.0" x="312.0" y="91.0"/><rect fill="#5F5F5F" height="41.0" rx="1.0" ry="1.0" style="stroke: null; stroke-width: 1.5;" width="139.0" x="312.5" y="91.5"/><rect fill="#505050" height="40.0" rx="1.0" ry="1.0" style="stroke: null; stroke-width: 1.5;" width="138.0" x="313.0" y="92.0"/><rect fill="#FEFECE" height="48.0" style="stroke: #A80036; stroke-width: 1.5;" width="146.0" x="305.0" y="84.0"/><ellipse cx="320.3333333333333" cy="100.0" fill="#ADD1B2" rx="11.0" ry="11.0" style="stroke: #A80036; stroke-width: 1.0;"/><path d="M323.7396,101.9688 L324.724,103.0625 C324.1302,103.6406 322.4271,105.2656 319.9896,105.2656 C316.9896,105.2656 315.224,102.875 315.224,99.9375 C315.224,96.625 317.6302,94.7969 319.6771,94.7969 C320.8958,94.7969 321.5365,95.3438 322.1302,95.875 L322.2396,94.9219 L323.6458,94.9219 C323.6146,95.3438 323.5677,95.8906 323.5677,96.5625 C323.5677,97.5313 323.6458,98.1094 323.7396,98.6875 L322.3177,98.875 C322.1458,97.7813 321.9271,96.2656 319.9115,96.2656 C318.2708,96.2656 316.7865,97.5313 316.7865,99.9219 C316.7865,101.875 317.7552,103.8125 319.974,103.8125 C321.724,103.8125 323.0208,102.6406 323.7396,101.9688 Z "/><text fill="#000000" font-size="12" lengthAdjust="spacingAndGlyphs" textLength="105.0" x="338.6666666666667" y="105.0185546875">FOREIGN-LIBRARY</text><line style="stroke: #A80036; stroke-width: 1.5;" x1="305.0" x2="451.0" y1="116.0" y2="116.0"/><line style="stroke: #A80036; stroke-width: 1.5;" x1="305.0" x2="451.0" y1="124.0" y2="124.0"/><rect fill="#C8C8C8" height="73.5986328125" rx="1.0" ry="1.0" style="stroke: null; stroke-width: 1.5;" width="232.0" x="42.0" y="75.0"/><rect fill="#B9B9B9" height="72.5986328125" rx="1.0" ry="1.0" style="stroke: null; stroke-width: 1.5;" width="231.0" x="42.5" y="75.5"/><rect fill="#AAAAAA" height="71.5986328125" rx="1.0" ry="1.0" style="stroke: null; stroke-width: 1.5;" width="230.0" x="43.0" y="76.0"/><rect fill="#9B9B9B" height="70.5986328125" rx="1.0" ry="1.0" style="stroke: null; stroke-width: 1.5;" width="229.0" x="43.5" y="76.5"/><rect fill="#8C8C8C" height="69.5986328125" rx="1.0" ry="1.0" style="stroke: null; stroke-width: 1.5;" width="228.0" x="44.0" y="77.0"/><rect fill="#7D7D7D" height="68.5986328125" rx="1.0" ry="1.0" style="stroke: null; stroke-width: 1.5;" width="227.0" x="44.5" y="77.5"/><rect fill="#6E6E6E" height="67.5986328125" rx="1.0" ry="1.0" style="stroke: null; stroke-width: 1.5;" width="226.0" x="45.0" y="78.0"/><rect fill="#5F5F5F" height="66.5986328125" rx="1.0" ry="1.0" style="stroke: null; stroke-width: 1.5;" width="225.0" x="45.5" y="78.5"/><rect fill="#505050" height="65.5986328125" rx="1.0" ry="1.0" style="stroke: null; stroke-width: 1.5;" width="224.0" x="46.0" y="79.0"/><rect fill="#FEFECE" height="73.5986328125" style="stroke: #A80036; stroke-width: 1.5;" width="232.0" x="38.0" y="71.0"/><ellipse cx="53.333333333333336" cy="87.0" fill="#ADD1B2" rx="11.0" ry="11.0" style="stroke: #A80036; stroke-width: 1.0;"/><path d="M56.7396,88.9688 L57.724,90.0625 C57.1302,90.6406 55.4271,92.2656 52.9896,92.2656 C49.9896,92.2656 48.224,89.875 48.224,86.9375 C48.224,83.625 50.6302,81.7969 52.6771,81.7969 C53.8958,81.7969 54.5365,82.3438 55.1302,82.875 L55.2396,81.9219 L56.6458,81.9219 C56.6146,82.3438 56.5677,82.8906 56.5677,83.5625 C56.5677,84.5313 56.6458,85.1094 56.7396,85.6875 L55.3177,85.875 C55.1458,84.7813 54.9271,83.2656 52.9115,83.2656 C51.2708,83.2656 49.7865,84.5313 49.7865,86.9219 C49.7865,88.875 50.7552,90.8125 52.974,90.8125 C54.724,90.8125 56.0208,89.6406 56.7396,88.9688 Z "/><text fill="#000000" font-size="12" lengthAdjust="spacingAndGlyphs" textLength="191.0" x="71.66666666666666" y="92.0185546875">LOAD-FOREIGN-LIBRARY-ERROR</text><line style="stroke: #A80036; stroke-width: 1.5;" x1="38.0" x2="270.0" y1="103.0" y2="103.0"/><ellipse cx="49.0" cy="114.899658203125" fill="none" rx="3.0" ry="3.0" style="stroke: #038048; stroke-width: 1.0;"/><text fill="#000000" font-size="11" lengthAdjust="spacingAndGlyphs" textLength="167.0" x="58.0" y="118.0">SB-KERNEL:FORMAT-CONTROL</text><ellipse cx="49.0" cy="127.698974609375" fill="none" rx="3.0" ry="3.0" style="stroke: #038048; stroke-width: 1.0;"/><text fill="#000000" font-size="11" lengthAdjust="spacingAndGlyphs" textLength="183.0" x="58.0" y="130.79931640625">SB-KERNEL::FORMAT-ARGUMENTS</text><line style="stroke: #A80036; stroke-width: 1.5;" x1="38.0" x2="270.0" y1="136.5986328125" y2="136.5986328125"/><path d="M148.899,529.291 C147.647,542.817 146.316,557.1835 145.237,568.8436 " fill="none" style="stroke: #A80036; stroke-width: 1.0;"/><polygon fill="none" points="141.942,528.5070000000001,150.756,509.23699999999997,155.882,529.798,141.942,528.5070000000001" style="stroke: #A80036; stroke-width: 1.0;"/><path d="M682.45,403.944 C721.225,422.387 759.987,443.927 772,461 C794.584,493.095 795.591,540.556 793.693,568.9658 " fill="none" style="stroke: #A80036; stroke-width: 1.0;"/><polygon fill="none" points="679.328,410.21299999999997,664.132,395.445,685.221,397.51300000000003,679.328,410.21299999999997" style="stroke: #A80036; stroke-width: 1.0;"/><path d="M632.728,416.91 C645.44,432.293 658.703,448.341 669.157,460.99 " fill="none" style="stroke: #A80036; stroke-width: 1.0;"/><polygon fill="none" points="627.164,421.16700000000003,619.819,401.291,637.956,412.249,627.164,421.16700000000003" style="stroke: #A80036; stroke-width: 1.0;"/><path d="M683.066,401.713 C745.853,425.785 800.526,445.854 841.963,460.889 " fill="none" style="stroke: #A80036; stroke-width: 1.0;"/><polygon fill="none" points="680.392,408.185,664.24,394.469,685.42,395.119,680.392,408.185" style="stroke: #A80036; stroke-width: 1.0;"/><path d="M968.13,139.901 C963.39,141.733 958.649,143.455 954,145 C836.935,183.908 802.239,173.376 683,205 C674.918,207.143 666.512,209.517 658.159,211.97 " fill="none" style="stroke: #A80036; stroke-width: 1.0;"/><polygon fill="none" points="965.63,133.35900000000004,986.787,132.17700000000002,970.985,146.29500000000002,965.63,133.35900000000004" style="stroke: #A80036; stroke-width: 1.0;"/><path d="M1026.11,151.669 C1022.12,169.283 1017.61,189.189 1013.97,205.236 " fill="none" style="stroke: #A80036; stroke-width: 1.0;"/><polygon fill="none" points="1019.3,150.03500000000003,1030.55,132.07600000000002,1032.95,153.128,1019.3,150.03500000000003" style="stroke: #A80036; stroke-width: 1.0;"/><path d="M971.788,141.411 C929.361,163.487 874.731,191.912 836.481,211.815 " fill="none" style="stroke: #A80036; stroke-width: 1.0;"/><polygon fill="none" points="968.756,135.09799999999996,989.729,132.07600000000002,975.218,147.517,968.756,135.09799999999996" style="stroke: #A80036; stroke-width: 1.0;"/><path d="M735.203,270.896 C707.921,288.269 674.93,309.278 647.197,326.94 " fill="none" style="stroke: #A80036; stroke-width: 1.0;"/><polygon fill="none" points="731.564,264.914,752.193,260.076,739.084,276.723,731.564,264.914" style="stroke: #A80036; stroke-width: 1.0;"/><path d="M789.655,280.149 C789.5,300.061 789.322,322.819 789.191,339.597 " fill="none" style="stroke: #A80036; stroke-width: 1.0;"/><polygon fill="none" points="782.656,280.02,789.812,260.076,796.655,280.13,782.656,280.02" style="stroke: #A80036; stroke-width: 1.0;"/><path d="M1007,287.131 C1007,300.366 1007,314.368 1007,326.743 " fill="none" style="stroke: #A80036; stroke-width: 1.0;"/><polygon fill="none" points="1000.0,286.659,1007.0,266.659,1014.0,286.659,1000.0,286.659" style="stroke: #A80036; stroke-width: 1.0;"/><path d="M302.731,398.314 C268.167,418.325 225.422,443.071 194.463,460.995 " fill="none" style="stroke: #A80036; stroke-width: 1.0;"/><polygon fill="none" points="299.643,392.013,320.458,388.05,306.657,404.129,299.643,392.013" style="stroke: #A80036; stroke-width: 1.0;"/><path d="M354.907,408.361 C352.457,440.416 355.163,482.562 380,509 C478.778,614.1429 558.231,537.44 699,569 C704.798,570.3 710.785,571.709 716.793,573.1706 " fill="none" style="stroke: #A80036; stroke-width: 1.0;"/><polygon fill="none" points="347.997,407.175,357.219,388.098,361.907,408.762,347.997,407.175" style="stroke: #A80036; stroke-width: 1.0;"/><path d="M445.883,395.039 C501.358,415.567 573.01,442.08 624.127,460.995 " fill="none" style="stroke: #A80036; stroke-width: 1.0;"/><polygon fill="none" points="443.323,401.55600000000004,426.996,388.05,448.182,388.426,443.323,401.55600000000004" style="stroke: #A80036; stroke-width: 1.0;"/><path d="M334.642,405.557 C318.996,434.588 304.555,474.222 316,509 C323.479,531.727 339.729,553.3495 353.717,568.9645 " fill="none" style="stroke: #A80036; stroke-width: 1.0;"/><polygon fill="none" points="328.684,401.88,344.839,388.168,340.761,408.961,328.684,401.88" style="stroke: #A80036; stroke-width: 1.0;"/><path d="M402.895,401.774 C423.778,421.062 448.565,443.957 466.85,460.847 " fill="none" style="stroke: #A80036; stroke-width: 1.0;"/><polygon fill="none" points="398.137,406.908,388.195,388.195,407.636,396.624,398.137,406.908" style="stroke: #A80036; stroke-width: 1.0;"/><path d="M345.894,407.255 C337.282,438.363 332.23,479.805 353,509 C362.7,522.635 444.634,549.2696 510.518,568.907 " fill="none" style="stroke: #A80036; stroke-width: 1.0;"/><polygon fill="none" points="339.256,405.03,351.991,388.093,352.597,409.274,339.256,405.03" style="stroke: #A80036; stroke-width: 1.0;"/><path d="M524.028,270.156 C486.099,292.123 437.735,320.135 403.757,339.815 " fill="none" style="stroke: #A80036; stroke-width: 1.0;"/><polygon fill="none" points="520.616,264.042,541.432,260.076,527.633,276.157,520.616,264.042" style="stroke: #A80036; stroke-width: 1.0;"/><path d="M585.068,280.116 C585.783,295.374 586.577,312.306 587.263,326.94 " fill="none" style="stroke: #A80036; stroke-width: 1.0;"/><polygon fill="none" points="578.073,280.382,584.129,260.076,592.057,279.726,578.073,280.382" style="stroke: #A80036; stroke-width: 1.0;"/><path d="M518.685,142.605 C482.415,164.504 436.429,192.269 404.057,211.815 " fill="none" style="stroke: #A80036; stroke-width: 1.0;"/><polygon fill="none" points="515.385,136.42100000000005,536.124,132.07600000000002,522.621,148.406,515.385,136.42100000000005" style="stroke: #A80036; stroke-width: 1.0;"/><path d="M488.84,138.42 C481.808,140.704 474.797,142.924 468,145 C369.841,174.982 343.63,176.605 245,205 C237.333,207.207 229.355,209.56 221.393,211.944 " fill="none" style="stroke: #A80036; stroke-width: 1.0;"/><polygon fill="none" points="486.769,131.73199999999997,507.956,132.08799999999997,491.172,145.022,486.769,131.73199999999997" style="stroke: #A80036; stroke-width: 1.0;"/></g></svg>