<?xml version="1.0" encoding="UTF-8" standalone="yes"?><svg xmlns="http://www.w3.org/2000/svg" height="529pt" style="width:4040px;height:529px;" version="1.1" viewBox="0 0 4040 529" width="4040pt"><defs/><g><polygon fill="#C8C8C8" points="25.0,27.0,94.0,27.0,101.0,49.2900390625,962.0,49.2900390625,962.0,528.0,25.0,528.0,25.0,27.0" style="stroke: null; stroke-width: 1;"/><polygon fill="#B4B4B4" points="25.5,27.5,94.5,27.5,101.5,49.7900390625,961.5,49.7900390625,961.5,527.5,25.5,527.5,25.5,27.5" style="stroke: null; stroke-width: 1;"/><polygon fill="#A0A0A0" points="26.0,28.0,95.0,28.0,102.0,50.2900390625,961.0,50.2900390625,961.0,527.0,26.0,527.0,26.0,28.0" style="stroke: null; stroke-width: 1;"/><polygon fill="#8C8C8C" points="26.5,28.5,95.5,28.5,102.5,50.7900390625,960.5,50.7900390625,960.5,526.5,26.5,526.5,26.5,28.5" style="stroke: null; stroke-width: 1;"/><polygon fill="#787878" points="27.0,29.0,96.0,29.0,103.0,51.2900390625,960.0,51.2900390625,960.0,526.0,27.0,526.0,27.0,29.0" style="stroke: null; stroke-width: 1;"/><polygon fill="#646464" points="27.5,29.5,96.5,29.5,103.5,51.7900390625,959.5,51.7900390625,959.5,525.5,27.5,525.5,27.5,29.5" style="stroke: null; stroke-width: 1;"/><polygon fill="#505050" points="28.0,30.0,97.0,30.0,104.0,52.2900390625,959.0,52.2900390625,959.0,525.0,28.0,525.0,28.0,30.0" style="stroke: null; stroke-width: 1;"/><polygon fill="#FFFFFF" points="22.0,24.0,91.0,24.0,98.0,46.2900390625,959.0,46.2900390625,959.0,525.0,22.0,525.0,22.0,24.0" style="stroke: #000000; stroke-width: 2.0;"/><line style="stroke: #000000; stroke-width: 2.0;" x1="22.0" x2="98.0" y1="46.2900390625" y2="46.2900390625"/><text fill="#000000" font-size="14" font-weight="bold" lengthAdjust="spacingAndGlyphs" textLength="63.0" x="25.0" y="41.0">QL-DIST</text><polygon fill="#C8C8C8" points="986.0,85.0,1061.0,85.0,1068.0,107.2900390625,2332.0,107.2900390625,2332.0,477.0,986.0,477.0,986.0,85.0" style="stroke: null; stroke-width: 2.0;"/><polygon fill="#B4B4B4" points="986.5,85.5,1061.5,85.5,1068.5,107.7900390625,2331.5,107.7900390625,2331.5,476.5,986.5,476.5,986.5,85.5" style="stroke: null; stroke-width: 2.0;"/><polygon fill="#A0A0A0" points="987.0,86.0,1062.0,86.0,1069.0,108.2900390625,2331.0,108.2900390625,2331.0,476.0,987.0,476.0,987.0,86.0" style="stroke: null; stroke-width: 2.0;"/><polygon fill="#8C8C8C" points="987.5,86.5,1062.5,86.5,1069.5,108.7900390625,2330.5,108.7900390625,2330.5,475.5,987.5,475.5,987.5,86.5" style="stroke: null; stroke-width: 2.0;"/><polygon fill="#787878" points="988.0,87.0,1063.0,87.0,1070.0,109.2900390625,2330.0,109.2900390625,2330.0,475.0,988.0,475.0,988.0,87.0" style="stroke: null; stroke-width: 2.0;"/><polygon fill="#646464" points="988.5,87.5,1063.5,87.5,1070.5,109.7900390625,2329.5,109.7900390625,2329.5,474.5,988.5,474.5,988.5,87.5" style="stroke: null; stroke-width: 2.0;"/><polygon fill="#505050" points="989.0,88.0,1064.0,88.0,1071.0,110.2900390625,2329.0,110.2900390625,2329.0,474.0,989.0,474.0,989.0,88.0" style="stroke: null; stroke-width: 2.0;"/><polygon fill="#FFFFFF" points="983.0,82.0,1058.0,82.0,1065.0,104.2900390625,2329.0,104.2900390625,2329.0,474.0,983.0,474.0,983.0,82.0" style="stroke: #000000; stroke-width: 2.0;"/><line style="stroke: #000000; stroke-width: 2.0;" x1="983.0" x2="1065.0" y1="104.2900390625" y2="104.2900390625"/><text fill="#000000" font-size="14" font-weight="bold" lengthAdjust="spacingAndGlyphs" textLength="69.0" x="986.0" y="99.0">QL-HTTP</text><polygon fill="#C8C8C8" points="2356.0,72.0,2472.0,72.0,2479.0,94.2900390625,3287.0,94.2900390625,3287.0,477.0,2356.0,477.0,2356.0,72.0" style="stroke: null; stroke-width: 2.0;"/><polygon fill="#B4B4B4" points="2356.5,72.5,2472.5,72.5,2479.5,94.7900390625,3286.5,94.7900390625,3286.5,476.5,2356.5,476.5,2356.5,72.5" style="stroke: null; stroke-width: 2.0;"/><polygon fill="#A0A0A0" points="2357.0,73.0,2473.0,73.0,2480.0,95.2900390625,3286.0,95.2900390625,3286.0,476.0,2357.0,476.0,2357.0,73.0" style="stroke: null; stroke-width: 2.0;"/><polygon fill="#8C8C8C" points="2357.5,73.5,2473.5,73.5,2480.5,95.7900390625,3285.5,95.7900390625,3285.5,475.5,2357.5,475.5,2357.5,73.5" style="stroke: null; stroke-width: 2.0;"/><polygon fill="#787878" points="2358.0,74.0,2474.0,74.0,2481.0,96.2900390625,3285.0,96.2900390625,3285.0,475.0,2358.0,475.0,2358.0,74.0" style="stroke: null; stroke-width: 2.0;"/><polygon fill="#646464" points="2358.5,74.5,2474.5,74.5,2481.5,96.7900390625,3284.5,96.7900390625,3284.5,474.5,2358.5,474.5,2358.5,74.5" style="stroke: null; stroke-width: 2.0;"/><polygon fill="#505050" points="2359.0,75.0,2475.0,75.0,2482.0,97.2900390625,3284.0,97.2900390625,3284.0,474.0,2359.0,474.0,2359.0,75.0" style="stroke: null; stroke-width: 2.0;"/><polygon fill="#FFFFFF" points="2353.0,69.0,2469.0,69.0,2476.0,91.2900390625,3284.0,91.2900390625,3284.0,474.0,2353.0,474.0,2353.0,69.0" style="stroke: #000000; stroke-width: 2.0;"/><line style="stroke: #000000; stroke-width: 2.0;" x1="2353.0" x2="2476.0" y1="91.2900390625" y2="91.2900390625"/><text fill="#000000" font-size="14" font-weight="bold" lengthAdjust="spacingAndGlyphs" textLength="110.0" x="2356.0" y="86.0">QL-GUNZIPPER</text><polygon fill="#C8C8C8" points="3311.0,85.0,3455.0,85.0,3462.0,107.2900390625,4039.0,107.2900390625,4039.0,234.0,3311.0,234.0,3311.0,85.0" style="stroke: null; stroke-width: 2.0;"/><polygon fill="#B4B4B4" points="3311.5,85.5,3455.5,85.5,3462.5,107.7900390625,4038.5,107.7900390625,4038.5,233.5,3311.5,233.5,3311.5,85.5" style="stroke: null; stroke-width: 2.0;"/><polygon fill="#A0A0A0" points="3312.0,86.0,3456.0,86.0,3463.0,108.2900390625,4038.0,108.2900390625,4038.0,233.0,3312.0,233.0,3312.0,86.0" style="stroke: null; stroke-width: 2.0;"/><polygon fill="#8C8C8C" points="3312.5,86.5,3456.5,86.5,3463.5,108.7900390625,4037.5,108.7900390625,4037.5,232.5,3312.5,232.5,3312.5,86.5" style="stroke: null; stroke-width: 2.0;"/><polygon fill="#787878" points="3313.0,87.0,3457.0,87.0,3464.0,109.2900390625,4037.0,109.2900390625,4037.0,232.0,3313.0,232.0,3313.0,87.0" style="stroke: null; stroke-width: 2.0;"/><polygon fill="#646464" points="3313.5,87.5,3457.5,87.5,3464.5,109.7900390625,4036.5,109.7900390625,4036.5,231.5,3313.5,231.5,3313.5,87.5" style="stroke: null; stroke-width: 2.0;"/><polygon fill="#505050" points="3314.0,88.0,3458.0,88.0,3465.0,110.2900390625,4036.0,110.2900390625,4036.0,231.0,3314.0,231.0,3314.0,88.0" style="stroke: null; stroke-width: 2.0;"/><polygon fill="#FFFFFF" points="3308.0,82.0,3452.0,82.0,3459.0,104.2900390625,4036.0,104.2900390625,4036.0,231.0,3308.0,231.0,3308.0,82.0" style="stroke: #000000; stroke-width: 2.0;"/><line style="stroke: #000000; stroke-width: 2.0;" x1="3308.0" x2="3459.0" y1="104.2900390625" y2="104.2900390625"/><text fill="#000000" font-size="14" font-weight="bold" lengthAdjust="spacingAndGlyphs" textLength="138.0" x="3311.0" y="99.0">QUICKLISP-CLIENT</text><rect fill="#C8C8C8" height="48.0" rx="1.0" ry="1.0" style="stroke: null; stroke-width: 2.0;" width="155.0" x="779.0" y="152.0"/><rect fill="#B9B9B9" height="47.0" rx="1.0" ry="1.0" style="stroke: null; stroke-width: 2.0;" width="154.0" x="779.5" y="152.5"/><rect fill="#AAAAAA" height="46.0" rx="1.0" ry="1.0" style="stroke: null; stroke-width: 2.0;" width="153.0" x="780.0" y="153.0"/><rect fill="#9B9B9B" height="45.0" rx="1.0" ry="1.0" style="stroke: null; stroke-width: 2.0;" width="152.0" x="780.5" y="153.5"/><rect fill="#8C8C8C" height="44.0" rx="1.0" ry="1.0" style="stroke: null; stroke-width: 2.0;" width="151.0" x="781.0" y="154.0"/><rect fill="#7D7D7D" height="43.0" rx="1.0" ry="1.0" style="stroke: null; stroke-width: 2.0;" width="150.0" x="781.5" y="154.5"/><rect fill="#6E6E6E" height="42.0" rx="1.0" ry="1.0" style="stroke: null; stroke-width: 2.0;" width="149.0" x="782.0" y="155.0"/><rect fill="#5F5F5F" height="41.0" rx="1.0" ry="1.0" style="stroke: null; stroke-width: 2.0;" width="148.0" x="782.5" y="155.5"/><rect fill="#505050" height="40.0" rx="1.0" ry="1.0" style="stroke: null; stroke-width: 2.0;" width="147.0" x="783.0" y="156.0"/><rect fill="#FEFECE" height="48.0" style="stroke: #A80036; stroke-width: 1.5;" width="155.0" x="775.0" y="148.0"/><ellipse cx="790.3333333333334" cy="164.0" fill="#ADD1B2" rx="11.0" ry="11.0" style="stroke: #A80036; stroke-width: 1.0;"/><path d="M793.7396,165.9688 L794.724,167.0625 C794.1302,167.6406 792.4271,169.2656 789.9896,169.2656 C786.9896,169.2656 785.224,166.875 785.224,163.9375 C785.224,160.625 787.6302,158.7969 789.6771,158.7969 C790.8958,158.7969 791.5365,159.3438 792.1302,159.875 L792.2396,158.9219 L793.6458,158.9219 C793.6146,159.3438 793.5677,159.8906 793.5677,160.5625 C793.5677,161.5313 793.6458,162.1094 793.7396,162.6875 L792.3177,162.875 C792.1458,161.7813 791.9271,160.2656 789.9115,160.2656 C788.2708,160.2656 786.7865,161.5313 786.7865,163.9219 C786.7865,165.875 787.7552,167.8125 789.974,167.8125 C791.724,167.8125 793.0208,166.6406 793.7396,165.9688 Z "/><text fill="#000000" font-size="12" lengthAdjust="spacingAndGlyphs" textLength="114.0" x="808.6666666666666" y="169.0185546875">PREFERENCE-MIXIN</text><line style="stroke: #A80036; stroke-width: 1.5;" x1="775.0" x2="930.0" y1="180.0" y2="180.0"/><line style="stroke: #A80036; stroke-width: 1.5;" x1="775.0" x2="930.0" y1="188.0" y2="188.0"/><rect fill="#C8C8C8" height="124.7958984375" rx="1.0" ry="1.0" style="stroke: null; stroke-width: 1.5;" width="181.0" x="518.0" y="362.5"/><rect fill="#B9B9B9" height="123.7958984375" rx="1.0" ry="1.0" style="stroke: null; stroke-width: 1.5;" width="180.0" x="518.5" y="363.0"/><rect fill="#AAAAAA" height="122.7958984375" rx="1.0" ry="1.0" style="stroke: null; stroke-width: 1.5;" width="179.0" x="519.0" y="363.5"/><rect fill="#9B9B9B" height="121.7958984375" rx="1.0" ry="1.0" style="stroke: null; stroke-width: 1.5;" width="178.0" x="519.5" y="364.0"/><rect fill="#8C8C8C" height="120.7958984375" rx="1.0" ry="1.0" style="stroke: null; stroke-width: 1.5;" width="177.0" x="520.0" y="364.5"/><rect fill="#7D7D7D" height="119.7958984375" rx="1.0" ry="1.0" style="stroke: null; stroke-width: 1.5;" width="176.0" x="520.5" y="365.0"/><rect fill="#6E6E6E" height="118.7958984375" rx="1.0" ry="1.0" style="stroke: null; stroke-width: 1.5;" width="175.0" x="521.0" y="365.5"/><rect fill="#5F5F5F" height="117.7958984375" rx="1.0" ry="1.0" style="stroke: null; stroke-width: 1.5;" width="174.0" x="521.5" y="366.0"/><rect fill="#505050" height="116.7958984375" rx="1.0" ry="1.0" style="stroke: null; stroke-width: 1.5;" width="173.0" x="522.0" y="366.5"/><rect fill="#FEFECE" height="124.7958984375" style="stroke: #A80036; stroke-width: 1.5;" width="181.0" x="514.0" y="358.5"/><ellipse cx="561.3333333333334" cy="374.5" fill="#ADD1B2" rx="11.0" ry="11.0" style="stroke: #A80036; stroke-width: 1.0;"/><path d="M564.7396,376.4688 L565.724,377.5625 C565.1302,378.1406 563.4271,379.7656 560.9896,379.7656 C557.9896,379.7656 556.224,377.375 556.224,374.4375 C556.224,371.125 558.6302,369.2969 560.6771,369.2969 C561.8958,369.2969 562.5365,369.8438 563.1302,370.375 L563.2396,369.4219 L564.6458,369.4219 C564.6146,369.8438 564.5677,370.3906 564.5677,371.0625 C564.5677,372.0313 564.6458,372.6094 564.7396,373.1875 L563.3177,373.375 C563.1458,372.2813 562.9271,370.7656 560.9115,370.7656 C559.2708,370.7656 557.7865,372.0313 557.7865,374.4219 C557.7865,376.375 558.7552,378.3125 560.974,378.3125 C562.724,378.3125 564.0208,377.1406 564.7396,376.4688 Z "/><text fill="#000000" font-size="12" lengthAdjust="spacingAndGlyphs" textLength="44.0" x="611.6666666666666" y="379.5185546875">SYSTEM</text><line style="stroke: #A80036; stroke-width: 1.5;" x1="514.0" x2="695.0" y1="390.5" y2="390.5"/><ellipse cx="525.0" cy="402.399658203125" fill="none" rx="3.0" ry="3.0" style="stroke: #038048; stroke-width: 1.0;"/><text fill="#000000" font-size="11" lengthAdjust="spacingAndGlyphs" textLength="79.0" x="534.0" y="405.5">QL-DIST:NAME</text><ellipse cx="525.0" cy="415.198974609375" fill="none" rx="3.0" ry="3.0" style="stroke: #038048; stroke-width: 1.0;"/><text fill="#000000" font-size="11" lengthAdjust="spacingAndGlyphs" textLength="153.0" x="534.0" y="418.29931640625">QL-DIST:SYSTEM-FILE-NAME</text><ellipse cx="525.0" cy="427.998291015625" fill="none" rx="3.0" ry="3.0" style="stroke: #038048; stroke-width: 1.0;"/><text fill="#000000" font-size="11" lengthAdjust="spacingAndGlyphs" textLength="93.0" x="534.0" y="431.0986328125">QL-DIST:RELEASE</text><ellipse cx="525.0" cy="440.797607421875" fill="none" rx="3.0" ry="3.0" style="stroke: #038048; stroke-width: 1.0;"/><text fill="#000000" font-size="11" lengthAdjust="spacingAndGlyphs" textLength="72.0" x="534.0" y="443.89794921875">QL-DIST:DIST</text><ellipse cx="525.0" cy="453.596923828125" fill="none" rx="3.0" ry="3.0" style="stroke: #038048; stroke-width: 1.0;"/><text fill="#000000" font-size="11" lengthAdjust="spacingAndGlyphs" textLength="155.0" x="534.0" y="456.697265625">QL-DIST:REQUIRED-SYSTEMS</text><ellipse cx="525.0" cy="466.396240234375" fill="none" rx="3.0" ry="3.0" style="stroke: #038048; stroke-width: 1.0;"/><text fill="#000000" font-size="11" lengthAdjust="spacingAndGlyphs" textLength="146.0" x="534.0" y="469.49658203125">QL-DIST:METADATA-NAME</text><line style="stroke: #A80036; stroke-width: 1.5;" x1="514.0" x2="695.0" y1="475.2958984375" y2="475.2958984375"/><rect fill="#C8C8C8" height="73.5986328125" rx="1.0" ry="1.0" style="stroke: null; stroke-width: 1.5;" width="189.0" x="556.0" y="139.0"/><rect fill="#B9B9B9" height="72.5986328125" rx="1.0" ry="1.0" style="stroke: null; stroke-width: 1.5;" width="188.0" x="556.5" y="139.5"/><rect fill="#AAAAAA" height="71.5986328125" rx="1.0" ry="1.0" style="stroke: null; stroke-width: 1.5;" width="187.0" x="557.0" y="140.0"/><rect fill="#9B9B9B" height="70.5986328125" rx="1.0" ry="1.0" style="stroke: null; stroke-width: 1.5;" width="186.0" x="557.5" y="140.5"/><rect fill="#8C8C8C" height="69.5986328125" rx="1.0" ry="1.0" style="stroke: null; stroke-width: 1.5;" width="185.0" x="558.0" y="141.0"/><rect fill="#7D7D7D" height="68.5986328125" rx="1.0" ry="1.0" style="stroke: null; stroke-width: 1.5;" width="184.0" x="558.5" y="141.5"/><rect fill="#6E6E6E" height="67.5986328125" rx="1.0" ry="1.0" style="stroke: null; stroke-width: 1.5;" width="183.0" x="559.0" y="142.0"/><rect fill="#5F5F5F" height="66.5986328125" rx="1.0" ry="1.0" style="stroke: null; stroke-width: 1.5;" width="182.0" x="559.5" y="142.5"/><rect fill="#505050" height="65.5986328125" rx="1.0" ry="1.0" style="stroke: null; stroke-width: 1.5;" width="181.0" x="560.0" y="143.0"/><rect fill="#FEFECE" height="73.5986328125" style="stroke: #A80036; stroke-width: 1.5;" width="189.0" x="552.0" y="135.0"/><ellipse cx="567.3333333333334" cy="151.0" fill="#ADD1B2" rx="11.0" ry="11.0" style="stroke: #A80036; stroke-width: 1.0;"/><path d="M570.7396,152.9688 L571.724,154.0625 C571.1302,154.6406 569.4271,156.2656 566.9896,156.2656 C563.9896,156.2656 562.224,153.875 562.224,150.9375 C562.224,147.625 564.6302,145.7969 566.6771,145.7969 C567.8958,145.7969 568.5365,146.3438 569.1302,146.875 L569.2396,145.9219 L570.6458,145.9219 C570.6146,146.3438 570.5677,146.8906 570.5677,147.5625 C570.5677,148.5313 570.6458,149.1094 570.7396,149.6875 L569.3177,149.875 C569.1458,148.7813 568.9271,147.2656 566.9115,147.2656 C565.2708,147.2656 563.7865,148.5313 563.7865,150.9219 C563.7865,152.875 564.7552,154.8125 566.974,154.8125 C568.724,154.8125 570.0208,153.6406 570.7396,152.9688 Z "/><text fill="#000000" font-size="12" lengthAdjust="spacingAndGlyphs" textLength="148.0" x="585.6666666666666" y="156.0185546875">INVALID-LOCAL-ARCHIVE</text><line style="stroke: #A80036; stroke-width: 1.5;" x1="552.0" x2="741.0" y1="167.0" y2="167.0"/><ellipse cx="563.0" cy="178.899658203125" fill="none" rx="3.0" ry="3.0" style="stroke: #038048; stroke-width: 1.0;"/><text fill="#000000" font-size="11" lengthAdjust="spacingAndGlyphs" textLength="93.0" x="572.0" y="182.0">QL-DIST:RELEASE</text><ellipse cx="563.0" cy="191.698974609375" fill="none" rx="3.0" ry="3.0" style="stroke: #038048; stroke-width: 1.0;"/><text fill="#000000" font-size="11" lengthAdjust="spacingAndGlyphs" textLength="72.0" x="572.0" y="194.79931640625">QL-DIST::FILE</text><line style="stroke: #A80036; stroke-width: 1.5;" x1="552.0" x2="741.0" y1="200.5986328125" y2="200.5986328125"/><rect fill="#C8C8C8" height="175.9931640625" rx="1.0" ry="1.0" style="stroke: null; stroke-width: 1.5;" width="215.0" x="733.0" y="337.0"/><rect fill="#B9B9B9" height="174.9931640625" rx="1.0" ry="1.0" style="stroke: null; stroke-width: 1.5;" width="214.0" x="733.5" y="337.5"/><rect fill="#AAAAAA" height="173.9931640625" rx="1.0" ry="1.0" style="stroke: null; stroke-width: 1.5;" width="213.0" x="734.0" y="338.0"/><rect fill="#9B9B9B" height="172.9931640625" rx="1.0" ry="1.0" style="stroke: null; stroke-width: 1.5;" width="212.0" x="734.5" y="338.5"/><rect fill="#8C8C8C" height="171.9931640625" rx="1.0" ry="1.0" style="stroke: null; stroke-width: 1.5;" width="211.0" x="735.0" y="339.0"/><rect fill="#7D7D7D" height="170.9931640625" rx="1.0" ry="1.0" style="stroke: null; stroke-width: 1.5;" width="210.0" x="735.5" y="339.5"/><rect fill="#6E6E6E" height="169.9931640625" rx="1.0" ry="1.0" style="stroke: null; stroke-width: 1.5;" width="209.0" x="736.0" y="340.0"/><rect fill="#5F5F5F" height="168.9931640625" rx="1.0" ry="1.0" style="stroke: null; stroke-width: 1.5;" width="208.0" x="736.5" y="340.5"/><rect fill="#505050" height="167.9931640625" rx="1.0" ry="1.0" style="stroke: null; stroke-width: 1.5;" width="207.0" x="737.0" y="341.0"/><rect fill="#FEFECE" height="175.9931640625" style="stroke: #A80036; stroke-width: 1.5;" width="215.0" x="729.0" y="333.0"/><ellipse cx="786.0" cy="349.0" fill="#ADD1B2" rx="11.0" ry="11.0" style="stroke: #A80036; stroke-width: 1.0;"/><path d="M789.4063,350.9688 L790.3906,352.0625 C789.7969,352.6406 788.0938,354.2656 785.6563,354.2656 C782.6563,354.2656 780.8906,351.875 780.8906,348.9375 C780.8906,345.625 783.2969,343.7969 785.3438,343.7969 C786.5625,343.7969 787.2031,344.3438 787.7969,344.875 L787.9063,343.9219 L789.3125,343.9219 C789.2813,344.3438 789.2344,344.8906 789.2344,345.5625 C789.2344,346.5313 789.3125,347.1094 789.4063,347.6875 L787.9844,347.875 C787.8125,346.7813 787.5938,345.2656 785.5781,345.2656 C783.9375,345.2656 782.4531,346.5313 782.4531,348.9219 C782.4531,350.875 783.4219,352.8125 785.6406,352.8125 C787.3906,352.8125 788.6875,351.6406 789.4063,350.9688 Z "/><text fill="#000000" font-size="12" lengthAdjust="spacingAndGlyphs" textLength="49.0" x="846.0" y="354.0185546875">RELEASE</text><line style="stroke: #A80036; stroke-width: 1.5;" x1="729.0" x2="944.0" y1="365.0" y2="365.0"/><ellipse cx="740.0" cy="376.899658203125" fill="none" rx="3.0" ry="3.0" style="stroke: #038048; stroke-width: 1.0;"/><text fill="#000000" font-size="11" lengthAdjust="spacingAndGlyphs" textLength="131.0" x="749.0" y="380.0">QL-DIST:PROJECT-NAME</text><ellipse cx="740.0" cy="389.698974609375" fill="none" rx="3.0" ry="3.0" style="stroke: #038048; stroke-width: 1.0;"/><text fill="#000000" font-size="11" lengthAdjust="spacingAndGlyphs" textLength="72.0" x="749.0" y="392.79931640625">QL-DIST:DIST</text><ellipse cx="740.0" cy="402.498291015625" fill="none" rx="3.0" ry="3.0" style="stroke: #038048; stroke-width: 1.0;"/><text fill="#000000" font-size="11" lengthAdjust="spacingAndGlyphs" textLength="155.0" x="749.0" y="405.5986328125">QL-DIST:PROVIDED-SYSTEMS</text><ellipse cx="740.0" cy="415.297607421875" fill="none" rx="3.0" ry="3.0" style="stroke: #038048; stroke-width: 1.0;"/><text fill="#000000" font-size="11" lengthAdjust="spacingAndGlyphs" textLength="125.0" x="749.0" y="418.39794921875">QL-DIST::ARCHIVE-URL</text><ellipse cx="740.0" cy="428.096923828125" fill="none" rx="3.0" ry="3.0" style="stroke: #038048; stroke-width: 1.0;"/><text fill="#000000" font-size="11" lengthAdjust="spacingAndGlyphs" textLength="123.0" x="749.0" y="431.197265625">QL-DIST:ARCHIVE-SIZE</text><ellipse cx="740.0" cy="440.896240234375" fill="none" rx="3.0" ry="3.0" style="stroke: #038048; stroke-width: 1.0;"/><text fill="#000000" font-size="11" lengthAdjust="spacingAndGlyphs" textLength="128.0" x="749.0" y="443.99658203125">QL-DIST::ARCHIVE-MD5</text><ellipse cx="740.0" cy="453.695556640625" fill="none" rx="3.0" ry="3.0" style="stroke: #038048; stroke-width: 1.0;"/><text fill="#000000" font-size="11" lengthAdjust="spacingAndGlyphs" textLength="189.0" x="749.0" y="456.7958984375">QL-DIST:ARCHIVE-CONTENT-SHA1</text><ellipse cx="740.0" cy="466.494873046875" fill="none" rx="3.0" ry="3.0" style="stroke: #038048; stroke-width: 1.0;"/><text fill="#000000" font-size="11" lengthAdjust="spacingAndGlyphs" textLength="83.0" x="749.0" y="469.59521484375">QL-DIST:PREFIX</text><ellipse cx="740.0" cy="479.294189453125" fill="none" rx="3.0" ry="3.0" style="stroke: #038048; stroke-width: 1.0;"/><text fill="#000000" font-size="11" lengthAdjust="spacingAndGlyphs" textLength="122.0" x="749.0" y="482.39453125">QL-DIST:SYSTEM-FILES</text><ellipse cx="740.0" cy="492.093505859375" fill="none" rx="3.0" ry="3.0" style="stroke: #038048; stroke-width: 1.0;"/><text fill="#000000" font-size="11" lengthAdjust="spacingAndGlyphs" textLength="146.0" x="749.0" y="495.19384765625">QL-DIST:METADATA-NAME</text><line style="stroke: #A80036; stroke-width: 1.5;" x1="729.0" x2="944.0" y1="500.9931640625" y2="500.9931640625"/><rect fill="#C8C8C8" height="73.5986328125" rx="1.0" ry="1.0" style="stroke: null; stroke-width: 1.5;" width="189.0" x="42.0" y="388.0"/><rect fill="#B9B9B9" height="72.5986328125" rx="1.0" ry="1.0" style="stroke: null; stroke-width: 1.5;" width="188.0" x="42.5" y="388.5"/><rect fill="#AAAAAA" height="71.5986328125" rx="1.0" ry="1.0" style="stroke: null; stroke-width: 1.5;" width="187.0" x="43.0" y="389.0"/><rect fill="#9B9B9B" height="70.5986328125" rx="1.0" ry="1.0" style="stroke: null; stroke-width: 1.5;" width="186.0" x="43.5" y="389.5"/><rect fill="#8C8C8C" height="69.5986328125" rx="1.0" ry="1.0" style="stroke: null; stroke-width: 1.5;" width="185.0" x="44.0" y="390.0"/><rect fill="#7D7D7D" height="68.5986328125" rx="1.0" ry="1.0" style="stroke: null; stroke-width: 1.5;" width="184.0" x="44.5" y="390.5"/><rect fill="#6E6E6E" height="67.5986328125" rx="1.0" ry="1.0" style="stroke: null; stroke-width: 1.5;" width="183.0" x="45.0" y="391.0"/><rect fill="#5F5F5F" height="66.5986328125" rx="1.0" ry="1.0" style="stroke: null; stroke-width: 1.5;" width="182.0" x="45.5" y="391.5"/><rect fill="#505050" height="65.5986328125" rx="1.0" ry="1.0" style="stroke: null; stroke-width: 1.5;" width="181.0" x="46.0" y="392.0"/><rect fill="#FEFECE" height="73.5986328125" style="stroke: #A80036; stroke-width: 1.5;" width="189.0" x="38.0" y="384.0"/><ellipse cx="53.333333333333336" cy="400.0" fill="#ADD1B2" rx="11.0" ry="11.0" style="stroke: #A80036; stroke-width: 1.0;"/><path d="M56.7396,401.9688 L57.724,403.0625 C57.1302,403.6406 55.4271,405.2656 52.9896,405.2656 C49.9896,405.2656 48.224,402.875 48.224,399.9375 C48.224,396.625 50.6302,394.7969 52.6771,394.7969 C53.8958,394.7969 54.5365,395.3438 55.1302,395.875 L55.2396,394.9219 L56.6458,394.9219 C56.6146,395.3438 56.5677,395.8906 56.5677,396.5625 C56.5677,397.5313 56.6458,398.1094 56.7396,398.6875 L55.3177,398.875 C55.1458,397.7813 54.9271,396.2656 52.9115,396.2656 C51.2708,396.2656 49.7865,397.5313 49.7865,399.9219 C49.7865,401.875 50.7552,403.8125 52.974,403.8125 C54.724,403.8125 56.0208,402.6406 56.7396,401.9688 Z "/><text fill="#000000" font-size="12" lengthAdjust="spacingAndGlyphs" textLength="148.0" x="71.66666666666666" y="405.0185546875">MISSING-LOCAL-ARCHIVE</text><line style="stroke: #A80036; stroke-width: 1.5;" x1="38.0" x2="227.0" y1="416.0" y2="416.0"/><ellipse cx="49.0" cy="427.899658203125" fill="none" rx="3.0" ry="3.0" style="stroke: #038048; stroke-width: 1.0;"/><text fill="#000000" font-size="11" lengthAdjust="spacingAndGlyphs" textLength="93.0" x="58.0" y="431.0">QL-DIST:RELEASE</text><ellipse cx="49.0" cy="440.698974609375" fill="none" rx="3.0" ry="3.0" style="stroke: #038048; stroke-width: 1.0;"/><text fill="#000000" font-size="11" lengthAdjust="spacingAndGlyphs" textLength="72.0" x="58.0" y="443.79931640625">QL-DIST::FILE</text><line style="stroke: #A80036; stroke-width: 1.5;" x1="38.0" x2="227.0" y1="449.5986328125" y2="449.5986328125"/><rect fill="#C8C8C8" height="60.79931640625" rx="1.0" ry="1.0" style="stroke: null; stroke-width: 1.5;" width="208.0" x="313.0" y="145.5"/><rect fill="#B9B9B9" height="59.79931640625" rx="1.0" ry="1.0" style="stroke: null; stroke-width: 1.5;" width="207.0" x="313.5" y="146.0"/><rect fill="#AAAAAA" height="58.79931640625" rx="1.0" ry="1.0" style="stroke: null; stroke-width: 1.5;" width="206.0" x="314.0" y="146.5"/><rect fill="#9B9B9B" height="57.79931640625" rx="1.0" ry="1.0" style="stroke: null; stroke-width: 1.5;" width="205.0" x="314.5" y="147.0"/><rect fill="#8C8C8C" height="56.79931640625" rx="1.0" ry="1.0" style="stroke: null; stroke-width: 1.5;" width="204.0" x="315.0" y="147.5"/><rect fill="#7D7D7D" height="55.79931640625" rx="1.0" ry="1.0" style="stroke: null; stroke-width: 1.5;" width="203.0" x="315.5" y="148.0"/><rect fill="#6E6E6E" height="54.79931640625" rx="1.0" ry="1.0" style="stroke: null; stroke-width: 1.5;" width="202.0" x="316.0" y="148.5"/><rect fill="#5F5F5F" height="53.79931640625" rx="1.0" ry="1.0" style="stroke: null; stroke-width: 1.5;" width="201.0" x="316.5" y="149.0"/><rect fill="#505050" height="52.79931640625" rx="1.0" ry="1.0" style="stroke: null; stroke-width: 1.5;" width="200.0" x="317.0" y="149.5"/><rect fill="#FEFECE" height="60.79931640625" style="stroke: #A80036; stroke-width: 1.5;" width="208.0" x="309.0" y="141.5"/><ellipse cx="324.3333333333333" cy="157.5" fill="#ADD1B2" rx="11.0" ry="11.0" style="stroke: #A80036; stroke-width: 1.0;"/><path d="M327.7396,159.4688 L328.724,160.5625 C328.1302,161.1406 326.4271,162.7656 323.9896,162.7656 C320.9896,162.7656 319.224,160.375 319.224,157.4375 C319.224,154.125 321.6302,152.2969 323.6771,152.2969 C324.8958,152.2969 325.5365,152.8438 326.1302,153.375 L326.2396,152.4219 L327.6458,152.4219 C327.6146,152.8438 327.5677,153.3906 327.5677,154.0625 C327.5677,155.0313 327.6458,155.6094 327.7396,156.1875 L326.3177,156.375 C326.1458,155.2813 325.9271,153.7656 323.9115,153.7656 C322.2708,153.7656 320.7865,155.0313 320.7865,157.4219 C320.7865,159.375 321.7552,161.3125 323.974,161.3125 C325.724,161.3125 327.0208,160.1406 327.7396,159.4688 Z "/><text fill="#000000" font-size="12" lengthAdjust="spacingAndGlyphs" textLength="167.0" x="342.6666666666667" y="162.5185546875">SUBSCRIPTION-UNAVAILABLE</text><line style="stroke: #A80036; stroke-width: 1.5;" x1="309.0" x2="517.0" y1="173.5" y2="173.5"/><ellipse cx="320.0" cy="185.399658203125" fill="none" rx="3.0" ry="3.0" style="stroke: #038048; stroke-width: 1.0;"/><text fill="#000000" font-size="11" lengthAdjust="spacingAndGlyphs" textLength="90.0" x="329.0" y="188.5">QL-DIST::OBJECT</text><line style="stroke: #A80036; stroke-width: 1.5;" x1="309.0" x2="517.0" y1="194.29931640625" y2="194.29931640625"/><rect fill="#C8C8C8" height="99.197265625" rx="1.0" ry="1.0" style="stroke: null; stroke-width: 1.5;" width="219.0" x="265.0" y="375.5"/><rect fill="#B9B9B9" height="98.197265625" rx="1.0" ry="1.0" style="stroke: null; stroke-width: 1.5;" width="218.0" x="265.5" y="376.0"/><rect fill="#AAAAAA" height="97.197265625" rx="1.0" ry="1.0" style="stroke: null; stroke-width: 1.5;" width="217.0" x="266.0" y="376.5"/><rect fill="#9B9B9B" height="96.197265625" rx="1.0" ry="1.0" style="stroke: null; stroke-width: 1.5;" width="216.0" x="266.5" y="377.0"/><rect fill="#8C8C8C" height="95.197265625" rx="1.0" ry="1.0" style="stroke: null; stroke-width: 1.5;" width="215.0" x="267.0" y="377.5"/><rect fill="#7D7D7D" height="94.197265625" rx="1.0" ry="1.0" style="stroke: null; stroke-width: 1.5;" width="214.0" x="267.5" y="378.0"/><rect fill="#6E6E6E" height="93.197265625" rx="1.0" ry="1.0" style="stroke: null; stroke-width: 1.5;" width="213.0" x="268.0" y="378.5"/><rect fill="#5F5F5F" height="92.197265625" rx="1.0" ry="1.0" style="stroke: null; stroke-width: 1.5;" width="212.0" x="268.5" y="379.0"/><rect fill="#505050" height="91.197265625" rx="1.0" ry="1.0" style="stroke: null; stroke-width: 1.5;" width="211.0" x="269.0" y="379.5"/><rect fill="#FEFECE" height="99.197265625" style="stroke: #A80036; stroke-width: 1.5;" width="219.0" x="261.0" y="371.5"/><ellipse cx="276.3333333333333" cy="387.5" fill="#ADD1B2" rx="11.0" ry="11.0" style="stroke: #A80036; stroke-width: 1.0;"/><path d="M279.7396,389.4688 L280.724,390.5625 C280.1302,391.1406 278.4271,392.7656 275.9896,392.7656 C272.9896,392.7656 271.224,390.375 271.224,387.4375 C271.224,384.125 273.6302,382.2969 275.6771,382.2969 C276.8958,382.2969 277.5365,382.8438 278.1302,383.375 L278.2396,382.4219 L279.6458,382.4219 C279.6146,382.8438 279.5677,383.3906 279.5677,384.0625 C279.5677,385.0313 279.6458,385.6094 279.7396,386.1875 L278.3177,386.375 C278.1458,385.2813 277.9271,383.7656 275.9115,383.7656 C274.2708,383.7656 272.7865,385.0313 272.7865,387.4219 C272.7865,389.375 273.7552,391.3125 275.974,391.3125 C277.724,391.3125 279.0208,390.1406 279.7396,389.4688 Z "/><text fill="#000000" font-size="12" lengthAdjust="spacingAndGlyphs" textLength="178.0" x="294.6666666666667" y="392.5185546875">BADLY-SIZED-LOCAL-ARCHIVE</text><line style="stroke: #A80036; stroke-width: 1.5;" x1="261.0" x2="480.0" y1="403.5" y2="403.5"/><ellipse cx="272.0" cy="415.399658203125" fill="none" rx="3.0" ry="3.0" style="stroke: #038048; stroke-width: 1.0;"/><text fill="#000000" font-size="11" lengthAdjust="spacingAndGlyphs" textLength="93.0" x="281.0" y="418.5">QL-DIST:RELEASE</text><ellipse cx="272.0" cy="428.198974609375" fill="none" rx="3.0" ry="3.0" style="stroke: #038048; stroke-width: 1.0;"/><text fill="#000000" font-size="11" lengthAdjust="spacingAndGlyphs" textLength="72.0" x="281.0" y="431.29931640625">QL-DIST::FILE</text><ellipse cx="272.0" cy="440.998291015625" fill="none" rx="3.0" ry="3.0" style="stroke: #038048; stroke-width: 1.0;"/><text fill="#000000" font-size="11" lengthAdjust="spacingAndGlyphs" textLength="133.0" x="281.0" y="444.0986328125">QL-DIST::EXPECTED-SIZE</text><ellipse cx="272.0" cy="453.797607421875" fill="none" rx="3.0" ry="3.0" style="stroke: #038048; stroke-width: 1.0;"/><text fill="#000000" font-size="11" lengthAdjust="spacingAndGlyphs" textLength="124.0" x="281.0" y="456.89794921875">QL-DIST::ACTUAL-SIZE</text><line style="stroke: #A80036; stroke-width: 1.5;" x1="261.0" x2="480.0" y1="462.697265625" y2="462.697265625"/><rect fill="#C8C8C8" height="201.591796875" rx="1.0" ry="1.0" style="stroke: null; stroke-width: 1.5;" width="237.0" x="42.0" y="75.0"/><rect fill="#B9B9B9" height="200.591796875" rx="1.0" ry="1.0" style="stroke: null; stroke-width: 1.5;" width="236.0" x="42.5" y="75.5"/><rect fill="#AAAAAA" height="199.591796875" rx="1.0" ry="1.0" style="stroke: null; stroke-width: 1.5;" width="235.0" x="43.0" y="76.0"/><rect fill="#9B9B9B" height="198.591796875" rx="1.0" ry="1.0" style="stroke: null; stroke-width: 1.5;" width="234.0" x="43.5" y="76.5"/><rect fill="#8C8C8C" height="197.591796875" rx="1.0" ry="1.0" style="stroke: null; stroke-width: 1.5;" width="233.0" x="44.0" y="77.0"/><rect fill="#7D7D7D" height="196.591796875" rx="1.0" ry="1.0" style="stroke: null; stroke-width: 1.5;" width="232.0" x="44.5" y="77.5"/><rect fill="#6E6E6E" height="195.591796875" rx="1.0" ry="1.0" style="stroke: null; stroke-width: 1.5;" width="231.0" x="45.0" y="78.0"/><rect fill="#5F5F5F" height="194.591796875" rx="1.0" ry="1.0" style="stroke: null; stroke-width: 1.5;" width="230.0" x="45.5" y="78.5"/><rect fill="#505050" height="193.591796875" rx="1.0" ry="1.0" style="stroke: null; stroke-width: 1.5;" width="229.0" x="46.0" y="79.0"/><rect fill="#FEFECE" height="201.591796875" style="stroke: #A80036; stroke-width: 1.5;" width="237.0" x="38.0" y="71.0"/><ellipse cx="110.0" cy="87.0" fill="#ADD1B2" rx="11.0" ry="11.0" style="stroke: #A80036; stroke-width: 1.0;"/><path d="M113.4063,88.9688 L114.3906,90.0625 C113.7969,90.6406 112.0938,92.2656 109.6563,92.2656 C106.6563,92.2656 104.8906,89.875 104.8906,86.9375 C104.8906,83.625 107.2969,81.7969 109.3438,81.7969 C110.5625,81.7969 111.2031,82.3438 111.7969,82.875 L111.9063,81.9219 L113.3125,81.9219 C113.2813,82.3438 113.2344,82.8906 113.2344,83.5625 C113.2344,84.5313 113.3125,85.1094 113.4063,85.6875 L111.9844,85.875 C111.8125,84.7813 111.5938,83.2656 109.5781,83.2656 C107.9375,83.2656 106.4531,84.5313 106.4531,86.9219 C106.4531,88.875 107.4219,90.8125 109.6406,90.8125 C111.3906,90.8125 112.6875,89.6406 113.4063,88.9688 Z "/><text fill="#000000" font-size="12" lengthAdjust="spacingAndGlyphs" textLength="26.0" x="185.0" y="92.0185546875">DIST</text><line style="stroke: #A80036; stroke-width: 1.5;" x1="38.0" x2="275.0" y1="103.0" y2="103.0"/><ellipse cx="49.0" cy="114.899658203125" fill="none" rx="3.0" ry="3.0" style="stroke: #038048; stroke-width: 1.0;"/><text fill="#000000" font-size="11" lengthAdjust="spacingAndGlyphs" textLength="142.0" x="58.0" y="118.0">QL-DIST:BASE-DIRECTORY</text><ellipse cx="49.0" cy="127.698974609375" fill="none" rx="3.0" ry="3.0" style="stroke: #038048; stroke-width: 1.0;"/><text fill="#000000" font-size="11" lengthAdjust="spacingAndGlyphs" textLength="79.0" x="58.0" y="130.79931640625">QL-DIST:NAME</text><ellipse cx="49.0" cy="140.498291015625" fill="none" rx="3.0" ry="3.0" style="stroke: #038048; stroke-width: 1.0;"/><text fill="#000000" font-size="11" lengthAdjust="spacingAndGlyphs" textLength="94.0" x="58.0" y="143.5986328125">QL-DIST:VERSION</text><ellipse cx="49.0" cy="153.297607421875" fill="none" rx="3.0" ry="3.0" style="stroke: #038048; stroke-width: 1.0;"/><text fill="#000000" font-size="11" lengthAdjust="spacingAndGlyphs" textLength="154.0" x="58.0" y="156.39794921875">QL-DIST:SYSTEM-INDEX-URL</text><ellipse cx="49.0" cy="166.096923828125" fill="none" rx="3.0" ry="3.0" style="stroke: #038048; stroke-width: 1.0;"/><text fill="#000000" font-size="11" lengthAdjust="spacingAndGlyphs" textLength="158.0" x="58.0" y="169.197265625">QL-DIST:RELEASE-INDEX-URL</text><ellipse cx="49.0" cy="178.896240234375" fill="none" rx="3.0" ry="3.0" style="stroke: #038048; stroke-width: 1.0;"/><text fill="#000000" font-size="11" lengthAdjust="spacingAndGlyphs" textLength="191.0" x="58.0" y="181.99658203125">QL-DIST:AVAILABLE-VERSIONS-URL</text><ellipse cx="49.0" cy="191.695556640625" fill="none" rx="3.0" ry="3.0" style="stroke: #038048; stroke-width: 1.0;"/><text fill="#000000" font-size="11" lengthAdjust="spacingAndGlyphs" textLength="157.0" x="58.0" y="194.7958984375">QL-DIST::ARCHIVE-BASE-URL</text><ellipse cx="49.0" cy="204.494873046875" fill="none" rx="3.0" ry="3.0" style="stroke: #038048; stroke-width: 1.0;"/><text fill="#000000" font-size="11" lengthAdjust="spacingAndGlyphs" textLength="200.0" x="58.0" y="207.59521484375">QL-DIST::CANONICAL-DISTINFO-URL</text><ellipse cx="49.0" cy="217.294189453125" fill="none" rx="3.0" ry="3.0" style="stroke: #038048; stroke-width: 1.0;"/><text fill="#000000" font-size="11" lengthAdjust="spacingAndGlyphs" textLength="211.0" x="58.0" y="220.39453125">QL-DIST::DISTINFO-SUBSCRIPTION-URL</text><ellipse cx="49.0" cy="230.093505859375" fill="none" rx="3.0" ry="3.0" style="stroke: #038048; stroke-width: 1.0;"/><text fill="#000000" font-size="11" lengthAdjust="spacingAndGlyphs" textLength="130.0" x="58.0" y="233.19384765625">QL-DIST::SYSTEM-INDEX</text><ellipse cx="49.0" cy="242.892822265625" fill="none" rx="3.0" ry="3.0" style="stroke: #038048; stroke-width: 1.0;"/><text fill="#000000" font-size="11" lengthAdjust="spacingAndGlyphs" textLength="134.0" x="58.0" y="245.9931640625">QL-DIST::RELEASE-INDEX</text><ellipse cx="49.0" cy="255.692138671875" fill="none" rx="3.0" ry="3.0" style="stroke: #038048; stroke-width: 1.0;"/><text fill="#000000" font-size="11" lengthAdjust="spacingAndGlyphs" textLength="171.0" x="58.0" y="258.79248046875">QL-DIST::LOCAL-DISTINFO-FILE</text><line style="stroke: #A80036; stroke-width: 1.5;" x1="38.0" x2="275.0" y1="264.591796875" y2="264.591796875"/><rect fill="#C8C8C8" height="48.0" rx="1.0" ry="1.0" style="stroke: null; stroke-width: 1.5;" width="89.0" x="2229.0" y="152.0"/><rect fill="#B9B9B9" height="47.0" rx="1.0" ry="1.0" style="stroke: null; stroke-width: 1.5;" width="88.0" x="2229.5" y="152.5"/><rect fill="#AAAAAA" height="46.0" rx="1.0" ry="1.0" style="stroke: null; stroke-width: 1.5;" width="87.0" x="2230.0" y="153.0"/><rect fill="#9B9B9B" height="45.0" rx="1.0" ry="1.0" style="stroke: null; stroke-width: 1.5;" width="86.0" x="2230.5" y="153.5"/><rect fill="#8C8C8C" height="44.0" rx="1.0" ry="1.0" style="stroke: null; stroke-width: 1.5;" width="85.0" x="2231.0" y="154.0"/><rect fill="#7D7D7D" height="43.0" rx="1.0" ry="1.0" style="stroke: null; stroke-width: 1.5;" width="84.0" x="2231.5" y="154.5"/><rect fill="#6E6E6E" height="42.0" rx="1.0" ry="1.0" style="stroke: null; stroke-width: 1.5;" width="83.0" x="2232.0" y="155.0"/><rect fill="#5F5F5F" height="41.0" rx="1.0" ry="1.0" style="stroke: null; stroke-width: 1.5;" width="82.0" x="2232.5" y="155.5"/><rect fill="#505050" height="40.0" rx="1.0" ry="1.0" style="stroke: null; stroke-width: 1.5;" width="81.0" x="2233.0" y="156.0"/><rect fill="#FEFECE" height="48.0" style="stroke: #A80036; stroke-width: 1.5;" width="89.0" x="2225.0" y="148.0"/><ellipse cx="2240.3333333333335" cy="164.0" fill="#ADD1B2" rx="11.0" ry="11.0" style="stroke: #A80036; stroke-width: 1.0;"/><path d="M2243.7396,165.9688 L2244.724,167.0625 C2244.1302,167.6406 2242.4271,169.2656 2239.9896,169.2656 C2236.9896,169.2656 2235.224,166.875 2235.224,163.9375 C2235.224,160.625 2237.6302,158.7969 2239.6771,158.7969 C2240.8958,158.7969 2241.5365,159.3438 2242.1302,159.875 L2242.2396,158.9219 L2243.6458,158.9219 C2243.6146,159.3438 2243.5677,159.8906 2243.5677,160.5625 C2243.5677,161.5313 2243.6458,162.1094 2243.7396,162.6875 L2242.3177,162.875 C2242.1458,161.7813 2241.9271,160.2656 2239.9115,160.2656 C2238.2708,160.2656 2236.7865,161.5313 2236.7865,163.9219 C2236.7865,165.875 2237.7552,167.8125 2239.974,167.8125 C2241.724,167.8125 2243.0208,166.6406 2243.7396,165.9688 Z "/><text fill="#000000" font-size="12" lengthAdjust="spacingAndGlyphs" textLength="48.0" x="2258.6666666666665" y="169.0185546875">HEADER</text><line style="stroke: #A80036; stroke-width: 1.5;" x1="2225.0" x2="2314.0" y1="180.0" y2="180.0"/><line style="stroke: #A80036; stroke-width: 1.5;" x1="2225.0" x2="2314.0" y1="188.0" y2="188.0"/><rect fill="#C8C8C8" height="60.79931640625" rx="1.0" ry="1.0" style="stroke: null; stroke-width: 1.5;" width="137.0" x="2058.0" y="145.5"/><rect fill="#B9B9B9" height="59.79931640625" rx="1.0" ry="1.0" style="stroke: null; stroke-width: 1.5;" width="136.0" x="2058.5" y="146.0"/><rect fill="#AAAAAA" height="58.79931640625" rx="1.0" ry="1.0" style="stroke: null; stroke-width: 1.5;" width="135.0" x="2059.0" y="146.5"/><rect fill="#9B9B9B" height="57.79931640625" rx="1.0" ry="1.0" style="stroke: null; stroke-width: 1.5;" width="134.0" x="2059.5" y="147.0"/><rect fill="#8C8C8C" height="56.79931640625" rx="1.0" ry="1.0" style="stroke: null; stroke-width: 1.5;" width="133.0" x="2060.0" y="147.5"/><rect fill="#7D7D7D" height="55.79931640625" rx="1.0" ry="1.0" style="stroke: null; stroke-width: 1.5;" width="132.0" x="2060.5" y="148.0"/><rect fill="#6E6E6E" height="54.79931640625" rx="1.0" ry="1.0" style="stroke: null; stroke-width: 1.5;" width="131.0" x="2061.0" y="148.5"/><rect fill="#5F5F5F" height="53.79931640625" rx="1.0" ry="1.0" style="stroke: null; stroke-width: 1.5;" width="130.0" x="2061.5" y="149.0"/><rect fill="#505050" height="52.79931640625" rx="1.0" ry="1.0" style="stroke: null; stroke-width: 1.5;" width="129.0" x="2062.0" y="149.5"/><rect fill="#FEFECE" height="60.79931640625" style="stroke: #A80036; stroke-width: 1.5;" width="137.0" x="2054.0" y="141.5"/><ellipse cx="2069.3333333333335" cy="157.5" fill="#ADD1B2" rx="11.0" ry="11.0" style="stroke: #A80036; stroke-width: 1.0;"/><path d="M2072.7396,159.4688 L2073.724,160.5625 C2073.1302,161.1406 2071.4271,162.7656 2068.9896,162.7656 C2065.9896,162.7656 2064.224,160.375 2064.224,157.4375 C2064.224,154.125 2066.6302,152.2969 2068.6771,152.2969 C2069.8958,152.2969 2070.5365,152.8438 2071.1302,153.375 L2071.2396,152.4219 L2072.6458,152.4219 C2072.6146,152.8438 2072.5677,153.3906 2072.5677,154.0625 C2072.5677,155.0313 2072.6458,155.6094 2072.7396,156.1875 L2071.3177,156.375 C2071.1458,155.2813 2070.9271,153.7656 2068.9115,153.7656 C2067.2708,153.7656 2065.7865,155.0313 2065.7865,157.4219 C2065.7865,159.375 2066.7552,161.3125 2068.974,161.3125 C2070.724,161.3125 2072.0208,160.1406 2072.7396,159.4688 Z "/><text fill="#000000" font-size="12" lengthAdjust="spacingAndGlyphs" textLength="96.0" x="2087.6666666666665" y="162.5185546875">CBUF-PROGRESS</text><line style="stroke: #A80036; stroke-width: 1.5;" x1="2054.0" x2="2191.0" y1="173.5" y2="173.5"/><ellipse cx="2065.0" cy="185.399658203125" fill="none" rx="3.0" ry="3.0" style="stroke: #038048; stroke-width: 1.0;"/><text fill="#000000" font-size="11" lengthAdjust="spacingAndGlyphs" textLength="77.0" x="2074.0" y="188.5">QL-HTTP::SIZE</text><line style="stroke: #A80036; stroke-width: 1.5;" x1="2054.0" x2="2191.0" y1="194.29931640625" y2="194.29931640625"/><rect fill="#C8C8C8" height="48.0" rx="1.0" ry="1.0" style="stroke: null; stroke-width: 1.5;" width="99.0" x="1925.0" y="152.0"/><rect fill="#B9B9B9" height="47.0" rx="1.0" ry="1.0" style="stroke: null; stroke-width: 1.5;" width="98.0" x="1925.5" y="152.5"/><rect fill="#AAAAAA" height="46.0" rx="1.0" ry="1.0" style="stroke: null; stroke-width: 1.5;" width="97.0" x="1926.0" y="153.0"/><rect fill="#9B9B9B" height="45.0" rx="1.0" ry="1.0" style="stroke: null; stroke-width: 1.5;" width="96.0" x="1926.5" y="153.5"/><rect fill="#8C8C8C" height="44.0" rx="1.0" ry="1.0" style="stroke: null; stroke-width: 1.5;" width="95.0" x="1927.0" y="154.0"/><rect fill="#7D7D7D" height="43.0" rx="1.0" ry="1.0" style="stroke: null; stroke-width: 1.5;" width="94.0" x="1927.5" y="154.5"/><rect fill="#6E6E6E" height="42.0" rx="1.0" ry="1.0" style="stroke: null; stroke-width: 1.5;" width="93.0" x="1928.0" y="155.0"/><rect fill="#5F5F5F" height="41.0" rx="1.0" ry="1.0" style="stroke: null; stroke-width: 1.5;" width="92.0" x="1928.5" y="155.5"/><rect fill="#505050" height="40.0" rx="1.0" ry="1.0" style="stroke: null; stroke-width: 1.5;" width="91.0" x="1929.0" y="156.0"/><rect fill="#FEFECE" height="48.0" style="stroke: #A80036; stroke-width: 1.5;" width="99.0" x="1921.0" y="148.0"/><ellipse cx="1936.3333333333333" cy="164.0" fill="#ADD1B2" rx="11.0" ry="11.0" style="stroke: #A80036; stroke-width: 1.0;"/><path d="M1939.7396,165.9688 L1940.724,167.0625 C1940.1302,167.6406 1938.4271,169.2656 1935.9896,169.2656 C1932.9896,169.2656 1931.224,166.875 1931.224,163.9375 C1931.224,160.625 1933.6302,158.7969 1935.6771,158.7969 C1936.8958,158.7969 1937.5365,159.3438 1938.1302,159.875 L1938.2396,158.9219 L1939.6458,158.9219 C1939.6146,159.3438 1939.5677,159.8906 1939.5677,160.5625 C1939.5677,161.5313 1939.6458,162.1094 1939.7396,162.6875 L1938.3177,162.875 C1938.1458,161.7813 1937.9271,160.2656 1935.9115,160.2656 C1934.2708,160.2656 1932.7865,161.5313 1932.7865,163.9219 C1932.7865,165.875 1933.7552,167.8125 1935.974,167.8125 C1937.724,167.8125 1939.0208,166.6406 1939.7396,165.9688 Z "/><text fill="#000000" font-size="12" lengthAdjust="spacingAndGlyphs" textLength="58.0" x="1954.6666666666667" y="169.0185546875">MATCHER</text><line style="stroke: #A80036; stroke-width: 1.5;" x1="1921.0" x2="2020.0" y1="180.0" y2="180.0"/><line style="stroke: #A80036; stroke-width: 1.5;" x1="1921.0" x2="2020.0" y1="188.0" y2="188.0"/><rect fill="#C8C8C8" height="48.0" rx="1.0" ry="1.0" style="stroke: null; stroke-width: 1.5;" width="128.0" x="1762.0" y="152.0"/><rect fill="#B9B9B9" height="47.0" rx="1.0" ry="1.0" style="stroke: null; stroke-width: 1.5;" width="127.0" x="1762.5" y="152.5"/><rect fill="#AAAAAA" height="46.0" rx="1.0" ry="1.0" style="stroke: null; stroke-width: 1.5;" width="126.0" x="1763.0" y="153.0"/><rect fill="#9B9B9B" height="45.0" rx="1.0" ry="1.0" style="stroke: null; stroke-width: 1.5;" width="125.0" x="1763.5" y="153.5"/><rect fill="#8C8C8C" height="44.0" rx="1.0" ry="1.0" style="stroke: null; stroke-width: 1.5;" width="124.0" x="1764.0" y="154.0"/><rect fill="#7D7D7D" height="43.0" rx="1.0" ry="1.0" style="stroke: null; stroke-width: 1.5;" width="123.0" x="1764.5" y="154.5"/><rect fill="#6E6E6E" height="42.0" rx="1.0" ry="1.0" style="stroke: null; stroke-width: 1.5;" width="122.0" x="1765.0" y="155.0"/><rect fill="#5F5F5F" height="41.0" rx="1.0" ry="1.0" style="stroke: null; stroke-width: 1.5;" width="121.0" x="1765.5" y="155.5"/><rect fill="#505050" height="40.0" rx="1.0" ry="1.0" style="stroke: null; stroke-width: 1.5;" width="120.0" x="1766.0" y="156.0"/><rect fill="#FEFECE" height="48.0" style="stroke: #A80036; stroke-width: 1.5;" width="128.0" x="1758.0" y="148.0"/><ellipse cx="1773.3333333333333" cy="164.0" fill="#ADD1B2" rx="11.0" ry="11.0" style="stroke: #A80036; stroke-width: 1.0;"/><path d="M1776.7396,165.9688 L1777.724,167.0625 C1777.1302,167.6406 1775.4271,169.2656 1772.9896,169.2656 C1769.9896,169.2656 1768.224,166.875 1768.224,163.9375 C1768.224,160.625 1770.6302,158.7969 1772.6771,158.7969 C1773.8958,158.7969 1774.5365,159.3438 1775.1302,159.875 L1775.2396,158.9219 L1776.6458,158.9219 C1776.6146,159.3438 1776.5677,159.8906 1776.5677,160.5625 C1776.5677,161.5313 1776.6458,162.1094 1776.7396,162.6875 L1775.3177,162.875 C1775.1458,161.7813 1774.9271,160.2656 1772.9115,160.2656 C1771.2708,160.2656 1769.7865,161.5313 1769.7865,163.9219 C1769.7865,165.875 1770.7552,167.8125 1772.974,167.8125 C1774.724,167.8125 1776.0208,166.6406 1776.7396,165.9688 Z "/><text fill="#000000" font-size="12" lengthAdjust="spacingAndGlyphs" textLength="87.0" x="1791.6666666666667" y="169.0185546875">END-OF-DATA</text><line style="stroke: #A80036; stroke-width: 1.5;" x1="1758.0" x2="1886.0" y1="180.0" y2="180.0"/><line style="stroke: #A80036; stroke-width: 1.5;" x1="1758.0" x2="1886.0" y1="188.0" y2="188.0"/><rect fill="#C8C8C8" height="48.0" rx="1.0" ry="1.0" style="stroke: null; stroke-width: 1.5;" width="137.0" x="1591.0" y="152.0"/><rect fill="#B9B9B9" height="47.0" rx="1.0" ry="1.0" style="stroke: null; stroke-width: 1.5;" width="136.0" x="1591.5" y="152.5"/><rect fill="#AAAAAA" height="46.0" rx="1.0" ry="1.0" style="stroke: null; stroke-width: 1.5;" width="135.0" x="1592.0" y="153.0"/><rect fill="#9B9B9B" height="45.0" rx="1.0" ry="1.0" style="stroke: null; stroke-width: 1.5;" width="134.0" x="1592.5" y="153.5"/><rect fill="#8C8C8C" height="44.0" rx="1.0" ry="1.0" style="stroke: null; stroke-width: 1.5;" width="133.0" x="1593.0" y="154.0"/><rect fill="#7D7D7D" height="43.0" rx="1.0" ry="1.0" style="stroke: null; stroke-width: 1.5;" width="132.0" x="1593.5" y="154.5"/><rect fill="#6E6E6E" height="42.0" rx="1.0" ry="1.0" style="stroke: null; stroke-width: 1.5;" width="131.0" x="1594.0" y="155.0"/><rect fill="#5F5F5F" height="41.0" rx="1.0" ry="1.0" style="stroke: null; stroke-width: 1.5;" width="130.0" x="1594.5" y="155.5"/><rect fill="#505050" height="40.0" rx="1.0" ry="1.0" style="stroke: null; stroke-width: 1.5;" width="129.0" x="1595.0" y="156.0"/><rect fill="#FEFECE" height="48.0" style="stroke: #A80036; stroke-width: 1.5;" width="137.0" x="1587.0" y="148.0"/><ellipse cx="1602.3333333333333" cy="164.0" fill="#ADD1B2" rx="11.0" ry="11.0" style="stroke: #A80036; stroke-width: 1.0;"/><path d="M1605.7396,165.9688 L1606.724,167.0625 C1606.1302,167.6406 1604.4271,169.2656 1601.9896,169.2656 C1598.9896,169.2656 1597.224,166.875 1597.224,163.9375 C1597.224,160.625 1599.6302,158.7969 1601.6771,158.7969 C1602.8958,158.7969 1603.5365,159.3438 1604.1302,159.875 L1604.2396,158.9219 L1605.6458,158.9219 C1605.6146,159.3438 1605.5677,159.8906 1605.5677,160.5625 C1605.5677,161.5313 1605.6458,162.1094 1605.7396,162.6875 L1604.3177,162.875 C1604.1458,161.7813 1603.9271,160.2656 1601.9115,160.2656 C1600.2708,160.2656 1598.7865,161.5313 1598.7865,163.9219 C1598.7865,165.875 1599.7552,167.8125 1601.974,167.8125 C1603.724,167.8125 1605.0208,166.6406 1605.7396,165.9688 Z "/><text fill="#000000" font-size="12" lengthAdjust="spacingAndGlyphs" textLength="96.0" x="1620.6666666666667" y="169.0185546875">MATCH-FAILURE</text><line style="stroke: #A80036; stroke-width: 1.5;" x1="1587.0" x2="1724.0" y1="180.0" y2="180.0"/><line style="stroke: #A80036; stroke-width: 1.5;" x1="1587.0" x2="1724.0" y1="188.0" y2="188.0"/><rect fill="#C8C8C8" height="48.0" rx="1.0" ry="1.0" style="stroke: null; stroke-width: 1.5;" width="70.0" x="1486.0" y="152.0"/><rect fill="#B9B9B9" height="47.0" rx="1.0" ry="1.0" style="stroke: null; stroke-width: 1.5;" width="69.0" x="1486.5" y="152.5"/><rect fill="#AAAAAA" height="46.0" rx="1.0" ry="1.0" style="stroke: null; stroke-width: 1.5;" width="68.0" x="1487.0" y="153.0"/><rect fill="#9B9B9B" height="45.0" rx="1.0" ry="1.0" style="stroke: null; stroke-width: 1.5;" width="67.0" x="1487.5" y="153.5"/><rect fill="#8C8C8C" height="44.0" rx="1.0" ry="1.0" style="stroke: null; stroke-width: 1.5;" width="66.0" x="1488.0" y="154.0"/><rect fill="#7D7D7D" height="43.0" rx="1.0" ry="1.0" style="stroke: null; stroke-width: 1.5;" width="65.0" x="1488.5" y="154.5"/><rect fill="#6E6E6E" height="42.0" rx="1.0" ry="1.0" style="stroke: null; stroke-width: 1.5;" width="64.0" x="1489.0" y="155.0"/><rect fill="#5F5F5F" height="41.0" rx="1.0" ry="1.0" style="stroke: null; stroke-width: 1.5;" width="63.0" x="1489.5" y="155.5"/><rect fill="#505050" height="40.0" rx="1.0" ry="1.0" style="stroke: null; stroke-width: 1.5;" width="62.0" x="1490.0" y="156.0"/><rect fill="#FEFECE" height="48.0" style="stroke: #A80036; stroke-width: 1.5;" width="70.0" x="1482.0" y="148.0"/><ellipse cx="1497.3333333333333" cy="164.0" fill="#ADD1B2" rx="11.0" ry="11.0" style="stroke: #A80036; stroke-width: 1.0;"/><path d="M1500.7396,165.9688 L1501.724,167.0625 C1501.1302,167.6406 1499.4271,169.2656 1496.9896,169.2656 C1493.9896,169.2656 1492.224,166.875 1492.224,163.9375 C1492.224,160.625 1494.6302,158.7969 1496.6771,158.7969 C1497.8958,158.7969 1498.5365,159.3438 1499.1302,159.875 L1499.2396,158.9219 L1500.6458,158.9219 C1500.6146,159.3438 1500.5677,159.8906 1500.5677,160.5625 C1500.5677,161.5313 1500.6458,162.1094 1500.7396,162.6875 L1499.3177,162.875 C1499.1458,161.7813 1498.9271,160.2656 1496.9115,160.2656 C1495.2708,160.2656 1493.7865,161.5313 1493.7865,163.9219 C1493.7865,165.875 1494.7552,167.8125 1496.974,167.8125 C1498.724,167.8125 1500.0208,166.6406 1500.7396,165.9688 Z "/><text fill="#000000" font-size="12" lengthAdjust="spacingAndGlyphs" textLength="29.0" x="1515.6666666666667" y="169.0185546875">CBUF</text><line style="stroke: #A80036; stroke-width: 1.5;" x1="1482.0" x2="1552.0" y1="180.0" y2="180.0"/><line style="stroke: #A80036; stroke-width: 1.5;" x1="1482.0" x2="1552.0" y1="188.0" y2="188.0"/><rect fill="#C8C8C8" height="48.0" rx="1.0" ry="1.0" style="stroke: null; stroke-width: 1.5;" width="114.0" x="1337.0" y="152.0"/><rect fill="#B9B9B9" height="47.0" rx="1.0" ry="1.0" style="stroke: null; stroke-width: 1.5;" width="113.0" x="1337.5" y="152.5"/><rect fill="#AAAAAA" height="46.0" rx="1.0" ry="1.0" style="stroke: null; stroke-width: 1.5;" width="112.0" x="1338.0" y="153.0"/><rect fill="#9B9B9B" height="45.0" rx="1.0" ry="1.0" style="stroke: null; stroke-width: 1.5;" width="111.0" x="1338.5" y="153.5"/><rect fill="#8C8C8C" height="44.0" rx="1.0" ry="1.0" style="stroke: null; stroke-width: 1.5;" width="110.0" x="1339.0" y="154.0"/><rect fill="#7D7D7D" height="43.0" rx="1.0" ry="1.0" style="stroke: null; stroke-width: 1.5;" width="109.0" x="1339.5" y="154.5"/><rect fill="#6E6E6E" height="42.0" rx="1.0" ry="1.0" style="stroke: null; stroke-width: 1.5;" width="108.0" x="1340.0" y="155.0"/><rect fill="#5F5F5F" height="41.0" rx="1.0" ry="1.0" style="stroke: null; stroke-width: 1.5;" width="107.0" x="1340.5" y="155.5"/><rect fill="#505050" height="40.0" rx="1.0" ry="1.0" style="stroke: null; stroke-width: 1.5;" width="106.0" x="1341.0" y="156.0"/><rect fill="#FEFECE" height="48.0" style="stroke: #A80036; stroke-width: 1.5;" width="114.0" x="1333.0" y="148.0"/><ellipse cx="1348.3333333333333" cy="164.0" fill="#ADD1B2" rx="11.0" ry="11.0" style="stroke: #A80036; stroke-width: 1.0;"/><path d="M1351.7396,165.9688 L1352.724,167.0625 C1352.1302,167.6406 1350.4271,169.2656 1347.9896,169.2656 C1344.9896,169.2656 1343.224,166.875 1343.224,163.9375 C1343.224,160.625 1345.6302,158.7969 1347.6771,158.7969 C1348.8958,158.7969 1349.5365,159.3438 1350.1302,159.875 L1350.2396,158.9219 L1351.6458,158.9219 C1351.6146,159.3438 1351.5677,159.8906 1351.5677,160.5625 C1351.5677,161.5313 1351.6458,162.1094 1351.7396,162.6875 L1350.3177,162.875 C1350.1458,161.7813 1349.9271,160.2656 1347.9115,160.2656 C1346.2708,160.2656 1344.7865,161.5313 1344.7865,163.9219 C1344.7865,165.875 1345.7552,167.8125 1347.974,167.8125 C1349.724,167.8125 1351.0208,166.6406 1351.7396,165.9688 Z "/><text fill="#000000" font-size="12" lengthAdjust="spacingAndGlyphs" textLength="73.0" x="1366.6666666666667" y="169.0185546875">OCTET-SINK</text><line style="stroke: #A80036; stroke-width: 1.5;" x1="1333.0" x2="1447.0" y1="180.0" y2="180.0"/><line style="stroke: #A80036; stroke-width: 1.5;" x1="1333.0" x2="1447.0" y1="188.0" y2="188.0"/><rect fill="#C8C8C8" height="48.0" rx="1.0" ry="1.0" style="stroke: null; stroke-width: 1.5;" width="126.0" x="1176.0" y="152.0"/><rect fill="#B9B9B9" height="47.0" rx="1.0" ry="1.0" style="stroke: null; stroke-width: 1.5;" width="125.0" x="1176.5" y="152.5"/><rect fill="#AAAAAA" height="46.0" rx="1.0" ry="1.0" style="stroke: null; stroke-width: 1.5;" width="124.0" x="1177.0" y="153.0"/><rect fill="#9B9B9B" height="45.0" rx="1.0" ry="1.0" style="stroke: null; stroke-width: 1.5;" width="123.0" x="1177.5" y="153.5"/><rect fill="#8C8C8C" height="44.0" rx="1.0" ry="1.0" style="stroke: null; stroke-width: 1.5;" width="122.0" x="1178.0" y="154.0"/><rect fill="#7D7D7D" height="43.0" rx="1.0" ry="1.0" style="stroke: null; stroke-width: 1.5;" width="121.0" x="1178.5" y="154.5"/><rect fill="#6E6E6E" height="42.0" rx="1.0" ry="1.0" style="stroke: null; stroke-width: 1.5;" width="120.0" x="1179.0" y="155.0"/><rect fill="#5F5F5F" height="41.0" rx="1.0" ry="1.0" style="stroke: null; stroke-width: 1.5;" width="119.0" x="1179.5" y="155.5"/><rect fill="#505050" height="40.0" rx="1.0" ry="1.0" style="stroke: null; stroke-width: 1.5;" width="118.0" x="1180.0" y="156.0"/><rect fill="#FEFECE" height="48.0" style="stroke: #A80036; stroke-width: 1.5;" width="126.0" x="1172.0" y="148.0"/><ellipse cx="1187.3333333333333" cy="164.0" fill="#ADD1B2" rx="11.0" ry="11.0" style="stroke: #A80036; stroke-width: 1.0;"/><path d="M1190.7396,165.9688 L1191.724,167.0625 C1191.1302,167.6406 1189.4271,169.2656 1186.9896,169.2656 C1183.9896,169.2656 1182.224,166.875 1182.224,163.9375 C1182.224,160.625 1184.6302,158.7969 1186.6771,158.7969 C1187.8958,158.7969 1188.5365,159.3438 1189.1302,159.875 L1189.2396,158.9219 L1190.6458,158.9219 C1190.6146,159.3438 1190.5677,159.8906 1190.5677,160.5625 C1190.5677,161.5313 1190.6458,162.1094 1190.7396,162.6875 L1189.3177,162.875 C1189.1458,161.7813 1188.9271,160.2656 1186.9115,160.2656 C1185.2708,160.2656 1183.7865,161.5313 1183.7865,163.9219 C1183.7865,165.875 1184.7552,167.8125 1186.974,167.8125 C1188.724,167.8125 1190.0208,166.6406 1190.7396,165.9688 Z "/><text fill="#000000" font-size="12" lengthAdjust="spacingAndGlyphs" textLength="85.0" x="1205.6666666666667" y="169.0185546875">FETCH-ERROR</text><line style="stroke: #A80036; stroke-width: 1.5;" x1="1172.0" x2="1298.0" y1="180.0" y2="180.0"/><line style="stroke: #A80036; stroke-width: 1.5;" x1="1172.0" x2="1298.0" y1="188.0" y2="188.0"/><rect fill="#C8C8C8" height="73.5986328125" rx="1.0" ry="1.0" style="stroke: null; stroke-width: 1.5;" width="179.0" x="1076.0" y="388.0"/><rect fill="#B9B9B9" height="72.5986328125" rx="1.0" ry="1.0" style="stroke: null; stroke-width: 1.5;" width="178.0" x="1076.5" y="388.5"/><rect fill="#AAAAAA" height="71.5986328125" rx="1.0" ry="1.0" style="stroke: null; stroke-width: 1.5;" width="177.0" x="1077.0" y="389.0"/><rect fill="#9B9B9B" height="70.5986328125" rx="1.0" ry="1.0" style="stroke: null; stroke-width: 1.5;" width="176.0" x="1077.5" y="389.5"/><rect fill="#8C8C8C" height="69.5986328125" rx="1.0" ry="1.0" style="stroke: null; stroke-width: 1.5;" width="175.0" x="1078.0" y="390.0"/><rect fill="#7D7D7D" height="68.5986328125" rx="1.0" ry="1.0" style="stroke: null; stroke-width: 1.5;" width="174.0" x="1078.5" y="390.5"/><rect fill="#6E6E6E" height="67.5986328125" rx="1.0" ry="1.0" style="stroke: null; stroke-width: 1.5;" width="173.0" x="1079.0" y="391.0"/><rect fill="#5F5F5F" height="66.5986328125" rx="1.0" ry="1.0" style="stroke: null; stroke-width: 1.5;" width="172.0" x="1079.5" y="391.5"/><rect fill="#505050" height="65.5986328125" rx="1.0" ry="1.0" style="stroke: null; stroke-width: 1.5;" width="171.0" x="1080.0" y="392.0"/><rect fill="#FEFECE" height="73.5986328125" style="stroke: #A80036; stroke-width: 1.5;" width="179.0" x="1072.0" y="384.0"/><ellipse cx="1087.3333333333333" cy="400.0" fill="#ADD1B2" rx="11.0" ry="11.0" style="stroke: #A80036; stroke-width: 1.0;"/><path d="M1090.7396,401.9688 L1091.724,403.0625 C1091.1302,403.6406 1089.4271,405.2656 1086.9896,405.2656 C1083.9896,405.2656 1082.224,402.875 1082.224,399.9375 C1082.224,396.625 1084.6302,394.7969 1086.6771,394.7969 C1087.8958,394.7969 1088.5365,395.3438 1089.1302,395.875 L1089.2396,394.9219 L1090.6458,394.9219 C1090.6146,395.3438 1090.5677,395.8906 1090.5677,396.5625 C1090.5677,397.5313 1090.6458,398.1094 1090.7396,398.6875 L1089.3177,398.875 C1089.1458,397.7813 1088.9271,396.2656 1086.9115,396.2656 C1085.2708,396.2656 1083.7865,397.5313 1083.7865,399.9219 C1083.7865,401.875 1084.7552,403.8125 1086.974,403.8125 C1088.724,403.8125 1090.0208,402.6406 1090.7396,401.9688 Z "/><text fill="#000000" font-size="12" lengthAdjust="spacingAndGlyphs" textLength="138.0" x="1105.6666666666667" y="405.0185546875">TOO-MANY-REDIRECTS</text><line style="stroke: #A80036; stroke-width: 1.5;" x1="1072.0" x2="1251.0" y1="416.0" y2="416.0"/><ellipse cx="1083.0" cy="427.899658203125" fill="none" rx="3.0" ry="3.0" style="stroke: #038048; stroke-width: 1.0;"/><text fill="#000000" font-size="11" lengthAdjust="spacingAndGlyphs" textLength="73.0" x="1092.0" y="431.0">QL-HTTP:URL</text><ellipse cx="1083.0" cy="440.698974609375" fill="none" rx="3.0" ry="3.0" style="stroke: #038048; stroke-width: 1.0;"/><text fill="#000000" font-size="11" lengthAdjust="spacingAndGlyphs" textLength="153.0" x="1092.0" y="443.79931640625">QL-HTTP::REDIRECT-COUNT</text><line style="stroke: #A80036; stroke-width: 1.5;" x1="1072.0" x2="1251.0" y1="449.5986328125" y2="449.5986328125"/><rect fill="#C8C8C8" height="86.39794921875" rx="1.0" ry="1.0" style="stroke: null; stroke-width: 1.5;" width="139.0" x="1003.0" y="133.0"/><rect fill="#B9B9B9" height="85.39794921875" rx="1.0" ry="1.0" style="stroke: null; stroke-width: 1.5;" width="138.0" x="1003.5" y="133.5"/><rect fill="#AAAAAA" height="84.39794921875" rx="1.0" ry="1.0" style="stroke: null; stroke-width: 1.5;" width="137.0" x="1004.0" y="134.0"/><rect fill="#9B9B9B" height="83.39794921875" rx="1.0" ry="1.0" style="stroke: null; stroke-width: 1.5;" width="136.0" x="1004.5" y="134.5"/><rect fill="#8C8C8C" height="82.39794921875" rx="1.0" ry="1.0" style="stroke: null; stroke-width: 1.5;" width="135.0" x="1005.0" y="135.0"/><rect fill="#7D7D7D" height="81.39794921875" rx="1.0" ry="1.0" style="stroke: null; stroke-width: 1.5;" width="134.0" x="1005.5" y="135.5"/><rect fill="#6E6E6E" height="80.39794921875" rx="1.0" ry="1.0" style="stroke: null; stroke-width: 1.5;" width="133.0" x="1006.0" y="136.0"/><rect fill="#5F5F5F" height="79.39794921875" rx="1.0" ry="1.0" style="stroke: null; stroke-width: 1.5;" width="132.0" x="1006.5" y="136.5"/><rect fill="#505050" height="78.39794921875" rx="1.0" ry="1.0" style="stroke: null; stroke-width: 1.5;" width="131.0" x="1007.0" y="137.0"/><rect fill="#FEFECE" height="86.39794921875" style="stroke: #A80036; stroke-width: 1.5;" width="139.0" x="999.0" y="129.0"/><ellipse cx="1039.6666666666667" cy="145.0" fill="#ADD1B2" rx="11.0" ry="11.0" style="stroke: #A80036; stroke-width: 1.0;"/><path d="M1043.0729,146.9688 L1044.0573,148.0625 C1043.4635,148.6406 1041.7604,150.2656 1039.3229,150.2656 C1036.3229,150.2656 1034.5573,147.875 1034.5573,144.9375 C1034.5573,141.625 1036.9635,139.7969 1039.0104,139.7969 C1040.2292,139.7969 1040.8698,140.3438 1041.4635,140.875 L1041.5729,139.9219 L1042.9792,139.9219 C1042.9479,140.3438 1042.901,140.8906 1042.901,141.5625 C1042.901,142.5313 1042.9792,143.1094 1043.0729,143.6875 L1041.651,143.875 C1041.4792,142.7813 1041.2604,141.2656 1039.2448,141.2656 C1037.6042,141.2656 1036.1198,142.5313 1036.1198,144.9219 C1036.1198,146.875 1037.0885,148.8125 1039.3073,148.8125 C1041.0573,148.8125 1042.3542,147.6406 1043.0729,146.9688 Z "/><text fill="#000000" font-size="12" lengthAdjust="spacingAndGlyphs" textLength="22.0" x="1083.3333333333333" y="150.0185546875">URL</text><line style="stroke: #A80036; stroke-width: 1.5;" x1="999.0" x2="1138.0" y1="161.0" y2="161.0"/><ellipse cx="1010.0" cy="172.899658203125" fill="none" rx="3.0" ry="3.0" style="stroke: #038048; stroke-width: 1.0;"/><text fill="#000000" font-size="11" lengthAdjust="spacingAndGlyphs" textLength="113.0" x="1019.0" y="176.0">QL-HTTP:HOSTNAME</text><ellipse cx="1010.0" cy="185.698974609375" fill="none" rx="3.0" ry="3.0" style="stroke: #038048; stroke-width: 1.0;"/><text fill="#000000" font-size="11" lengthAdjust="spacingAndGlyphs" textLength="81.0" x="1019.0" y="188.79931640625">QL-HTTP:PORT</text><ellipse cx="1010.0" cy="198.498291015625" fill="none" rx="3.0" ry="3.0" style="stroke: #038048; stroke-width: 1.0;"/><text fill="#000000" font-size="11" lengthAdjust="spacingAndGlyphs" textLength="81.0" x="1019.0" y="201.5986328125">QL-HTTP:PATH</text><line style="stroke: #A80036; stroke-width: 1.5;" x1="999.0" x2="1138.0" y1="207.39794921875" y2="207.39794921875"/><rect fill="#C8C8C8" height="73.5986328125" rx="1.0" ry="1.0" style="stroke: null; stroke-width: 1.5;" width="209.0" x="1289.0" y="388.0"/><rect fill="#B9B9B9" height="72.5986328125" rx="1.0" ry="1.0" style="stroke: null; stroke-width: 1.5;" width="208.0" x="1289.5" y="388.5"/><rect fill="#AAAAAA" height="71.5986328125" rx="1.0" ry="1.0" style="stroke: null; stroke-width: 1.5;" width="207.0" x="1290.0" y="389.0"/><rect fill="#9B9B9B" height="70.5986328125" rx="1.0" ry="1.0" style="stroke: null; stroke-width: 1.5;" width="206.0" x="1290.5" y="389.5"/><rect fill="#8C8C8C" height="69.5986328125" rx="1.0" ry="1.0" style="stroke: null; stroke-width: 1.5;" width="205.0" x="1291.0" y="390.0"/><rect fill="#7D7D7D" height="68.5986328125" rx="1.0" ry="1.0" style="stroke: null; stroke-width: 1.5;" width="204.0" x="1291.5" y="390.5"/><rect fill="#6E6E6E" height="67.5986328125" rx="1.0" ry="1.0" style="stroke: null; stroke-width: 1.5;" width="203.0" x="1292.0" y="391.0"/><rect fill="#5F5F5F" height="66.5986328125" rx="1.0" ry="1.0" style="stroke: null; stroke-width: 1.5;" width="202.0" x="1292.5" y="391.5"/><rect fill="#505050" height="65.5986328125" rx="1.0" ry="1.0" style="stroke: null; stroke-width: 1.5;" width="201.0" x="1293.0" y="392.0"/><rect fill="#FEFECE" height="73.5986328125" style="stroke: #A80036; stroke-width: 1.5;" width="209.0" x="1285.0" y="384.0"/><ellipse cx="1300.3333333333333" cy="400.0" fill="#ADD1B2" rx="11.0" ry="11.0" style="stroke: #A80036; stroke-width: 1.0;"/><path d="M1303.7396,401.9688 L1304.724,403.0625 C1304.1302,403.6406 1302.4271,405.2656 1299.9896,405.2656 C1296.9896,405.2656 1295.224,402.875 1295.224,399.9375 C1295.224,396.625 1297.6302,394.7969 1299.6771,394.7969 C1300.8958,394.7969 1301.5365,395.3438 1302.1302,395.875 L1302.2396,394.9219 L1303.6458,394.9219 C1303.6146,395.3438 1303.5677,395.8906 1303.5677,396.5625 C1303.5677,397.5313 1303.6458,398.1094 1303.7396,398.6875 L1302.3177,398.875 C1302.1458,397.7813 1301.9271,396.2656 1299.9115,396.2656 C1298.2708,396.2656 1296.7865,397.5313 1296.7865,399.9219 C1296.7865,401.875 1297.7552,403.8125 1299.974,403.8125 C1301.724,403.8125 1303.0208,402.6406 1303.7396,401.9688 Z "/><text fill="#000000" font-size="12" lengthAdjust="spacingAndGlyphs" textLength="168.0" x="1318.6666666666667" y="405.0185546875">UNEXPECTED-HTTP-STATUS</text><line style="stroke: #A80036; stroke-width: 1.5;" x1="1285.0" x2="1494.0" y1="416.0" y2="416.0"/><ellipse cx="1296.0" cy="427.899658203125" fill="none" rx="3.0" ry="3.0" style="stroke: #038048; stroke-width: 1.0;"/><text fill="#000000" font-size="11" lengthAdjust="spacingAndGlyphs" textLength="134.0" x="1305.0" y="431.0">QL-HTTP::STATUS-CODE</text><ellipse cx="1296.0" cy="440.698974609375" fill="none" rx="3.0" ry="3.0" style="stroke: #038048; stroke-width: 1.0;"/><text fill="#000000" font-size="11" lengthAdjust="spacingAndGlyphs" textLength="73.0" x="1305.0" y="443.79931640625">QL-HTTP:URL</text><line style="stroke: #A80036; stroke-width: 1.5;" x1="1285.0" x2="1494.0" y1="449.5986328125" y2="449.5986328125"/><rect fill="#C8C8C8" height="73.5986328125" rx="1.0" ry="1.0" style="stroke: null; stroke-width: 1.5;" width="244.0" x="2524.0" y="388.0"/><rect fill="#B9B9B9" height="72.5986328125" rx="1.0" ry="1.0" style="stroke: null; stroke-width: 1.5;" width="243.0" x="2524.5" y="388.5"/><rect fill="#AAAAAA" height="71.5986328125" rx="1.0" ry="1.0" style="stroke: null; stroke-width: 1.5;" width="242.0" x="2525.0" y="389.0"/><rect fill="#9B9B9B" height="70.5986328125" rx="1.0" ry="1.0" style="stroke: null; stroke-width: 1.5;" width="241.0" x="2525.5" y="389.5"/><rect fill="#8C8C8C" height="69.5986328125" rx="1.0" ry="1.0" style="stroke: null; stroke-width: 1.5;" width="240.0" x="2526.0" y="390.0"/><rect fill="#7D7D7D" height="68.5986328125" rx="1.0" ry="1.0" style="stroke: null; stroke-width: 1.5;" width="239.0" x="2526.5" y="390.5"/><rect fill="#6E6E6E" height="67.5986328125" rx="1.0" ry="1.0" style="stroke: null; stroke-width: 1.5;" width="238.0" x="2527.0" y="391.0"/><rect fill="#5F5F5F" height="66.5986328125" rx="1.0" ry="1.0" style="stroke: null; stroke-width: 1.5;" width="237.0" x="2527.5" y="391.5"/><rect fill="#505050" height="65.5986328125" rx="1.0" ry="1.0" style="stroke: null; stroke-width: 1.5;" width="236.0" x="2528.0" y="392.0"/><rect fill="#FEFECE" height="73.5986328125" style="stroke: #A80036; stroke-width: 1.5;" width="244.0" x="2520.0" y="384.0"/><ellipse cx="2535.3333333333335" cy="400.0" fill="#ADD1B2" rx="11.0" ry="11.0" style="stroke: #A80036; stroke-width: 1.0;"/><path d="M2538.7396,401.9688 L2539.724,403.0625 C2539.1302,403.6406 2537.4271,405.2656 2534.9896,405.2656 C2531.9896,405.2656 2530.224,402.875 2530.224,399.9375 C2530.224,396.625 2532.6302,394.7969 2534.6771,394.7969 C2535.8958,394.7969 2536.5365,395.3438 2537.1302,395.875 L2537.2396,394.9219 L2538.6458,394.9219 C2538.6146,395.3438 2538.5677,395.8906 2538.5677,396.5625 C2538.5677,397.5313 2538.6458,398.1094 2538.7396,398.6875 L2537.3177,398.875 C2537.1458,397.7813 2536.9271,396.2656 2534.9115,396.2656 C2533.2708,396.2656 2531.7865,397.5313 2531.7865,399.9219 C2531.7865,401.875 2532.7552,403.8125 2534.974,403.8125 C2536.724,403.8125 2538.0208,402.6406 2538.7396,401.9688 Z "/><text fill="#000000" font-size="12" lengthAdjust="spacingAndGlyphs" textLength="203.0" x="2553.6666666666665" y="405.0185546875">DEFLATE-DECOMPRESSION-ERROR</text><line style="stroke: #A80036; stroke-width: 1.5;" x1="2520.0" x2="2764.0" y1="416.0" y2="416.0"/><ellipse cx="2531.0" cy="427.899658203125" fill="none" rx="3.0" ry="3.0" style="stroke: #038048; stroke-width: 1.0;"/><text fill="#000000" font-size="11" lengthAdjust="spacingAndGlyphs" textLength="167.0" x="2540.0" y="431.0">SB-KERNEL:FORMAT-CONTROL</text><ellipse cx="2531.0" cy="440.698974609375" fill="none" rx="3.0" ry="3.0" style="stroke: #038048; stroke-width: 1.0;"/><text fill="#000000" font-size="11" lengthAdjust="spacingAndGlyphs" textLength="183.0" x="2540.0" y="443.79931640625">SB-KERNEL::FORMAT-ARGUMENTS</text><line style="stroke: #A80036; stroke-width: 1.5;" x1="2520.0" x2="2764.0" y1="449.5986328125" y2="449.5986328125"/><rect fill="#C8C8C8" height="73.5986328125" rx="1.0" ry="1.0" style="stroke: null; stroke-width: 1.5;" width="216.0" x="2803.0" y="388.0"/><rect fill="#B9B9B9" height="72.5986328125" rx="1.0" ry="1.0" style="stroke: null; stroke-width: 1.5;" width="215.0" x="2803.5" y="388.5"/><rect fill="#AAAAAA" height="71.5986328125" rx="1.0" ry="1.0" style="stroke: null; stroke-width: 1.5;" width="214.0" x="2804.0" y="389.0"/><rect fill="#9B9B9B" height="70.5986328125" rx="1.0" ry="1.0" style="stroke: null; stroke-width: 1.5;" width="213.0" x="2804.5" y="389.5"/><rect fill="#8C8C8C" height="69.5986328125" rx="1.0" ry="1.0" style="stroke: null; stroke-width: 1.5;" width="212.0" x="2805.0" y="390.0"/><rect fill="#7D7D7D" height="68.5986328125" rx="1.0" ry="1.0" style="stroke: null; stroke-width: 1.5;" width="211.0" x="2805.5" y="390.5"/><rect fill="#6E6E6E" height="67.5986328125" rx="1.0" ry="1.0" style="stroke: null; stroke-width: 1.5;" width="210.0" x="2806.0" y="391.0"/><rect fill="#5F5F5F" height="66.5986328125" rx="1.0" ry="1.0" style="stroke: null; stroke-width: 1.5;" width="209.0" x="2806.5" y="391.5"/><rect fill="#505050" height="65.5986328125" rx="1.0" ry="1.0" style="stroke: null; stroke-width: 1.5;" width="208.0" x="2807.0" y="392.0"/><rect fill="#FEFECE" height="73.5986328125" style="stroke: #A80036; stroke-width: 1.5;" width="216.0" x="2799.0" y="384.0"/><ellipse cx="2814.3333333333335" cy="400.0" fill="#ADD1B2" rx="11.0" ry="11.0" style="stroke: #A80036; stroke-width: 1.0;"/><path d="M2817.7396,401.9688 L2818.724,403.0625 C2818.1302,403.6406 2816.4271,405.2656 2813.9896,405.2656 C2810.9896,405.2656 2809.224,402.875 2809.224,399.9375 C2809.224,396.625 2811.6302,394.7969 2813.6771,394.7969 C2814.8958,394.7969 2815.5365,395.3438 2816.1302,395.875 L2816.2396,394.9219 L2817.6458,394.9219 C2817.6146,395.3438 2817.5677,395.8906 2817.5677,396.5625 C2817.5677,397.5313 2817.6458,398.1094 2817.7396,398.6875 L2816.3177,398.875 C2816.1458,397.7813 2815.9271,396.2656 2813.9115,396.2656 C2812.2708,396.2656 2810.7865,397.5313 2810.7865,399.9219 C2810.7865,401.875 2811.7552,403.8125 2813.974,403.8125 C2815.724,403.8125 2817.0208,402.6406 2817.7396,401.9688 Z "/><text fill="#000000" font-size="12" lengthAdjust="spacingAndGlyphs" textLength="175.0" x="2832.6666666666665" y="405.0185546875">ZLIB-DECOMPRESSION-ERROR</text><line style="stroke: #A80036; stroke-width: 1.5;" x1="2799.0" x2="3015.0" y1="416.0" y2="416.0"/><ellipse cx="2810.0" cy="427.899658203125" fill="none" rx="3.0" ry="3.0" style="stroke: #038048; stroke-width: 1.0;"/><text fill="#000000" font-size="11" lengthAdjust="spacingAndGlyphs" textLength="167.0" x="2819.0" y="431.0">SB-KERNEL:FORMAT-CONTROL</text><ellipse cx="2810.0" cy="440.698974609375" fill="none" rx="3.0" ry="3.0" style="stroke: #038048; stroke-width: 1.0;"/><text fill="#000000" font-size="11" lengthAdjust="spacingAndGlyphs" textLength="183.0" x="2819.0" y="443.79931640625">SB-KERNEL::FORMAT-ARGUMENTS</text><line style="stroke: #A80036; stroke-width: 1.5;" x1="2799.0" x2="3015.0" y1="449.5986328125" y2="449.5986328125"/><rect fill="#C8C8C8" height="99.197265625" rx="1.0" ry="1.0" style="stroke: null; stroke-width: 1.5;" width="174.0" x="3098.0" y="126.5"/><rect fill="#B9B9B9" height="98.197265625" rx="1.0" ry="1.0" style="stroke: null; stroke-width: 1.5;" width="173.0" x="3098.5" y="127.0"/><rect fill="#AAAAAA" height="97.197265625" rx="1.0" ry="1.0" style="stroke: null; stroke-width: 1.5;" width="172.0" x="3099.0" y="127.5"/><rect fill="#9B9B9B" height="96.197265625" rx="1.0" ry="1.0" style="stroke: null; stroke-width: 1.5;" width="171.0" x="3099.5" y="128.0"/><rect fill="#8C8C8C" height="95.197265625" rx="1.0" ry="1.0" style="stroke: null; stroke-width: 1.5;" width="170.0" x="3100.0" y="128.5"/><rect fill="#7D7D7D" height="94.197265625" rx="1.0" ry="1.0" style="stroke: null; stroke-width: 1.5;" width="169.0" x="3100.5" y="129.0"/><rect fill="#6E6E6E" height="93.197265625" rx="1.0" ry="1.0" style="stroke: null; stroke-width: 1.5;" width="168.0" x="3101.0" y="129.5"/><rect fill="#5F5F5F" height="92.197265625" rx="1.0" ry="1.0" style="stroke: null; stroke-width: 1.5;" width="167.0" x="3101.5" y="130.0"/><rect fill="#505050" height="91.197265625" rx="1.0" ry="1.0" style="stroke: null; stroke-width: 1.5;" width="166.0" x="3102.0" y="130.5"/><rect fill="#FEFECE" height="99.197265625" style="stroke: #A80036; stroke-width: 1.5;" width="174.0" x="3094.0" y="122.5"/><ellipse cx="3129.6666666666665" cy="138.5" fill="#ADD1B2" rx="11.0" ry="11.0" style="stroke: #A80036; stroke-width: 1.0;"/><path d="M3133.0729,140.4688 L3134.0573,141.5625 C3133.4635,142.1406 3131.7604,143.7656 3129.3229,143.7656 C3126.3229,143.7656 3124.5573,141.375 3124.5573,138.4375 C3124.5573,135.125 3126.9635,133.2969 3129.0104,133.2969 C3130.2292,133.2969 3130.8698,133.8438 3131.4635,134.375 L3131.5729,133.4219 L3132.9792,133.4219 C3132.9479,133.8438 3132.901,134.3906 3132.901,135.0625 C3132.901,136.0313 3132.9792,136.6094 3133.0729,137.1875 L3131.651,137.375 C3131.4792,136.2813 3131.2604,134.7656 3129.2448,134.7656 C3127.6042,134.7656 3126.1198,136.0313 3126.1198,138.4219 C3126.1198,140.375 3127.0885,142.3125 3129.3073,142.3125 C3131.0573,142.3125 3132.3542,141.1406 3133.0729,140.4688 Z "/><text fill="#000000" font-size="12" lengthAdjust="spacingAndGlyphs" textLength="72.0" x="3168.3333333333335" y="143.5185546875">BIT-STREAM</text><line style="stroke: #A80036; stroke-width: 1.5;" x1="3094.0" x2="3268.0" y1="154.5" y2="154.5"/><ellipse cx="3105.0" cy="166.399658203125" fill="none" rx="3.0" ry="3.0" style="stroke: #038048; stroke-width: 1.0;"/><text fill="#000000" font-size="11" lengthAdjust="spacingAndGlyphs" textLength="43.0" x="3114.0" y="169.5">STREAM</text><ellipse cx="3105.0" cy="179.198974609375" fill="none" rx="3.0" ry="3.0" style="stroke: #038048; stroke-width: 1.0;"/><text fill="#000000" font-size="11" lengthAdjust="spacingAndGlyphs" textLength="146.0" x="3114.0" y="182.29931640625">QL-GUNZIPPER::NEXT-BYTE</text><ellipse cx="3105.0" cy="191.998291015625" fill="none" rx="3.0" ry="3.0" style="stroke: #038048; stroke-width: 1.0;"/><text fill="#000000" font-size="11" lengthAdjust="spacingAndGlyphs" textLength="108.0" x="3114.0" y="195.0986328125">QL-GUNZIPPER::BITS</text><ellipse cx="3105.0" cy="204.797607421875" fill="none" rx="3.0" ry="3.0" style="stroke: #038048; stroke-width: 1.0;"/><text fill="#000000" font-size="11" lengthAdjust="spacingAndGlyphs" textLength="148.0" x="3114.0" y="207.89794921875">QL-GUNZIPPER::BIT-COUNT</text><line style="stroke: #A80036; stroke-width: 1.5;" x1="3094.0" x2="3268.0" y1="213.697265625" y2="213.697265625"/><rect fill="#C8C8C8" height="73.5986328125" rx="1.0" ry="1.0" style="stroke: null; stroke-width: 1.5;" width="219.0" x="3054.0" y="388.0"/><rect fill="#B9B9B9" height="72.5986328125" rx="1.0" ry="1.0" style="stroke: null; stroke-width: 1.5;" width="218.0" x="3054.5" y="388.5"/><rect fill="#AAAAAA" height="71.5986328125" rx="1.0" ry="1.0" style="stroke: null; stroke-width: 1.5;" width="217.0" x="3055.0" y="389.0"/><rect fill="#9B9B9B" height="70.5986328125" rx="1.0" ry="1.0" style="stroke: null; stroke-width: 1.5;" width="216.0" x="3055.5" y="389.5"/><rect fill="#8C8C8C" height="69.5986328125" rx="1.0" ry="1.0" style="stroke: null; stroke-width: 1.5;" width="215.0" x="3056.0" y="390.0"/><rect fill="#7D7D7D" height="68.5986328125" rx="1.0" ry="1.0" style="stroke: null; stroke-width: 1.5;" width="214.0" x="3056.5" y="390.5"/><rect fill="#6E6E6E" height="67.5986328125" rx="1.0" ry="1.0" style="stroke: null; stroke-width: 1.5;" width="213.0" x="3057.0" y="391.0"/><rect fill="#5F5F5F" height="66.5986328125" rx="1.0" ry="1.0" style="stroke: null; stroke-width: 1.5;" width="212.0" x="3057.5" y="391.5"/><rect fill="#505050" height="65.5986328125" rx="1.0" ry="1.0" style="stroke: null; stroke-width: 1.5;" width="211.0" x="3058.0" y="392.0"/><rect fill="#FEFECE" height="73.5986328125" style="stroke: #A80036; stroke-width: 1.5;" width="219.0" x="3050.0" y="384.0"/><ellipse cx="3065.3333333333335" cy="400.0" fill="#ADD1B2" rx="11.0" ry="11.0" style="stroke: #A80036; stroke-width: 1.0;"/><path d="M3068.7396,401.9688 L3069.724,403.0625 C3069.1302,403.6406 3067.4271,405.2656 3064.9896,405.2656 C3061.9896,405.2656 3060.224,402.875 3060.224,399.9375 C3060.224,396.625 3062.6302,394.7969 3064.6771,394.7969 C3065.8958,394.7969 3066.5365,395.3438 3067.1302,395.875 L3067.2396,394.9219 L3068.6458,394.9219 C3068.6146,395.3438 3068.5677,395.8906 3068.5677,396.5625 C3068.5677,397.5313 3068.6458,398.1094 3068.7396,398.6875 L3067.3177,398.875 C3067.1458,397.7813 3066.9271,396.2656 3064.9115,396.2656 C3063.2708,396.2656 3061.7865,397.5313 3061.7865,399.9219 C3061.7865,401.875 3062.7552,403.8125 3064.974,403.8125 C3066.724,403.8125 3068.0208,402.6406 3068.7396,401.9688 Z "/><text fill="#000000" font-size="12" lengthAdjust="spacingAndGlyphs" textLength="178.0" x="3083.6666666666665" y="405.0185546875">GZIP-DECOMPRESSION-ERROR</text><line style="stroke: #A80036; stroke-width: 1.5;" x1="3050.0" x2="3269.0" y1="416.0" y2="416.0"/><ellipse cx="3061.0" cy="427.899658203125" fill="none" rx="3.0" ry="3.0" style="stroke: #038048; stroke-width: 1.0;"/><text fill="#000000" font-size="11" lengthAdjust="spacingAndGlyphs" textLength="167.0" x="3070.0" y="431.0">SB-KERNEL:FORMAT-CONTROL</text><ellipse cx="3061.0" cy="440.698974609375" fill="none" rx="3.0" ry="3.0" style="stroke: #038048; stroke-width: 1.0;"/><text fill="#000000" font-size="11" lengthAdjust="spacingAndGlyphs" textLength="183.0" x="3070.0" y="443.79931640625">SB-KERNEL::FORMAT-ARGUMENTS</text><line style="stroke: #A80036; stroke-width: 1.5;" x1="3050.0" x2="3269.0" y1="449.5986328125" y2="449.5986328125"/><rect fill="#C8C8C8" height="73.5986328125" rx="1.0" ry="1.0" style="stroke: null; stroke-width: 1.5;" width="209.0" x="2855.0" y="139.0"/><rect fill="#B9B9B9" height="72.5986328125" rx="1.0" ry="1.0" style="stroke: null; stroke-width: 1.5;" width="208.0" x="2855.5" y="139.5"/><rect fill="#AAAAAA" height="71.5986328125" rx="1.0" ry="1.0" style="stroke: null; stroke-width: 1.5;" width="207.0" x="2856.0" y="140.0"/><rect fill="#9B9B9B" height="70.5986328125" rx="1.0" ry="1.0" style="stroke: null; stroke-width: 1.5;" width="206.0" x="2856.5" y="140.5"/><rect fill="#8C8C8C" height="69.5986328125" rx="1.0" ry="1.0" style="stroke: null; stroke-width: 1.5;" width="205.0" x="2857.0" y="141.0"/><rect fill="#7D7D7D" height="68.5986328125" rx="1.0" ry="1.0" style="stroke: null; stroke-width: 1.5;" width="204.0" x="2857.5" y="141.5"/><rect fill="#6E6E6E" height="67.5986328125" rx="1.0" ry="1.0" style="stroke: null; stroke-width: 1.5;" width="203.0" x="2858.0" y="142.0"/><rect fill="#5F5F5F" height="66.5986328125" rx="1.0" ry="1.0" style="stroke: null; stroke-width: 1.5;" width="202.0" x="2858.5" y="142.5"/><rect fill="#505050" height="65.5986328125" rx="1.0" ry="1.0" style="stroke: null; stroke-width: 1.5;" width="201.0" x="2859.0" y="143.0"/><rect fill="#FEFECE" height="73.5986328125" style="stroke: #A80036; stroke-width: 1.5;" width="209.0" x="2851.0" y="135.0"/><ellipse cx="2874.0" cy="151.0" fill="#ADD1B2" rx="11.0" ry="11.0" style="stroke: #A80036; stroke-width: 1.0;"/><path d="M2877.4063,152.9688 L2878.3906,154.0625 C2877.7969,154.6406 2876.0938,156.2656 2873.6563,156.2656 C2870.6563,156.2656 2868.8906,153.875 2868.8906,150.9375 C2868.8906,147.625 2871.2969,145.7969 2873.3438,145.7969 C2874.5625,145.7969 2875.2031,146.3438 2875.7969,146.875 L2875.9063,145.9219 L2877.3125,145.9219 C2877.2813,146.3438 2877.2344,146.8906 2877.2344,147.5625 C2877.2344,148.5313 2877.3125,149.1094 2877.4063,149.6875 L2875.9844,149.875 C2875.8125,148.7813 2875.5938,147.2656 2873.5781,147.2656 C2871.9375,147.2656 2870.4531,148.5313 2870.4531,150.9219 C2870.4531,152.875 2871.4219,154.8125 2873.6406,154.8125 C2875.3906,154.8125 2876.6875,153.6406 2877.4063,152.9688 Z "/><text fill="#000000" font-size="12" lengthAdjust="spacingAndGlyphs" textLength="145.0" x="2900.0" y="156.0185546875">DECOMPRESSION-ERROR</text><line style="stroke: #A80036; stroke-width: 1.5;" x1="2851.0" x2="3060.0" y1="167.0" y2="167.0"/><ellipse cx="2862.0" cy="178.899658203125" fill="none" rx="3.0" ry="3.0" style="stroke: #038048; stroke-width: 1.0;"/><text fill="#000000" font-size="11" lengthAdjust="spacingAndGlyphs" textLength="167.0" x="2871.0" y="182.0">SB-KERNEL:FORMAT-CONTROL</text><ellipse cx="2862.0" cy="191.698974609375" fill="none" rx="3.0" ry="3.0" style="stroke: #038048; stroke-width: 1.0;"/><text fill="#000000" font-size="11" lengthAdjust="spacingAndGlyphs" textLength="183.0" x="2871.0" y="194.79931640625">SB-KERNEL::FORMAT-ARGUMENTS</text><line style="stroke: #A80036; stroke-width: 1.5;" x1="2851.0" x2="3060.0" y1="200.5986328125" y2="200.5986328125"/><rect fill="#C8C8C8" height="73.5986328125" rx="1.0" ry="1.0" style="stroke: null; stroke-width: 1.5;" width="201.0" x="2620.0" y="139.0"/><rect fill="#B9B9B9" height="72.5986328125" rx="1.0" ry="1.0" style="stroke: null; stroke-width: 1.5;" width="200.0" x="2620.5" y="139.5"/><rect fill="#AAAAAA" height="71.5986328125" rx="1.0" ry="1.0" style="stroke: null; stroke-width: 1.5;" width="199.0" x="2621.0" y="140.0"/><rect fill="#9B9B9B" height="70.5986328125" rx="1.0" ry="1.0" style="stroke: null; stroke-width: 1.5;" width="198.0" x="2621.5" y="140.5"/><rect fill="#8C8C8C" height="69.5986328125" rx="1.0" ry="1.0" style="stroke: null; stroke-width: 1.5;" width="197.0" x="2622.0" y="141.0"/><rect fill="#7D7D7D" height="68.5986328125" rx="1.0" ry="1.0" style="stroke: null; stroke-width: 1.5;" width="196.0" x="2622.5" y="141.5"/><rect fill="#6E6E6E" height="67.5986328125" rx="1.0" ry="1.0" style="stroke: null; stroke-width: 1.5;" width="195.0" x="2623.0" y="142.0"/><rect fill="#5F5F5F" height="66.5986328125" rx="1.0" ry="1.0" style="stroke: null; stroke-width: 1.5;" width="194.0" x="2623.5" y="142.5"/><rect fill="#505050" height="65.5986328125" rx="1.0" ry="1.0" style="stroke: null; stroke-width: 1.5;" width="193.0" x="2624.0" y="143.0"/><rect fill="#FEFECE" height="73.5986328125" style="stroke: #A80036; stroke-width: 1.5;" width="201.0" x="2616.0" y="135.0"/><ellipse cx="2656.0" cy="151.0" fill="#ADD1B2" rx="11.0" ry="11.0" style="stroke: #A80036; stroke-width: 1.0;"/><path d="M2659.4063,152.9688 L2660.3906,154.0625 C2659.7969,154.6406 2658.0938,156.2656 2655.6563,156.2656 C2652.6563,156.2656 2650.8906,153.875 2650.8906,150.9375 C2650.8906,147.625 2653.2969,145.7969 2655.3438,145.7969 C2656.5625,145.7969 2657.2031,146.3438 2657.7969,146.875 L2657.9063,145.9219 L2659.3125,145.9219 C2659.2813,146.3438 2659.2344,146.8906 2659.2344,147.5625 C2659.2344,148.5313 2659.3125,149.1094 2659.4063,149.6875 L2657.9844,149.875 C2657.8125,148.7813 2657.5938,147.2656 2655.5781,147.2656 C2653.9375,147.2656 2652.4531,148.5313 2652.4531,150.9219 C2652.4531,152.875 2653.4219,154.8125 2655.6406,154.8125 C2657.3906,154.8125 2658.6875,153.6406 2659.4063,152.9688 Z "/><text fill="#000000" font-size="12" lengthAdjust="spacingAndGlyphs" textLength="86.0" x="2699.0" y="156.0185546875">DECODE-TREE</text><line style="stroke: #A80036; stroke-width: 1.5;" x1="2616.0" x2="2817.0" y1="167.0" y2="167.0"/><ellipse cx="2627.0" cy="178.899658203125" fill="none" rx="3.0" ry="3.0" style="stroke: #038048; stroke-width: 1.0;"/><text fill="#000000" font-size="11" lengthAdjust="spacingAndGlyphs" textLength="175.0" x="2636.0" y="182.0">QL-GUNZIPPER::LENGTH-COUNT</text><ellipse cx="2627.0" cy="191.698974609375" fill="none" rx="3.0" ry="3.0" style="stroke: #038048; stroke-width: 1.0;"/><text fill="#000000" font-size="11" lengthAdjust="spacingAndGlyphs" textLength="172.0" x="2636.0" y="194.79931640625">QL-GUNZIPPER::CODE-SYMBOLS</text><line style="stroke: #A80036; stroke-width: 1.5;" x1="2616.0" x2="2817.0" y1="200.5986328125" y2="200.5986328125"/><rect fill="#C8C8C8" height="111.99658203125" rx="1.0" ry="1.0" style="stroke: null; stroke-width: 1.5;" width="213.0" x="2373.0" y="120.0"/><rect fill="#B9B9B9" height="110.99658203125" rx="1.0" ry="1.0" style="stroke: null; stroke-width: 1.5;" width="212.0" x="2373.5" y="120.5"/><rect fill="#AAAAAA" height="109.99658203125" rx="1.0" ry="1.0" style="stroke: null; stroke-width: 1.5;" width="211.0" x="2374.0" y="121.0"/><rect fill="#9B9B9B" height="108.99658203125" rx="1.0" ry="1.0" style="stroke: null; stroke-width: 1.5;" width="210.0" x="2374.5" y="121.5"/><rect fill="#8C8C8C" height="107.99658203125" rx="1.0" ry="1.0" style="stroke: null; stroke-width: 1.5;" width="209.0" x="2375.0" y="122.0"/><rect fill="#7D7D7D" height="106.99658203125" rx="1.0" ry="1.0" style="stroke: null; stroke-width: 1.5;" width="208.0" x="2375.5" y="122.5"/><rect fill="#6E6E6E" height="105.99658203125" rx="1.0" ry="1.0" style="stroke: null; stroke-width: 1.5;" width="207.0" x="2376.0" y="123.0"/><rect fill="#5F5F5F" height="104.99658203125" rx="1.0" ry="1.0" style="stroke: null; stroke-width: 1.5;" width="206.0" x="2376.5" y="123.5"/><rect fill="#505050" height="103.99658203125" rx="1.0" ry="1.0" style="stroke: null; stroke-width: 1.5;" width="205.0" x="2377.0" y="124.0"/><rect fill="#FEFECE" height="111.99658203125" style="stroke: #A80036; stroke-width: 1.5;" width="213.0" x="2369.0" y="116.0"/><ellipse cx="2389.6666666666665" cy="132.0" fill="#ADD1B2" rx="11.0" ry="11.0" style="stroke: #A80036; stroke-width: 1.0;"/><path d="M2393.0729,133.9688 L2394.0573,135.0625 C2393.4635,135.6406 2391.7604,137.2656 2389.3229,137.2656 C2386.3229,137.2656 2384.5573,134.875 2384.5573,131.9375 C2384.5573,128.625 2386.9635,126.7969 2389.0104,126.7969 C2390.2292,126.7969 2390.8698,127.3438 2391.4635,127.875 L2391.5729,126.9219 L2392.9792,126.9219 C2392.9479,127.3438 2392.901,127.8906 2392.901,128.5625 C2392.901,129.5313 2392.9792,130.1094 2393.0729,130.6875 L2391.651,130.875 C2391.4792,129.7813 2391.2604,128.2656 2389.2448,128.2656 C2387.6042,128.2656 2386.1198,129.5313 2386.1198,131.9219 C2386.1198,133.875 2387.0885,135.8125 2389.3073,135.8125 C2391.0573,135.8125 2392.3542,134.6406 2393.0729,133.9688 Z "/><text fill="#000000" font-size="12" lengthAdjust="spacingAndGlyphs" textLength="156.0" x="2413.3333333333335" y="137.0185546875">SLIDING-WINDOW-STREAM</text><line style="stroke: #A80036; stroke-width: 1.5;" x1="2369.0" x2="2582.0" y1="148.0" y2="148.0"/><ellipse cx="2380.0" cy="159.899658203125" fill="none" rx="3.0" ry="3.0" style="stroke: #038048; stroke-width: 1.0;"/><text fill="#000000" font-size="11" lengthAdjust="spacingAndGlyphs" textLength="43.0" x="2389.0" y="163.0">STREAM</text><ellipse cx="2380.0" cy="172.698974609375" fill="none" rx="3.0" ry="3.0" style="stroke: #038048; stroke-width: 1.0;"/><text fill="#000000" font-size="11" lengthAdjust="spacingAndGlyphs" textLength="125.0" x="2389.0" y="175.79931640625">QL-GUNZIPPER::BUFFER</text><ellipse cx="2380.0" cy="185.498291015625" fill="none" rx="3.0" ry="3.0" style="stroke: #038048; stroke-width: 1.0;"/><text fill="#000000" font-size="11" lengthAdjust="spacingAndGlyphs" textLength="153.0" x="2389.0" y="188.5986328125">QL-GUNZIPPER::BUFFER-END</text><ellipse cx="2380.0" cy="198.297607421875" fill="none" rx="3.0" ry="3.0" style="stroke: #038048; stroke-width: 1.0;"/><text fill="#000000" font-size="11" lengthAdjust="spacingAndGlyphs" textLength="146.0" x="2389.0" y="201.39794921875">QL-GUNZIPPER::CHECKSUM</text><ellipse cx="2380.0" cy="211.096923828125" fill="none" rx="3.0" ry="3.0" style="stroke: #038048; stroke-width: 1.0;"/><text fill="#000000" font-size="11" lengthAdjust="spacingAndGlyphs" textLength="187.0" x="2389.0" y="214.197265625">QL-GUNZIPPER::CHECKSUM-VALUE</text><line style="stroke: #A80036; stroke-width: 1.5;" x1="2369.0" x2="2582.0" y1="219.99658203125" y2="219.99658203125"/><rect fill="#C8C8C8" height="86.39794921875" rx="1.0" ry="1.0" style="stroke: null; stroke-width: 1.5;" width="241.0" x="3784.0" y="133.0"/><rect fill="#B9B9B9" height="85.39794921875" rx="1.0" ry="1.0" style="stroke: null; stroke-width: 1.5;" width="240.0" x="3784.5" y="133.5"/><rect fill="#AAAAAA" height="84.39794921875" rx="1.0" ry="1.0" style="stroke: null; stroke-width: 1.5;" width="239.0" x="3785.0" y="134.0"/><rect fill="#9B9B9B" height="83.39794921875" rx="1.0" ry="1.0" style="stroke: null; stroke-width: 1.5;" width="238.0" x="3785.5" y="134.5"/><rect fill="#8C8C8C" height="82.39794921875" rx="1.0" ry="1.0" style="stroke: null; stroke-width: 1.5;" width="237.0" x="3786.0" y="135.0"/><rect fill="#7D7D7D" height="81.39794921875" rx="1.0" ry="1.0" style="stroke: null; stroke-width: 1.5;" width="236.0" x="3786.5" y="135.5"/><rect fill="#6E6E6E" height="80.39794921875" rx="1.0" ry="1.0" style="stroke: null; stroke-width: 1.5;" width="235.0" x="3787.0" y="136.0"/><rect fill="#5F5F5F" height="79.39794921875" rx="1.0" ry="1.0" style="stroke: null; stroke-width: 1.5;" width="234.0" x="3787.5" y="136.5"/><rect fill="#505050" height="78.39794921875" rx="1.0" ry="1.0" style="stroke: null; stroke-width: 1.5;" width="233.0" x="3788.0" y="137.0"/><rect fill="#FEFECE" height="86.39794921875" style="stroke: #A80036; stroke-width: 1.5;" width="241.0" x="3780.0" y="129.0"/><ellipse cx="3828.6666666666665" cy="145.0" fill="#ADD1B2" rx="11.0" ry="11.0" style="stroke: #A80036; stroke-width: 1.0;"/><path d="M3832.0729,146.9688 L3833.0573,148.0625 C3832.4635,148.6406 3830.7604,150.2656 3828.3229,150.2656 C3825.3229,150.2656 3823.5573,147.875 3823.5573,144.9375 C3823.5573,141.625 3825.9635,139.7969 3828.0104,139.7969 C3829.2292,139.7969 3829.8698,140.3438 3830.4635,140.875 L3830.5729,139.9219 L3831.9792,139.9219 C3831.9479,140.3438 3831.901,140.8906 3831.901,141.5625 C3831.901,142.5313 3831.9792,143.1094 3832.0729,143.6875 L3830.651,143.875 C3830.4792,142.7813 3830.2604,141.2656 3828.2448,141.2656 C3826.6042,141.2656 3825.1198,142.5313 3825.1198,144.9219 C3825.1198,146.875 3826.0885,148.8125 3828.3073,148.8125 C3830.0573,148.8125 3831.3542,147.6406 3832.0729,146.9688 Z "/><text fill="#000000" font-size="12" lengthAdjust="spacingAndGlyphs" textLength="100.0" x="3880.3333333333335" y="150.0185546875">LOAD-STRATEGY</text><line style="stroke: #A80036; stroke-width: 1.5;" x1="3780.0" x2="4021.0" y1="161.0" y2="161.0"/><ellipse cx="3791.0" cy="172.899658203125" fill="none" rx="3.0" ry="3.0" style="stroke: #038048; stroke-width: 1.0;"/><text fill="#000000" font-size="11" lengthAdjust="spacingAndGlyphs" textLength="79.0" x="3800.0" y="176.0">QL-DIST:NAME</text><ellipse cx="3791.0" cy="185.698974609375" fill="none" rx="3.0" ry="3.0" style="stroke: #038048; stroke-width: 1.0;"/><text fill="#000000" font-size="11" lengthAdjust="spacingAndGlyphs" textLength="187.0" x="3800.0" y="188.79931640625">QUICKLISP-CLIENT::ASDF-SYSTEMS</text><ellipse cx="3791.0" cy="198.498291015625" fill="none" rx="3.0" ry="3.0" style="stroke: #038048; stroke-width: 1.0;"/><text fill="#000000" font-size="11" lengthAdjust="spacingAndGlyphs" textLength="215.0" x="3800.0" y="201.5986328125">QUICKLISP-CLIENT::QUICKLISP-SYSTEMS</text><line style="stroke: #A80036; stroke-width: 1.5;" x1="3780.0" x2="4021.0" y1="207.39794921875" y2="207.39794921875"/><rect fill="#C8C8C8" height="60.79931640625" rx="1.0" ry="1.0" style="stroke: null; stroke-width: 1.5;" width="166.0" x="3583.0" y="145.5"/><rect fill="#B9B9B9" height="59.79931640625" rx="1.0" ry="1.0" style="stroke: null; stroke-width: 1.5;" width="165.0" x="3583.5" y="146.0"/><rect fill="#AAAAAA" height="58.79931640625" rx="1.0" ry="1.0" style="stroke: null; stroke-width: 1.5;" width="164.0" x="3584.0" y="146.5"/><rect fill="#9B9B9B" height="57.79931640625" rx="1.0" ry="1.0" style="stroke: null; stroke-width: 1.5;" width="163.0" x="3584.5" y="147.0"/><rect fill="#8C8C8C" height="56.79931640625" rx="1.0" ry="1.0" style="stroke: null; stroke-width: 1.5;" width="162.0" x="3585.0" y="147.5"/><rect fill="#7D7D7D" height="55.79931640625" rx="1.0" ry="1.0" style="stroke: null; stroke-width: 1.5;" width="161.0" x="3585.5" y="148.0"/><rect fill="#6E6E6E" height="54.79931640625" rx="1.0" ry="1.0" style="stroke: null; stroke-width: 1.5;" width="160.0" x="3586.0" y="148.5"/><rect fill="#5F5F5F" height="53.79931640625" rx="1.0" ry="1.0" style="stroke: null; stroke-width: 1.5;" width="159.0" x="3586.5" y="149.0"/><rect fill="#505050" height="52.79931640625" rx="1.0" ry="1.0" style="stroke: null; stroke-width: 1.5;" width="158.0" x="3587.0" y="149.5"/><rect fill="#FEFECE" height="60.79931640625" style="stroke: #A80036; stroke-width: 1.5;" width="166.0" x="3579.0" y="141.5"/><ellipse cx="3594.3333333333335" cy="157.5" fill="#ADD1B2" rx="11.0" ry="11.0" style="stroke: #A80036; stroke-width: 1.0;"/><path d="M3597.7396,159.4688 L3598.724,160.5625 C3598.1302,161.1406 3596.4271,162.7656 3593.9896,162.7656 C3590.9896,162.7656 3589.224,160.375 3589.224,157.4375 C3589.224,154.125 3591.6302,152.2969 3593.6771,152.2969 C3594.8958,152.2969 3595.5365,152.8438 3596.1302,153.375 L3596.2396,152.4219 L3597.6458,152.4219 C3597.6146,152.8438 3597.5677,153.3906 3597.5677,154.0625 C3597.5677,155.0313 3597.6458,155.6094 3597.7396,156.1875 L3596.3177,156.375 C3596.1458,155.2813 3595.9271,153.7656 3593.9115,153.7656 C3592.2708,153.7656 3590.7865,155.0313 3590.7865,157.4219 C3590.7865,159.375 3591.7552,161.3125 3593.974,161.3125 C3595.724,161.3125 3597.0208,160.1406 3597.7396,159.4688 Z "/><text fill="#000000" font-size="12" lengthAdjust="spacingAndGlyphs" textLength="125.0" x="3612.6666666666665" y="162.5185546875">SYSTEM-NOT-FOUND</text><line style="stroke: #A80036; stroke-width: 1.5;" x1="3579.0" x2="3745.0" y1="173.5" y2="173.5"/><ellipse cx="3590.0" cy="185.399658203125" fill="none" rx="3.0" ry="3.0" style="stroke: #038048; stroke-width: 1.0;"/><text fill="#000000" font-size="11" lengthAdjust="spacingAndGlyphs" textLength="79.0" x="3599.0" y="188.5">QL-DIST:NAME</text><line style="stroke: #A80036; stroke-width: 1.5;" x1="3579.0" x2="3745.0" y1="194.29931640625" y2="194.29931640625"/><rect fill="#C8C8C8" height="60.79931640625" rx="1.0" ry="1.0" style="stroke: null; stroke-width: 1.5;" width="221.0" x="3328.0" y="145.5"/><rect fill="#B9B9B9" height="59.79931640625" rx="1.0" ry="1.0" style="stroke: null; stroke-width: 1.5;" width="220.0" x="3328.5" y="146.0"/><rect fill="#AAAAAA" height="58.79931640625" rx="1.0" ry="1.0" style="stroke: null; stroke-width: 1.5;" width="219.0" x="3329.0" y="146.5"/><rect fill="#9B9B9B" height="57.79931640625" rx="1.0" ry="1.0" style="stroke: null; stroke-width: 1.5;" width="218.0" x="3329.5" y="147.0"/><rect fill="#8C8C8C" height="56.79931640625" rx="1.0" ry="1.0" style="stroke: null; stroke-width: 1.5;" width="217.0" x="3330.0" y="147.5"/><rect fill="#7D7D7D" height="55.79931640625" rx="1.0" ry="1.0" style="stroke: null; stroke-width: 1.5;" width="216.0" x="3330.5" y="148.0"/><rect fill="#6E6E6E" height="54.79931640625" rx="1.0" ry="1.0" style="stroke: null; stroke-width: 1.5;" width="215.0" x="3331.0" y="148.5"/><rect fill="#5F5F5F" height="53.79931640625" rx="1.0" ry="1.0" style="stroke: null; stroke-width: 1.5;" width="214.0" x="3331.5" y="149.0"/><rect fill="#505050" height="52.79931640625" rx="1.0" ry="1.0" style="stroke: null; stroke-width: 1.5;" width="213.0" x="3332.0" y="149.5"/><rect fill="#FEFECE" height="60.79931640625" style="stroke: #A80036; stroke-width: 1.5;" width="221.0" x="3324.0" y="141.5"/><ellipse cx="3339.3333333333335" cy="157.5" fill="#ADD1B2" rx="11.0" ry="11.0" style="stroke: #A80036; stroke-width: 1.0;"/><path d="M3342.7396,159.4688 L3343.724,160.5625 C3343.1302,161.1406 3341.4271,162.7656 3338.9896,162.7656 C3335.9896,162.7656 3334.224,160.375 3334.224,157.4375 C3334.224,154.125 3336.6302,152.2969 3338.6771,152.2969 C3339.8958,152.2969 3340.5365,152.8438 3341.1302,153.375 L3341.2396,152.4219 L3342.6458,152.4219 C3342.6146,152.8438 3342.5677,153.3906 3342.5677,154.0625 C3342.5677,155.0313 3342.6458,155.6094 3342.7396,156.1875 L3341.3177,156.375 C3341.1458,155.2813 3340.9271,153.7656 3338.9115,153.7656 C3337.2708,153.7656 3335.7865,155.0313 3335.7865,157.4219 C3335.7865,159.375 3336.7552,161.3125 3338.974,161.3125 C3340.724,161.3125 3342.0208,160.1406 3342.7396,159.4688 Z "/><text fill="#000000" font-size="12" lengthAdjust="spacingAndGlyphs" textLength="180.0" x="3357.6666666666665" y="162.5185546875">SYSTEM-NOT-QUICKLOADABLE</text><line style="stroke: #A80036; stroke-width: 1.5;" x1="3324.0" x2="3545.0" y1="173.5" y2="173.5"/><ellipse cx="3335.0" cy="185.399658203125" fill="none" rx="3.0" ry="3.0" style="stroke: #038048; stroke-width: 1.0;"/><text fill="#000000" font-size="11" lengthAdjust="spacingAndGlyphs" textLength="89.0" x="3344.0" y="188.5">QL-DIST:SYSTEM</text><line style="stroke: #A80036; stroke-width: 1.5;" x1="3324.0" x2="3545.0" y1="194.29931640625" y2="194.29931640625"/><path d="M815.967,211.166 C798.388,230.052 776.807,252.913 757,273 C728.976,301.419 697.366,332.201 670.184,358.293 " fill="none" style="stroke: #A80036; stroke-width: 1.0;"/><polygon fill="none" points="810.937,206.29500000000002,829.666,196.38400000000001,821.205,215.812,810.937,206.29500000000002" style="stroke: #A80036; stroke-width: 1.0;"/><path d="M849.144,216.442 C847.073,248.678 844.202,293.35 841.672,332.726 " fill="none" style="stroke: #A80036; stroke-width: 1.0;"/><polygon fill="none" points="842.169,215.83800000000002,850.437,196.329,856.14,216.736,842.169,215.83800000000002" style="stroke: #A80036; stroke-width: 1.0;"/><path d="M589.832,222.673 C541.729,266.07 472.859,328.203 425.074,371.313 " fill="none" style="stroke: #A80036; stroke-width: 1.0;"/><polygon fill="none" points="585.439,217.209,604.978,209.00900000000001,594.817,227.60399999999998,585.439,217.209" style="stroke: #A80036; stroke-width: 1.0;"/><path d="M600.214,223.449 C581.404,241.671 558.332,260.684 534,273 C416.179,332.637 362.653,277.132 243,333 C216.038,345.589 189.765,365.937 169.554,383.897 " fill="none" style="stroke: #A80036; stroke-width: 1.0;"/><polygon fill="none" points="595.298,218.46499999999997,614.329,209.14800000000002,605.262,228.3,595.298,218.46499999999997" style="stroke: #A80036; stroke-width: 1.0;"/><path d="M1221.99,215.762 C1207.84,263.402 1185.44,338.775 1172.08,383.706 " fill="none" style="stroke: #A80036; stroke-width: 1.0;"/><polygon fill="none" points="1215.36,213.50599999999997,1227.77,196.329,1228.78,217.49400000000003,1215.36,213.50599999999997" style="stroke: #A80036; stroke-width: 1.0;"/><path d="M1260.69,213.535 C1290.06,261.023 1337.71,338.068 1365.93,383.706 " fill="none" style="stroke: #A80036; stroke-width: 1.0;"/><polygon fill="none" points="1254.61,217.01999999999998,1250.05,196.329,1266.52,209.656,1254.61,217.01999999999998" style="stroke: #A80036; stroke-width: 1.0;"/><path d="M2998.11,224.615 C3037.22,272.359 3093.91,341.557 3128.51,383.788 " fill="none" style="stroke: #A80036; stroke-width: 1.0;"/><polygon fill="none" points="2992.58,228.916,2985.32,209.00900000000001,3003.41,220.04399999999998,2992.58,228.916" style="stroke: #A80036; stroke-width: 1.0;"/><path d="M2944.07,228.722 C2934.9,276.257 2922.08,342.753 2914.17,383.788 " fill="none" style="stroke: #A80036; stroke-width: 1.0;"/><polygon fill="none" points="2937.21,227.322,2947.87,209.00900000000001,2950.95,229.97199999999998,2937.21,227.322" style="stroke: #A80036; stroke-width: 1.0;"/><path d="M2895.37,222.014 C2875.63,238.398 2853.47,256.601 2833,273 C2785.2,311.29 2729.8,354.044 2691.01,383.715 " fill="none" style="stroke: #A80036; stroke-width: 1.0;"/><polygon fill="none" points="2891.1,216.461,2910.95,209.04700000000003,2900.06,227.22199999999998,2891.1,216.461" style="stroke: #A80036; stroke-width: 1.0;"/></g></svg>