<?xml version="1.0" encoding="UTF-8" standalone="yes"?><svg xmlns="http://www.w3.org/2000/svg" height="491pt" style="width:1343px;height:491px;" version="1.1" viewBox="0 0 1343 491" width="1343pt"><defs/><g><polygon fill="#C8C8C8" points="25.0,27.0,97.0,27.0,104.0,49.2900390625,1342.0,49.2900390625,1342.0,490.0,25.0,490.0,25.0,27.0" style="stroke: null; stroke-width: 1;"/><polygon fill="#B4B4B4" points="25.5,27.5,97.5,27.5,104.5,49.7900390625,1341.5,49.7900390625,1341.5,489.5,25.5,489.5,25.5,27.5" style="stroke: null; stroke-width: 1;"/><polygon fill="#A0A0A0" points="26.0,28.0,98.0,28.0,105.0,50.2900390625,1341.0,50.2900390625,1341.0,489.0,26.0,489.0,26.0,28.0" style="stroke: null; stroke-width: 1;"/><polygon fill="#8C8C8C" points="26.5,28.5,98.5,28.5,105.5,50.7900390625,1340.5,50.7900390625,1340.5,488.5,26.5,488.5,26.5,28.5" style="stroke: null; stroke-width: 1;"/><polygon fill="#787878" points="27.0,29.0,99.0,29.0,106.0,51.2900390625,1340.0,51.2900390625,1340.0,488.0,27.0,488.0,27.0,29.0" style="stroke: null; stroke-width: 1;"/><polygon fill="#646464" points="27.5,29.5,99.5,29.5,106.5,51.7900390625,1339.5,51.7900390625,1339.5,487.5,27.5,487.5,27.5,29.5" style="stroke: null; stroke-width: 1;"/><polygon fill="#505050" points="28.0,30.0,100.0,30.0,107.0,52.2900390625,1339.0,52.2900390625,1339.0,487.0,28.0,487.0,28.0,30.0" style="stroke: null; stroke-width: 1;"/><polygon fill="#FFFFFF" points="22.0,24.0,94.0,24.0,101.0,46.2900390625,1339.0,46.2900390625,1339.0,487.0,22.0,487.0,22.0,24.0" style="stroke: #000000; stroke-width: 2.0;"/><line style="stroke: #000000; stroke-width: 2.0;" x1="22.0" x2="101.0" y1="46.2900390625" y2="46.2900390625"/><text fill="#000000" font-size="14" font-weight="bold" lengthAdjust="spacingAndGlyphs" textLength="66.0" x="25.0" y="41.0">SB-GRAY</text><rect fill="#C8C8C8" height="48.0" rx="1.0" ry="1.0" style="stroke: null; stroke-width: 2.0;" width="317.0" x="381.0" y="319.0"/><rect fill="#B9B9B9" height="47.0" rx="1.0" ry="1.0" style="stroke: null; stroke-width: 2.0;" width="316.0" x="381.5" y="319.5"/><rect fill="#AAAAAA" height="46.0" rx="1.0" ry="1.0" style="stroke: null; stroke-width: 2.0;" width="315.0" x="382.0" y="320.0"/><rect fill="#9B9B9B" height="45.0" rx="1.0" ry="1.0" style="stroke: null; stroke-width: 2.0;" width="314.0" x="382.5" y="320.5"/><rect fill="#8C8C8C" height="44.0" rx="1.0" ry="1.0" style="stroke: null; stroke-width: 2.0;" width="313.0" x="383.0" y="321.0"/><rect fill="#7D7D7D" height="43.0" rx="1.0" ry="1.0" style="stroke: null; stroke-width: 2.0;" width="312.0" x="383.5" y="321.5"/><rect fill="#6E6E6E" height="42.0" rx="1.0" ry="1.0" style="stroke: null; stroke-width: 2.0;" width="311.0" x="384.0" y="322.0"/><rect fill="#5F5F5F" height="41.0" rx="1.0" ry="1.0" style="stroke: null; stroke-width: 2.0;" width="310.0" x="384.5" y="322.5"/><rect fill="#505050" height="40.0" rx="1.0" ry="1.0" style="stroke: null; stroke-width: 2.0;" width="309.0" x="385.0" y="323.0"/><rect fill="#FEFECE" height="48.0" style="stroke: #A80036; stroke-width: 1.5;" width="317.0" x="377.0" y="315.0"/><ellipse cx="392.3333333333333" cy="331.0" fill="#ADD1B2" rx="11.0" ry="11.0" style="stroke: #A80036; stroke-width: 1.0;"/><path d="M395.7396,332.9688 L396.724,334.0625 C396.1302,334.6406 394.4271,336.2656 391.9896,336.2656 C388.9896,336.2656 387.224,333.875 387.224,330.9375 C387.224,327.625 389.6302,325.7969 391.6771,325.7969 C392.8958,325.7969 393.5365,326.3438 394.1302,326.875 L394.2396,325.9219 L395.6458,325.9219 C395.6146,326.3438 395.5677,326.8906 395.5677,327.5625 C395.5677,328.5313 395.6458,329.1094 395.7396,329.6875 L394.3177,329.875 C394.1458,328.7813 393.9271,327.2656 391.9115,327.2656 C390.2708,327.2656 388.7865,328.5313 388.7865,330.9219 C388.7865,332.875 389.7552,334.8125 391.974,334.8125 C393.724,334.8125 395.0208,333.6406 395.7396,332.9688 Z "/><text fill="#000000" font-size="12" lengthAdjust="spacingAndGlyphs" textLength="276.0" x="410.6666666666667" y="336.0185546875">FUNDAMENTAL-CHARACTER-OUTPUT-STREAM</text><line style="stroke: #A80036; stroke-width: 1.5;" x1="377.0" x2="694.0" y1="347.0" y2="347.0"/><line style="stroke: #A80036; stroke-width: 1.5;" x1="377.0" x2="694.0" y1="355.0" y2="355.0"/><rect fill="#C8C8C8" height="48.0" rx="1.0" ry="1.0" style="stroke: null; stroke-width: 1.5;" width="304.0" x="42.0" y="319.0"/><rect fill="#B9B9B9" height="47.0" rx="1.0" ry="1.0" style="stroke: null; stroke-width: 1.5;" width="303.0" x="42.5" y="319.5"/><rect fill="#AAAAAA" height="46.0" rx="1.0" ry="1.0" style="stroke: null; stroke-width: 1.5;" width="302.0" x="43.0" y="320.0"/><rect fill="#9B9B9B" height="45.0" rx="1.0" ry="1.0" style="stroke: null; stroke-width: 1.5;" width="301.0" x="43.5" y="320.5"/><rect fill="#8C8C8C" height="44.0" rx="1.0" ry="1.0" style="stroke: null; stroke-width: 1.5;" width="300.0" x="44.0" y="321.0"/><rect fill="#7D7D7D" height="43.0" rx="1.0" ry="1.0" style="stroke: null; stroke-width: 1.5;" width="299.0" x="44.5" y="321.5"/><rect fill="#6E6E6E" height="42.0" rx="1.0" ry="1.0" style="stroke: null; stroke-width: 1.5;" width="298.0" x="45.0" y="322.0"/><rect fill="#5F5F5F" height="41.0" rx="1.0" ry="1.0" style="stroke: null; stroke-width: 1.5;" width="297.0" x="45.5" y="322.5"/><rect fill="#505050" height="40.0" rx="1.0" ry="1.0" style="stroke: null; stroke-width: 1.5;" width="296.0" x="46.0" y="323.0"/><rect fill="#FEFECE" height="48.0" style="stroke: #A80036; stroke-width: 1.5;" width="304.0" x="38.0" y="315.0"/><ellipse cx="53.333333333333336" cy="331.0" fill="#ADD1B2" rx="11.0" ry="11.0" style="stroke: #A80036; stroke-width: 1.0;"/><path d="M56.7396,332.9688 L57.724,334.0625 C57.1302,334.6406 55.4271,336.2656 52.9896,336.2656 C49.9896,336.2656 48.224,333.875 48.224,330.9375 C48.224,327.625 50.6302,325.7969 52.6771,325.7969 C53.8958,325.7969 54.5365,326.3438 55.1302,326.875 L55.2396,325.9219 L56.6458,325.9219 C56.6146,326.3438 56.5677,326.8906 56.5677,327.5625 C56.5677,328.5313 56.6458,329.1094 56.7396,329.6875 L55.3177,329.875 C55.1458,328.7813 54.9271,327.2656 52.9115,327.2656 C51.2708,327.2656 49.7865,328.5313 49.7865,330.9219 C49.7865,332.875 50.7552,334.8125 52.974,334.8125 C54.724,334.8125 56.0208,333.6406 56.7396,332.9688 Z "/><text fill="#000000" font-size="12" lengthAdjust="spacingAndGlyphs" textLength="263.0" x="71.66666666666666" y="336.0185546875">FUNDAMENTAL-CHARACTER-INPUT-STREAM</text><line style="stroke: #A80036; stroke-width: 1.5;" x1="38.0" x2="342.0" y1="347.0" y2="347.0"/><line style="stroke: #A80036; stroke-width: 1.5;" x1="38.0" x2="342.0" y1="355.0" y2="355.0"/><rect fill="#C8C8C8" height="48.0" rx="1.0" ry="1.0" style="stroke: null; stroke-width: 1.5;" width="287.0" x="1041.0" y="319.0"/><rect fill="#B9B9B9" height="47.0" rx="1.0" ry="1.0" style="stroke: null; stroke-width: 1.5;" width="286.0" x="1041.5" y="319.5"/><rect fill="#AAAAAA" height="46.0" rx="1.0" ry="1.0" style="stroke: null; stroke-width: 1.5;" width="285.0" x="1042.0" y="320.0"/><rect fill="#9B9B9B" height="45.0" rx="1.0" ry="1.0" style="stroke: null; stroke-width: 1.5;" width="284.0" x="1042.5" y="320.5"/><rect fill="#8C8C8C" height="44.0" rx="1.0" ry="1.0" style="stroke: null; stroke-width: 1.5;" width="283.0" x="1043.0" y="321.0"/><rect fill="#7D7D7D" height="43.0" rx="1.0" ry="1.0" style="stroke: null; stroke-width: 1.5;" width="282.0" x="1043.5" y="321.5"/><rect fill="#6E6E6E" height="42.0" rx="1.0" ry="1.0" style="stroke: null; stroke-width: 1.5;" width="281.0" x="1044.0" y="322.0"/><rect fill="#5F5F5F" height="41.0" rx="1.0" ry="1.0" style="stroke: null; stroke-width: 1.5;" width="280.0" x="1044.5" y="322.5"/><rect fill="#505050" height="40.0" rx="1.0" ry="1.0" style="stroke: null; stroke-width: 1.5;" width="279.0" x="1045.0" y="323.0"/><rect fill="#FEFECE" height="48.0" style="stroke: #A80036; stroke-width: 1.5;" width="287.0" x="1037.0" y="315.0"/><ellipse cx="1052.3333333333333" cy="331.0" fill="#ADD1B2" rx="11.0" ry="11.0" style="stroke: #A80036; stroke-width: 1.0;"/><path d="M1055.7396,332.9688 L1056.724,334.0625 C1056.1302,334.6406 1054.4271,336.2656 1051.9896,336.2656 C1048.9896,336.2656 1047.224,333.875 1047.224,330.9375 C1047.224,327.625 1049.6302,325.7969 1051.6771,325.7969 C1052.8958,325.7969 1053.5365,326.3438 1054.1302,326.875 L1054.2396,325.9219 L1055.6458,325.9219 C1055.6146,326.3438 1055.5677,326.8906 1055.5677,327.5625 C1055.5677,328.5313 1055.6458,329.1094 1055.7396,329.6875 L1054.3177,329.875 C1054.1458,328.7813 1053.9271,327.2656 1051.9115,327.2656 C1050.2708,327.2656 1048.7865,328.5313 1048.7865,330.9219 C1048.7865,332.875 1049.7552,334.8125 1051.974,334.8125 C1053.724,334.8125 1055.0208,333.6406 1055.7396,332.9688 Z "/><text fill="#000000" font-size="12" lengthAdjust="spacingAndGlyphs" textLength="246.0" x="1070.6666666666667" y="336.0185546875">FUNDAMENTAL-BINARY-OUTPUT-STREAM</text><line style="stroke: #A80036; stroke-width: 1.5;" x1="1037.0" x2="1324.0" y1="347.0" y2="347.0"/><line style="stroke: #A80036; stroke-width: 1.5;" x1="1037.0" x2="1324.0" y1="355.0" y2="355.0"/><rect fill="#C8C8C8" height="60.79931640625" rx="1.0" ry="1.0" style="stroke: null; stroke-width: 1.5;" width="262.0" x="151.0" y="197.5"/><rect fill="#B9B9B9" height="59.79931640625" rx="1.0" ry="1.0" style="stroke: null; stroke-width: 1.5;" width="261.0" x="151.5" y="198.0"/><rect fill="#AAAAAA" height="58.79931640625" rx="1.0" ry="1.0" style="stroke: null; stroke-width: 1.5;" width="260.0" x="152.0" y="198.5"/><rect fill="#9B9B9B" height="57.79931640625" rx="1.0" ry="1.0" style="stroke: null; stroke-width: 1.5;" width="259.0" x="152.5" y="199.0"/><rect fill="#8C8C8C" height="56.79931640625" rx="1.0" ry="1.0" style="stroke: null; stroke-width: 1.5;" width="258.0" x="153.0" y="199.5"/><rect fill="#7D7D7D" height="55.79931640625" rx="1.0" ry="1.0" style="stroke: null; stroke-width: 1.5;" width="257.0" x="153.5" y="200.0"/><rect fill="#6E6E6E" height="54.79931640625" rx="1.0" ry="1.0" style="stroke: null; stroke-width: 1.5;" width="256.0" x="154.0" y="200.5"/><rect fill="#5F5F5F" height="53.79931640625" rx="1.0" ry="1.0" style="stroke: null; stroke-width: 1.5;" width="255.0" x="154.5" y="201.0"/><rect fill="#505050" height="52.79931640625" rx="1.0" ry="1.0" style="stroke: null; stroke-width: 1.5;" width="254.0" x="155.0" y="201.5"/><rect fill="#FEFECE" height="60.79931640625" style="stroke: #A80036; stroke-width: 1.5;" width="262.0" x="147.0" y="193.5"/><ellipse cx="162.33333333333334" cy="209.5" fill="#ADD1B2" rx="11.0" ry="11.0" style="stroke: #A80036; stroke-width: 1.0;"/><path d="M165.7396,211.4688 L166.724,212.5625 C166.1302,213.1406 164.4271,214.7656 161.9896,214.7656 C158.9896,214.7656 157.224,212.375 157.224,209.4375 C157.224,206.125 159.6302,204.2969 161.6771,204.2969 C162.8958,204.2969 163.5365,204.8438 164.1302,205.375 L164.2396,204.4219 L165.6458,204.4219 C165.6146,204.8438 165.5677,205.3906 165.5677,206.0625 C165.5677,207.0313 165.6458,207.6094 165.7396,208.1875 L164.3177,208.375 C164.1458,207.2813 163.9271,205.7656 161.9115,205.7656 C160.2708,205.7656 158.7865,207.0313 158.7865,209.4219 C158.7865,211.375 159.7552,213.3125 161.974,213.3125 C163.724,213.3125 165.0208,212.1406 165.7396,211.4688 Z "/><text fill="#000000" font-size="12" lengthAdjust="spacingAndGlyphs" textLength="221.0" x="180.66666666666666" y="214.5185546875">FUNDAMENTAL-CHARACTER-STREAM</text><line style="stroke: #A80036; stroke-width: 1.5;" x1="147.0" x2="409.0" y1="225.5" y2="225.5"/><ellipse cx="158.0" cy="237.399658203125" fill="none" rx="3.0" ry="3.0" style="stroke: #038048; stroke-width: 1.0;"/><text fill="#000000" font-size="11" lengthAdjust="spacingAndGlyphs" textLength="95.0" x="167.0" y="240.5">SB-GRAY::OPEN-P</text><line style="stroke: #A80036; stroke-width: 1.5;" x1="147.0" x2="409.0" y1="246.29931640625" y2="246.29931640625"/><rect fill="#C8C8C8" height="60.79931640625" rx="1.0" ry="1.0" style="stroke: null; stroke-width: 1.5;" width="225.0" x="448.0" y="197.5"/><rect fill="#B9B9B9" height="59.79931640625" rx="1.0" ry="1.0" style="stroke: null; stroke-width: 1.5;" width="224.0" x="448.5" y="198.0"/><rect fill="#AAAAAA" height="58.79931640625" rx="1.0" ry="1.0" style="stroke: null; stroke-width: 1.5;" width="223.0" x="449.0" y="198.5"/><rect fill="#9B9B9B" height="57.79931640625" rx="1.0" ry="1.0" style="stroke: null; stroke-width: 1.5;" width="222.0" x="449.5" y="199.0"/><rect fill="#8C8C8C" height="56.79931640625" rx="1.0" ry="1.0" style="stroke: null; stroke-width: 1.5;" width="221.0" x="450.0" y="199.5"/><rect fill="#7D7D7D" height="55.79931640625" rx="1.0" ry="1.0" style="stroke: null; stroke-width: 1.5;" width="220.0" x="450.5" y="200.0"/><rect fill="#6E6E6E" height="54.79931640625" rx="1.0" ry="1.0" style="stroke: null; stroke-width: 1.5;" width="219.0" x="451.0" y="200.5"/><rect fill="#5F5F5F" height="53.79931640625" rx="1.0" ry="1.0" style="stroke: null; stroke-width: 1.5;" width="218.0" x="451.5" y="201.0"/><rect fill="#505050" height="52.79931640625" rx="1.0" ry="1.0" style="stroke: null; stroke-width: 1.5;" width="217.0" x="452.0" y="201.5"/><rect fill="#FEFECE" height="60.79931640625" style="stroke: #A80036; stroke-width: 1.5;" width="225.0" x="444.0" y="193.5"/><ellipse cx="459.3333333333333" cy="209.5" fill="#ADD1B2" rx="11.0" ry="11.0" style="stroke: #A80036; stroke-width: 1.0;"/><path d="M462.7396,211.4688 L463.724,212.5625 C463.1302,213.1406 461.4271,214.7656 458.9896,214.7656 C455.9896,214.7656 454.224,212.375 454.224,209.4375 C454.224,206.125 456.6302,204.2969 458.6771,204.2969 C459.8958,204.2969 460.5365,204.8438 461.1302,205.375 L461.2396,204.4219 L462.6458,204.4219 C462.6146,204.8438 462.5677,205.3906 462.5677,206.0625 C462.5677,207.0313 462.6458,207.6094 462.7396,208.1875 L461.3177,208.375 C461.1458,207.2813 460.9271,205.7656 458.9115,205.7656 C457.2708,205.7656 455.7865,207.0313 455.7865,209.4219 C455.7865,211.375 456.7552,213.3125 458.974,213.3125 C460.724,213.3125 462.0208,212.1406 462.7396,211.4688 Z "/><text fill="#000000" font-size="12" lengthAdjust="spacingAndGlyphs" textLength="184.0" x="477.6666666666667" y="214.5185546875">FUNDAMENTAL-INPUT-STREAM</text><line style="stroke: #A80036; stroke-width: 1.5;" x1="444.0" x2="669.0" y1="225.5" y2="225.5"/><ellipse cx="455.0" cy="237.399658203125" fill="none" rx="3.0" ry="3.0" style="stroke: #038048; stroke-width: 1.0;"/><text fill="#000000" font-size="11" lengthAdjust="spacingAndGlyphs" textLength="95.0" x="464.0" y="240.5">SB-GRAY::OPEN-P</text><line style="stroke: #A80036; stroke-width: 1.5;" x1="444.0" x2="669.0" y1="246.29931640625" y2="246.29931640625"/><rect fill="#C8C8C8" height="48.0" rx="1.0" ry="1.0" style="stroke: null; stroke-width: 1.5;" width="232.0" x="980.0" y="204.0"/><rect fill="#B9B9B9" height="47.0" rx="1.0" ry="1.0" style="stroke: null; stroke-width: 1.5;" width="231.0" x="980.5" y="204.5"/><rect fill="#AAAAAA" height="46.0" rx="1.0" ry="1.0" style="stroke: null; stroke-width: 1.5;" width="230.0" x="981.0" y="205.0"/><rect fill="#9B9B9B" height="45.0" rx="1.0" ry="1.0" style="stroke: null; stroke-width: 1.5;" width="229.0" x="981.5" y="205.5"/><rect fill="#8C8C8C" height="44.0" rx="1.0" ry="1.0" style="stroke: null; stroke-width: 1.5;" width="228.0" x="982.0" y="206.0"/><rect fill="#7D7D7D" height="43.0" rx="1.0" ry="1.0" style="stroke: null; stroke-width: 1.5;" width="227.0" x="982.5" y="206.5"/><rect fill="#6E6E6E" height="42.0" rx="1.0" ry="1.0" style="stroke: null; stroke-width: 1.5;" width="226.0" x="983.0" y="207.0"/><rect fill="#5F5F5F" height="41.0" rx="1.0" ry="1.0" style="stroke: null; stroke-width: 1.5;" width="225.0" x="983.5" y="207.5"/><rect fill="#505050" height="40.0" rx="1.0" ry="1.0" style="stroke: null; stroke-width: 1.5;" width="224.0" x="984.0" y="208.0"/><rect fill="#FEFECE" height="48.0" style="stroke: #A80036; stroke-width: 1.5;" width="232.0" x="976.0" y="200.0"/><ellipse cx="991.3333333333334" cy="216.0" fill="#ADD1B2" rx="11.0" ry="11.0" style="stroke: #A80036; stroke-width: 1.0;"/><path d="M994.7396,217.9688 L995.724,219.0625 C995.1302,219.6406 993.4271,221.2656 990.9896,221.2656 C987.9896,221.2656 986.224,218.875 986.224,215.9375 C986.224,212.625 988.6302,210.7969 990.6771,210.7969 C991.8958,210.7969 992.5365,211.3438 993.1302,211.875 L993.2396,210.9219 L994.6458,210.9219 C994.6146,211.3438 994.5677,211.8906 994.5677,212.5625 C994.5677,213.5313 994.6458,214.1094 994.7396,214.6875 L993.3177,214.875 C993.1458,213.7813 992.9271,212.2656 990.9115,212.2656 C989.2708,212.2656 987.7865,213.5313 987.7865,215.9219 C987.7865,217.875 988.7552,219.8125 990.974,219.8125 C992.724,219.8125 994.0208,218.6406 994.7396,217.9688 Z "/><text fill="#000000" font-size="12" lengthAdjust="spacingAndGlyphs" textLength="191.0" x="1009.6666666666666" y="221.0185546875">FUNDAMENTAL-BINARY-STREAM</text><line style="stroke: #A80036; stroke-width: 1.5;" x1="976.0" x2="1208.0" y1="232.0" y2="232.0"/><line style="stroke: #A80036; stroke-width: 1.5;" x1="976.0" x2="1208.0" y1="240.0" y2="240.0"/><rect fill="#C8C8C8" height="60.79931640625" rx="1.0" ry="1.0" style="stroke: null; stroke-width: 1.5;" width="238.0" x="707.0" y="197.5"/><rect fill="#B9B9B9" height="59.79931640625" rx="1.0" ry="1.0" style="stroke: null; stroke-width: 1.5;" width="237.0" x="707.5" y="198.0"/><rect fill="#AAAAAA" height="58.79931640625" rx="1.0" ry="1.0" style="stroke: null; stroke-width: 1.5;" width="236.0" x="708.0" y="198.5"/><rect fill="#9B9B9B" height="57.79931640625" rx="1.0" ry="1.0" style="stroke: null; stroke-width: 1.5;" width="235.0" x="708.5" y="199.0"/><rect fill="#8C8C8C" height="56.79931640625" rx="1.0" ry="1.0" style="stroke: null; stroke-width: 1.5;" width="234.0" x="709.0" y="199.5"/><rect fill="#7D7D7D" height="55.79931640625" rx="1.0" ry="1.0" style="stroke: null; stroke-width: 1.5;" width="233.0" x="709.5" y="200.0"/><rect fill="#6E6E6E" height="54.79931640625" rx="1.0" ry="1.0" style="stroke: null; stroke-width: 1.5;" width="232.0" x="710.0" y="200.5"/><rect fill="#5F5F5F" height="53.79931640625" rx="1.0" ry="1.0" style="stroke: null; stroke-width: 1.5;" width="231.0" x="710.5" y="201.0"/><rect fill="#505050" height="52.79931640625" rx="1.0" ry="1.0" style="stroke: null; stroke-width: 1.5;" width="230.0" x="711.0" y="201.5"/><rect fill="#FEFECE" height="60.79931640625" style="stroke: #A80036; stroke-width: 1.5;" width="238.0" x="703.0" y="193.5"/><ellipse cx="718.3333333333334" cy="209.5" fill="#ADD1B2" rx="11.0" ry="11.0" style="stroke: #A80036; stroke-width: 1.0;"/><path d="M721.7396,211.4688 L722.724,212.5625 C722.1302,213.1406 720.4271,214.7656 717.9896,214.7656 C714.9896,214.7656 713.224,212.375 713.224,209.4375 C713.224,206.125 715.6302,204.2969 717.6771,204.2969 C718.8958,204.2969 719.5365,204.8438 720.1302,205.375 L720.2396,204.4219 L721.6458,204.4219 C721.6146,204.8438 721.5677,205.3906 721.5677,206.0625 C721.5677,207.0313 721.6458,207.6094 721.7396,208.1875 L720.3177,208.375 C720.1458,207.2813 719.9271,205.7656 717.9115,205.7656 C716.2708,205.7656 714.7865,207.0313 714.7865,209.4219 C714.7865,211.375 715.7552,213.3125 717.974,213.3125 C719.724,213.3125 721.0208,212.1406 721.7396,211.4688 Z "/><text fill="#000000" font-size="12" lengthAdjust="spacingAndGlyphs" textLength="197.0" x="736.6666666666666" y="214.5185546875">FUNDAMENTAL-OUTPUT-STREAM</text><line style="stroke: #A80036; stroke-width: 1.5;" x1="703.0" x2="941.0" y1="225.5" y2="225.5"/><ellipse cx="714.0" cy="237.399658203125" fill="none" rx="3.0" ry="3.0" style="stroke: #038048; stroke-width: 1.0;"/><text fill="#000000" font-size="11" lengthAdjust="spacingAndGlyphs" textLength="95.0" x="723.0" y="240.5">SB-GRAY::OPEN-P</text><line style="stroke: #A80036; stroke-width: 1.5;" x1="703.0" x2="941.0" y1="246.29931640625" y2="246.29931640625"/><rect fill="#C8C8C8" height="60.79931640625" rx="1.0" ry="1.0" style="stroke: null; stroke-width: 1.5;" width="183.0" x="602.0" y="75.5"/><rect fill="#B9B9B9" height="59.79931640625" rx="1.0" ry="1.0" style="stroke: null; stroke-width: 1.5;" width="182.0" x="602.5" y="76.0"/><rect fill="#AAAAAA" height="58.79931640625" rx="1.0" ry="1.0" style="stroke: null; stroke-width: 1.5;" width="181.0" x="603.0" y="76.5"/><rect fill="#9B9B9B" height="57.79931640625" rx="1.0" ry="1.0" style="stroke: null; stroke-width: 1.5;" width="180.0" x="603.5" y="77.0"/><rect fill="#8C8C8C" height="56.79931640625" rx="1.0" ry="1.0" style="stroke: null; stroke-width: 1.5;" width="179.0" x="604.0" y="77.5"/><rect fill="#7D7D7D" height="55.79931640625" rx="1.0" ry="1.0" style="stroke: null; stroke-width: 1.5;" width="178.0" x="604.5" y="78.0"/><rect fill="#6E6E6E" height="54.79931640625" rx="1.0" ry="1.0" style="stroke: null; stroke-width: 1.5;" width="177.0" x="605.0" y="78.5"/><rect fill="#5F5F5F" height="53.79931640625" rx="1.0" ry="1.0" style="stroke: null; stroke-width: 1.5;" width="176.0" x="605.5" y="79.0"/><rect fill="#505050" height="52.79931640625" rx="1.0" ry="1.0" style="stroke: null; stroke-width: 1.5;" width="175.0" x="606.0" y="79.5"/><rect fill="#FEFECE" height="60.79931640625" style="stroke: #A80036; stroke-width: 1.5;" width="183.0" x="598.0" y="71.5"/><ellipse cx="613.3333333333334" cy="87.5" fill="#ADD1B2" rx="11.0" ry="11.0" style="stroke: #A80036; stroke-width: 1.0;"/><path d="M616.7396,89.4688 L617.724,90.5625 C617.1302,91.1406 615.4271,92.7656 612.9896,92.7656 C609.9896,92.7656 608.224,90.375 608.224,87.4375 C608.224,84.125 610.6302,82.2969 612.6771,82.2969 C613.8958,82.2969 614.5365,82.8438 615.1302,83.375 L615.2396,82.4219 L616.6458,82.4219 C616.6146,82.8438 616.5677,83.3906 616.5677,84.0625 C616.5677,85.0313 616.6458,85.6094 616.7396,86.1875 L615.3177,86.375 C615.1458,85.2813 614.9271,83.7656 612.9115,83.7656 C611.2708,83.7656 609.7865,85.0313 609.7865,87.4219 C609.7865,89.375 610.7552,91.3125 612.974,91.3125 C614.724,91.3125 616.0208,90.1406 616.7396,89.4688 Z "/><text fill="#000000" font-size="12" lengthAdjust="spacingAndGlyphs" textLength="142.0" x="631.6666666666666" y="92.5185546875">FUNDAMENTAL-STREAM</text><line style="stroke: #A80036; stroke-width: 1.5;" x1="598.0" x2="781.0" y1="103.5" y2="103.5"/><ellipse cx="609.0" cy="115.399658203125" fill="none" rx="3.0" ry="3.0" style="stroke: #038048; stroke-width: 1.0;"/><text fill="#000000" font-size="11" lengthAdjust="spacingAndGlyphs" textLength="95.0" x="618.0" y="118.5">SB-GRAY::OPEN-P</text><line style="stroke: #A80036; stroke-width: 1.5;" x1="598.0" x2="781.0" y1="124.29931640625" y2="124.29931640625"/><rect fill="#C8C8C8" height="48.0" rx="1.0" ry="1.0" style="stroke: null; stroke-width: 1.5;" width="274.0" x="732.0" y="319.0"/><rect fill="#B9B9B9" height="47.0" rx="1.0" ry="1.0" style="stroke: null; stroke-width: 1.5;" width="273.0" x="732.5" y="319.5"/><rect fill="#AAAAAA" height="46.0" rx="1.0" ry="1.0" style="stroke: null; stroke-width: 1.5;" width="272.0" x="733.0" y="320.0"/><rect fill="#9B9B9B" height="45.0" rx="1.0" ry="1.0" style="stroke: null; stroke-width: 1.5;" width="271.0" x="733.5" y="320.5"/><rect fill="#8C8C8C" height="44.0" rx="1.0" ry="1.0" style="stroke: null; stroke-width: 1.5;" width="270.0" x="734.0" y="321.0"/><rect fill="#7D7D7D" height="43.0" rx="1.0" ry="1.0" style="stroke: null; stroke-width: 1.5;" width="269.0" x="734.5" y="321.5"/><rect fill="#6E6E6E" height="42.0" rx="1.0" ry="1.0" style="stroke: null; stroke-width: 1.5;" width="268.0" x="735.0" y="322.0"/><rect fill="#5F5F5F" height="41.0" rx="1.0" ry="1.0" style="stroke: null; stroke-width: 1.5;" width="267.0" x="735.5" y="322.5"/><rect fill="#505050" height="40.0" rx="1.0" ry="1.0" style="stroke: null; stroke-width: 1.5;" width="266.0" x="736.0" y="323.0"/><rect fill="#FEFECE" height="48.0" style="stroke: #A80036; stroke-width: 1.5;" width="274.0" x="728.0" y="315.0"/><ellipse cx="743.3333333333334" cy="331.0" fill="#ADD1B2" rx="11.0" ry="11.0" style="stroke: #A80036; stroke-width: 1.0;"/><path d="M746.7396,332.9688 L747.724,334.0625 C747.1302,334.6406 745.4271,336.2656 742.9896,336.2656 C739.9896,336.2656 738.224,333.875 738.224,330.9375 C738.224,327.625 740.6302,325.7969 742.6771,325.7969 C743.8958,325.7969 744.5365,326.3438 745.1302,326.875 L745.2396,325.9219 L746.6458,325.9219 C746.6146,326.3438 746.5677,326.8906 746.5677,327.5625 C746.5677,328.5313 746.6458,329.1094 746.7396,329.6875 L745.3177,329.875 C745.1458,328.7813 744.9271,327.2656 742.9115,327.2656 C741.2708,327.2656 739.7865,328.5313 739.7865,330.9219 C739.7865,332.875 740.7552,334.8125 742.974,334.8125 C744.724,334.8125 746.0208,333.6406 746.7396,332.9688 Z "/><text fill="#000000" font-size="12" lengthAdjust="spacingAndGlyphs" textLength="233.0" x="761.6666666666666" y="336.0185546875">FUNDAMENTAL-BINARY-INPUT-STREAM</text><line style="stroke: #A80036; stroke-width: 1.5;" x1="728.0" x2="1002.0" y1="347.0" y2="347.0"/><line style="stroke: #A80036; stroke-width: 1.5;" x1="728.0" x2="1002.0" y1="355.0" y2="355.0"/><rect fill="#C8C8C8" height="48.0" rx="1.0" ry="1.0" style="stroke: null; stroke-width: 1.5;" width="182.0" x="448.0" y="427.0"/><rect fill="#B9B9B9" height="47.0" rx="1.0" ry="1.0" style="stroke: null; stroke-width: 1.5;" width="181.0" x="448.5" y="427.5"/><rect fill="#AAAAAA" height="46.0" rx="1.0" ry="1.0" style="stroke: null; stroke-width: 1.5;" width="180.0" x="449.0" y="428.0"/><rect fill="#9B9B9B" height="45.0" rx="1.0" ry="1.0" style="stroke: null; stroke-width: 1.5;" width="179.0" x="449.5" y="428.5"/><rect fill="#8C8C8C" height="44.0" rx="1.0" ry="1.0" style="stroke: null; stroke-width: 1.5;" width="178.0" x="450.0" y="429.0"/><rect fill="#7D7D7D" height="43.0" rx="1.0" ry="1.0" style="stroke: null; stroke-width: 1.5;" width="177.0" x="450.5" y="429.5"/><rect fill="#6E6E6E" height="42.0" rx="1.0" ry="1.0" style="stroke: null; stroke-width: 1.5;" width="176.0" x="451.0" y="430.0"/><rect fill="#5F5F5F" height="41.0" rx="1.0" ry="1.0" style="stroke: null; stroke-width: 1.5;" width="175.0" x="451.5" y="430.5"/><rect fill="#505050" height="40.0" rx="1.0" ry="1.0" style="stroke: null; stroke-width: 1.5;" width="174.0" x="452.0" y="431.0"/><rect fill="#FEFECE" height="48.0" style="stroke: #A80036; stroke-width: 1.5;" width="182.0" x="444.0" y="423.0"/><ellipse cx="459.3333333333333" cy="439.0" fill="#ADD1B2" rx="11.0" ry="11.0" style="stroke: #A80036; stroke-width: 1.0;"/><path d="M462.7396,440.9688 L463.724,442.0625 C463.1302,442.6406 461.4271,444.2656 458.9896,444.2656 C455.9896,444.2656 454.224,441.875 454.224,438.9375 C454.224,435.625 456.6302,433.7969 458.6771,433.7969 C459.8958,433.7969 460.5365,434.3438 461.1302,434.875 L461.2396,433.9219 L462.6458,433.9219 C462.6146,434.3438 462.5677,434.8906 462.5677,435.5625 C462.5677,436.5313 462.6458,437.1094 462.7396,437.6875 L461.3177,437.875 C461.1458,436.7813 460.9271,435.2656 458.9115,435.2656 C457.2708,435.2656 455.7865,436.5313 455.7865,438.9219 C455.7865,440.875 456.7552,442.8125 458.974,442.8125 C460.724,442.8125 462.0208,441.6406 462.7396,440.9688 Z "/><text fill="#000000" font-size="12" lengthAdjust="spacingAndGlyphs" textLength="141.0" x="477.6666666666667" y="444.0185546875">SLIME-OUTPUT-STREAM</text><line style="stroke: #A80036; stroke-width: 1.5;" x1="444.0" x2="626.0" y1="455.0" y2="455.0"/><line style="stroke: #A80036; stroke-width: 1.5;" x1="444.0" x2="626.0" y1="463.0" y2="463.0"/><rect fill="#C8C8C8" height="48.0" rx="1.0" ry="1.0" style="stroke: null; stroke-width: 1.5;" width="169.0" x="110.0" y="427.0"/><rect fill="#B9B9B9" height="47.0" rx="1.0" ry="1.0" style="stroke: null; stroke-width: 1.5;" width="168.0" x="110.5" y="427.5"/><rect fill="#AAAAAA" height="46.0" rx="1.0" ry="1.0" style="stroke: null; stroke-width: 1.5;" width="167.0" x="111.0" y="428.0"/><rect fill="#9B9B9B" height="45.0" rx="1.0" ry="1.0" style="stroke: null; stroke-width: 1.5;" width="166.0" x="111.5" y="428.5"/><rect fill="#8C8C8C" height="44.0" rx="1.0" ry="1.0" style="stroke: null; stroke-width: 1.5;" width="165.0" x="112.0" y="429.0"/><rect fill="#7D7D7D" height="43.0" rx="1.0" ry="1.0" style="stroke: null; stroke-width: 1.5;" width="164.0" x="112.5" y="429.5"/><rect fill="#6E6E6E" height="42.0" rx="1.0" ry="1.0" style="stroke: null; stroke-width: 1.5;" width="163.0" x="113.0" y="430.0"/><rect fill="#5F5F5F" height="41.0" rx="1.0" ry="1.0" style="stroke: null; stroke-width: 1.5;" width="162.0" x="113.5" y="430.5"/><rect fill="#505050" height="40.0" rx="1.0" ry="1.0" style="stroke: null; stroke-width: 1.5;" width="161.0" x="114.0" y="431.0"/><rect fill="#FEFECE" height="48.0" style="stroke: #A80036; stroke-width: 1.5;" width="169.0" x="106.0" y="423.0"/><ellipse cx="121.33333333333333" cy="439.0" fill="#ADD1B2" rx="11.0" ry="11.0" style="stroke: #A80036; stroke-width: 1.0;"/><path d="M124.7396,440.9688 L125.724,442.0625 C125.1302,442.6406 123.4271,444.2656 120.9896,444.2656 C117.9896,444.2656 116.224,441.875 116.224,438.9375 C116.224,435.625 118.6302,433.7969 120.6771,433.7969 C121.8958,433.7969 122.5365,434.3438 123.1302,434.875 L123.2396,433.9219 L124.6458,433.9219 C124.6146,434.3438 124.5677,434.8906 124.5677,435.5625 C124.5677,436.5313 124.6458,437.1094 124.7396,437.6875 L123.3177,437.875 C123.1458,436.7813 122.9271,435.2656 120.9115,435.2656 C119.2708,435.2656 117.7865,436.5313 117.7865,438.9219 C117.7865,440.875 118.7552,442.8125 120.974,442.8125 C122.724,442.8125 124.0208,441.6406 124.7396,440.9688 Z "/><text fill="#000000" font-size="12" lengthAdjust="spacingAndGlyphs" textLength="128.0" x="139.66666666666666" y="444.0185546875">SLIME-INPUT-STREAM</text><line style="stroke: #A80036; stroke-width: 1.5;" x1="106.0" x2="275.0" y1="455.0" y2="455.0"/><line style="stroke: #A80036; stroke-width: 1.5;" x1="106.0" x2="275.0" y1="463.0" y2="463.0"/><path d="M535,383.291 C535,396.817 535,411.1835 535,422.8436 " fill="none" style="stroke: #A80036; stroke-width: 1.0;"/><polygon fill="none" points="528.0,383.23699999999997,535.0,363.23699999999997,542.0,383.23699999999997,528.0,383.23699999999997" style="stroke: #A80036; stroke-width: 1.0;"/><path d="M190,383.291 C190,396.817 190,411.1835 190,422.8436 " fill="none" style="stroke: #A80036; stroke-width: 1.0;"/><polygon fill="none" points="183.0,383.23699999999997,190.0,363.23699999999997,197.0,383.23699999999997,183.0,383.23699999999997" style="stroke: #A80036; stroke-width: 1.0;"/><path d="M364.609,262.755 C403.187,280.017 447.42,299.81 481.149,314.903 " fill="none" style="stroke: #A80036; stroke-width: 1.0;"/><polygon fill="none" points="361.593,269.074,346.197,254.516,367.311,256.29499999999996,361.593,269.074" style="stroke: #A80036; stroke-width: 1.0;"/><path d="M242.474,270.426 C230.805,285.676 218.309,302.006 208.439,314.903 " fill="none" style="stroke: #A80036; stroke-width: 1.0;"/><polygon fill="none" points="236.935,266.145,254.649,254.516,248.054,274.653,236.935,266.145" style="stroke: #A80036; stroke-width: 1.0;"/><path d="M656.982,261.582 C704.092,279.115 758.778,299.467 800.253,314.903 " fill="none" style="stroke: #A80036; stroke-width: 1.0;"/><polygon fill="none" points="654.297,268.052,637.995,254.516,659.181,254.932,654.297,268.052" style="stroke: #A80036; stroke-width: 1.0;"/><path d="M439.693,260.544 C383.049,278.343 316.528,299.244 266.396,314.996 " fill="none" style="stroke: #A80036; stroke-width: 1.0;"/><polygon fill="none" points="437.701,253.833,458.88,254.516,441.898,267.18899999999996,437.701,253.833" style="stroke: #A80036; stroke-width: 1.0;"/><path d="M1122.66,264.069 C1135.64,281.023 1150.32,300.21 1161.58,314.924 " fill="none" style="stroke: #A80036; stroke-width: 1.0;"/><polygon fill="none" points="1117.04,268.245,1110.45,248.108,1128.16,259.73699999999997,1117.04,268.245" style="stroke: #A80036; stroke-width: 1.0;"/><path d="M1026.23,257.321 C989.861,275.745 945.501,298.218 912.524,314.924 " fill="none" style="stroke: #A80036; stroke-width: 1.0;"/><polygon fill="none" points="1023.41,250.902,1044.41,248.108,1029.74,263.39099999999996,1023.41,250.902" style="stroke: #A80036; stroke-width: 1.0;"/><path d="M936.127,260.661 C991.454,278.434 1056.34,299.278 1105.27,314.996 " fill="none" style="stroke: #A80036; stroke-width: 1.0;"/><polygon fill="none" points="933.898,267.297,916.998,254.516,938.18,253.968,933.898,267.297" style="stroke: #A80036; stroke-width: 1.0;"/><path d="M727.039,262.05 C683.549,279.477 633.317,299.605 595.137,314.903 " fill="none" style="stroke: #A80036; stroke-width: 1.0;"/><polygon fill="none" points="724.674,255.457,745.843,254.516,729.881,268.453,724.674,255.457" style="stroke: #A80036; stroke-width: 1.0;"/><path d="M799.613,135.486 C867.01,155.889 951.568,181.487 1012.39,199.9 " fill="none" style="stroke: #A80036; stroke-width: 1.0;"/><polygon fill="none" points="797.309,142.10199999999998,780.195,129.60700000000003,801.365,128.70299999999997,797.309,142.10199999999998" style="stroke: #A80036; stroke-width: 1.0;"/><path d="M578.389,134.833 C516.96,153.068 441.036,175.605 380.888,193.459 " fill="none" style="stroke: #A80036; stroke-width: 1.0;"/><polygon fill="none" points="576.621,128.05700000000002,597.786,129.07600000000002,580.605,141.478,576.621,128.05700000000002" style="stroke: #A80036; stroke-width: 1.0;"/><path d="M737.489,146.479 C754.41,162.001 773.014,179.066 788.449,193.224 " fill="none" style="stroke: #A80036; stroke-width: 1.0;"/><polygon fill="none" points="732.568,151.464,722.562,132.786,742.032,141.147,732.568,151.464" style="stroke: #A80036; stroke-width: 1.0;"/><path d="M640.511,146.479 C623.59,162.001 604.986,179.066 589.551,193.224 " fill="none" style="stroke: #A80036; stroke-width: 1.0;"/><polygon fill="none" points="635.968,141.147,655.438,132.786,645.432,151.464,635.968,141.147" style="stroke: #A80036; stroke-width: 1.0;"/></g></svg>